<svg xmlns="http://www.w3.org/2000/svg" viewBox="0 0 9.92 103.37"><defs><style>.cls-1{fill:#2d2d2d;}</style></defs><g id="Livello_2" data-name="Livello 2"><g id="Livello_1-2" data-name="Livello 1"><path class="cls-1" d="M5,0A5.37,5.37,0,0,1,8.57,1.14,4.24,4.24,0,0,1,9.92,4.46V12H8.09v-.8A5.68,5.68,0,0,1,5,12h-.5a5.34,5.34,0,0,1-3.16-.82A3.05,3.05,0,0,1,0,8.5,3,3,0,0,1,1.3,5.9a5.34,5.34,0,0,1,3.16-.85H8.09V4.46a2.53,2.53,0,0,0-.73-1.95A3.67,3.67,0,0,0,5,1.83h0a3.85,3.85,0,0,0-2.29.59A2.17,2.17,0,0,0,1.83,4L0,3.86A4.1,4.1,0,0,1,1.55,1,5.52,5.52,0,0,1,4.94,0Zm-.5,6.88a3.73,3.73,0,0,0-2.11.5A1.26,1.26,0,0,0,1.83,8.5a1.31,1.31,0,0,0,.52,1.15,3.74,3.74,0,0,0,2.11.48H5a3.62,3.62,0,0,0,2.4-.69A2.51,2.51,0,0,0,8.09,7.5V6.88Z"/><path class="cls-1" d="M1.83,23.65A5.77,5.77,0,0,1,5,22.85,5.32,5.32,0,0,1,8.57,24a4.21,4.21,0,0,1,1.35,3.31v3a4.24,4.24,0,0,1-1.35,3.32A5.37,5.37,0,0,1,5,34.81,5.77,5.77,0,0,1,1.83,34v.8H0v-16H1.83Zm.73,1.72a2.51,2.51,0,0,0-.73,1.94v3a2.5,2.5,0,0,0,.73,1.94A3.62,3.62,0,0,0,5,33a3.62,3.62,0,0,0,2.4-.69,2.43,2.43,0,0,0,.73-1.94v-3a2.44,2.44,0,0,0-.73-1.94A3.62,3.62,0,0,0,5,24.68,3.62,3.62,0,0,0,2.56,25.37Z"/><path class="cls-1" d="M8.57,46.85a4.24,4.24,0,0,1,1.35,3.32v3a4.23,4.23,0,0,1-1.35,3.31A5.37,5.37,0,0,1,5,57.66a5.35,5.35,0,0,1-3.59-1.14A4.24,4.24,0,0,1,0,53.21v-3a4.25,4.25,0,0,1,1.37-3.32A5.35,5.35,0,0,1,5,45.71,5.37,5.37,0,0,1,8.57,46.85Zm-6,1.37a2.53,2.53,0,0,0-.73,2v3a2.53,2.53,0,0,0,.73,1.94,3.67,3.67,0,0,0,2.4.68,3.67,3.67,0,0,0,2.4-.68,2.46,2.46,0,0,0,.73-1.94v-3a2.46,2.46,0,0,0-.73-2A3.62,3.62,0,0,0,5,47.54,3.62,3.62,0,0,0,2.56,48.22Z"/><path class="cls-1" d="M8.09,80.52v-.8a5.77,5.77,0,0,1-3.13.8,5.32,5.32,0,0,1-3.61-1.15A4.21,4.21,0,0,1,0,76.06v-7.5H1.83v7.5A2.51,2.51,0,0,0,2.56,78a3.62,3.62,0,0,0,2.4.69A3.62,3.62,0,0,0,7.36,78a2.51,2.51,0,0,0,.73-1.94v-7.5H9.92v12Z"/><path class="cls-1" d="M8.25,91.42v1.82H5.12v5.67a2.53,2.53,0,0,0,.73,2,3.67,3.67,0,0,0,2.4.68v1.83a5.37,5.37,0,0,1-3.61-1.14,4.24,4.24,0,0,1-1.35-3.32V93.24H1.67V91.42H3.29v-4H5.12v4Z"/></g></g></svg>