<svg xmlns="http://www.w3.org/2000/svg" viewBox="0 0 16 107.42"><defs><style>.cls-1{fill:#2d2d2d;}</style></defs><g id="Livello_2" data-name="Livello 2"><g id="Livello_1-2" data-name="Livello 1"><path class="cls-1" d="M11.11.62a7.88,7.88,0,0,1,4.27,4.27,8,8,0,0,1-1.71,8.76,7.48,7.48,0,0,1-2.56,1.71,7.88,7.88,0,0,1-6.22,0,7.36,7.36,0,0,1-2.53-1.71A7.38,7.38,0,0,1,.64,11.11a7.88,7.88,0,0,1,0-6.22A7.36,7.36,0,0,1,2.36,2.33,8,8,0,0,1,4.89.62a8.11,8.11,0,0,1,6.22,0Zm-7.48,3A6.2,6.2,0,1,0,8,1.83,6.17,6.17,0,0,0,3.63,3.63Zm7.71,2.56-1,.58a2.47,2.47,0,1,0,0,2.46l1,.58a3.61,3.61,0,1,1,0-3.62Z"/><path class="cls-1" d="M8,22.85A5.32,5.32,0,0,1,11.61,24,4.21,4.21,0,0,1,13,27.31c0,3.11-1.85,5-5,5a3,3,0,0,0-2.31.87,4.07,4.07,0,0,0-.82,2.77V37H13v1.82H3V35.91a5.84,5.84,0,0,1,1.28-4A4.82,4.82,0,0,1,8,30.44a3.19,3.19,0,0,0,2.35-.77,3.22,3.22,0,0,0,.78-2.36,2.4,2.4,0,0,0-.73-1.94A3.6,3.6,0,0,0,8,24.68H7.84a3.28,3.28,0,0,0-2,.57,3.11,3.11,0,0,0-1,1.74L3.06,26.6a4.7,4.7,0,0,1,1.65-2.76,4.85,4.85,0,0,1,3.13-1Z"/><path class="cls-1" d="M11.68,47.19a5.8,5.8,0,0,1,1.28,4v5.08a5.83,5.83,0,0,1-1.28,4A4.79,4.79,0,0,1,8,61.71a4.82,4.82,0,0,1-3.68-1.49,5.83,5.83,0,0,1-1.28-4V51.17a5.8,5.8,0,0,1,1.28-4A4.75,4.75,0,0,1,8,45.71,4.72,4.72,0,0,1,11.68,47.19Zm-6,1.22a4,4,0,0,0-.82,2.76v5.08A4.06,4.06,0,0,0,5.69,59,3,3,0,0,0,8,59.88,2.93,2.93,0,0,0,10.31,59a4.06,4.06,0,0,0,.82-2.76V51.17a4,4,0,0,0-.82-2.76A2.9,2.9,0,0,0,8,47.54,2.91,2.91,0,0,0,5.69,48.41Z"/><path class="cls-1" d="M8,68.56a5.37,5.37,0,0,1,3.61,1.14A4.24,4.24,0,0,1,13,73c0,3.11-1.85,5-5,5a3,3,0,0,0-2.31.87,4,4,0,0,0-.82,2.76v1.12H13v1.83H3v-3a5.81,5.81,0,0,1,1.28-4A4.82,4.82,0,0,1,8,76.15a3.15,3.15,0,0,0,2.35-.78A3.18,3.18,0,0,0,11.13,73a2.4,2.4,0,0,0-.73-1.94A3.6,3.6,0,0,0,8,70.39H7.84a3.22,3.22,0,0,0-2,.57,3.07,3.07,0,0,0-1,1.74l-1.79-.39a4.73,4.73,0,0,1,1.65-2.77,4.9,4.9,0,0,1,3.13-1Z"/><path class="cls-1" d="M11.68,92.9a5.8,5.8,0,0,1,1.28,4V102a5.84,5.84,0,0,1-1.28,4A4.79,4.79,0,0,1,8,107.42a4.82,4.82,0,0,1-3.68-1.49A5.84,5.84,0,0,1,3,102V96.88a5.8,5.8,0,0,1,1.28-4A4.75,4.75,0,0,1,8,91.42,4.72,4.72,0,0,1,11.68,92.9Zm-6,1.21a4.09,4.09,0,0,0-.82,2.77V102a4.09,4.09,0,0,0,.82,2.77,3,3,0,0,0,2.31.87,2.93,2.93,0,0,0,2.31-.87,4.09,4.09,0,0,0,.82-2.77V96.88a4.09,4.09,0,0,0-.82-2.77A2.93,2.93,0,0,0,8,93.24,3,3,0,0,0,5.69,94.11Z"/></g></g></svg>