<svg xmlns="http://www.w3.org/2000/svg" viewBox="0 0 9.92 171.93"><defs><style>.cls-1{fill:#2d2d2d;}</style></defs><g id="Livello_2" data-name="Livello 2"><g id="Livello_1-2" data-name="Livello 1"><path class="cls-1" d="M8,.64a3.73,3.73,0,0,1,1.78,2l-1.69.68a2,2,0,0,0-1-1,4.09,4.09,0,0,0-2-.41,3.67,3.67,0,0,0-2.4.68,2.53,2.53,0,0,0-.73,2v3a2.51,2.51,0,0,0,.73,1.94,3.62,3.62,0,0,0,2.4.69,4.08,4.08,0,0,0,2-.42,2,2,0,0,0,1-1.05l1.69.69a3.71,3.71,0,0,1-1.78,2A5.76,5.76,0,0,1,5.12,12a5.3,5.3,0,0,1-3.59-1.14A4.24,4.24,0,0,1,.16,7.5v-3A4.25,4.25,0,0,1,1.53,1.14,5.35,5.35,0,0,1,5.12,0,5.87,5.87,0,0,1,8,.64Z"/><path class="cls-1" d="M8.57,24a4.21,4.21,0,0,1,1.35,3.31v3a4.24,4.24,0,0,1-1.35,3.32A5.37,5.37,0,0,1,5,34.81a5.35,5.35,0,0,1-3.59-1.14A4.25,4.25,0,0,1,0,30.35v-3A4.23,4.23,0,0,1,1.37,24,5.3,5.3,0,0,1,5,22.85,5.32,5.32,0,0,1,8.57,24Zm-6,1.37a2.51,2.51,0,0,0-.73,1.94v3a2.5,2.5,0,0,0,.73,1.94A3.62,3.62,0,0,0,5,33a3.62,3.62,0,0,0,2.4-.69,2.43,2.43,0,0,0,.73-1.94v-3a2.44,2.44,0,0,0-.73-1.94A3.62,3.62,0,0,0,5,24.68,3.62,3.62,0,0,0,2.56,25.37Z"/><path class="cls-1" d="M8.57,46.85a4.24,4.24,0,0,1,1.35,3.32v7.49H8.09V50.17a2.46,2.46,0,0,0-.73-2A3.62,3.62,0,0,0,5,47.54a3.62,3.62,0,0,0-2.4.68,2.53,2.53,0,0,0-.73,2v7.49H0V45.71H1.83v.8A5.68,5.68,0,0,1,5,45.71,5.37,5.37,0,0,1,8.57,46.85Z"/><path class="cls-1" d="M8.25,68.56v1.83H5.12v5.67A2.51,2.51,0,0,0,5.85,78a3.62,3.62,0,0,0,2.4.69v1.83a5.32,5.32,0,0,1-3.61-1.15,4.21,4.21,0,0,1-1.35-3.31V70.39H1.67V68.56H3.29v-4H5.12v4Z"/><path class="cls-1" d="M5,91.42a5.32,5.32,0,0,1,3.61,1.14,4.23,4.23,0,0,1,1.35,3.31v7.5H8.09v-.8a5.68,5.68,0,0,1-3.13.8h-.5a5.34,5.34,0,0,1-3.16-.82A3.05,3.05,0,0,1,0,99.92a3,3,0,0,1,1.3-2.61,5.34,5.34,0,0,1,3.16-.84H8.09v-.6a2.51,2.51,0,0,0-.73-1.94A3.62,3.62,0,0,0,5,93.24h0a3.85,3.85,0,0,0-2.29.6,2.16,2.16,0,0,0-.82,1.62L0,95.28a4.06,4.06,0,0,1,1.55-2.9,5.52,5.52,0,0,1,3.39-1Zm-.5,6.88a3.73,3.73,0,0,0-2.11.5,1.26,1.26,0,0,0-.52,1.12,1.29,1.29,0,0,0,.52,1.14,3.74,3.74,0,0,0,2.11.48H5a3.67,3.67,0,0,0,2.4-.68,2.53,2.53,0,0,0,.73-2V98.3Z"/><path class="cls-1" d="M8,114.91a3.73,3.73,0,0,1,1.78,2l-1.69.68a2,2,0,0,0-1-1,4.21,4.21,0,0,0-2-.41,3.67,3.67,0,0,0-2.4.68,2.53,2.53,0,0,0-.73,2v3a2.51,2.51,0,0,0,.73,1.94,3.62,3.62,0,0,0,2.4.69,4.08,4.08,0,0,0,2-.42,2,2,0,0,0,1-1l1.69.69a3.71,3.71,0,0,1-1.78,2,5.76,5.76,0,0,1-2.86.64,5.3,5.3,0,0,1-3.59-1.14,4.24,4.24,0,0,1-1.37-3.31v-3a4.25,4.25,0,0,1,1.37-3.32,5.35,5.35,0,0,1,3.59-1.14A5.87,5.87,0,0,1,8,114.91Z"/><path class="cls-1" d="M8.25,137.12V139H5.12v5.67a2.5,2.5,0,0,0,.73,1.94,3.62,3.62,0,0,0,2.4.69v1.83a5.37,5.37,0,0,1-3.61-1.14,4.24,4.24,0,0,1-1.35-3.32V139H1.67v-1.83H3.29v-4H5.12v4Z"/><path class="cls-1" d="M5.23,160a5.76,5.76,0,0,1,2.86.64,3.64,3.64,0,0,1,1.76,2l-1.69.69a1.9,1.9,0,0,0-.94-1.05,4.06,4.06,0,0,0-2-.41H5a4.6,4.6,0,0,0-2.51.52,1.15,1.15,0,0,0-.62,1.1,1.19,1.19,0,0,0,.62,1.1A5,5,0,0,0,5,165a6.64,6.64,0,0,1,3.5.8A3.33,3.33,0,0,1,9.55,167a3.07,3.07,0,0,1,.37,1.53A3,3,0,0,1,9.55,170a3.15,3.15,0,0,1-1.09,1.12,6.64,6.64,0,0,1-3.5.8H4.69a5.76,5.76,0,0,1-2.86-.64,3.71,3.71,0,0,1-1.76-2l1.69-.69a2,2,0,0,0,.94,1.05,4.2,4.2,0,0,0,2,.41H5a4.55,4.55,0,0,0,2.51-.52,1.15,1.15,0,0,0,.62-1.1,1.19,1.19,0,0,0-.62-1.1A4.74,4.74,0,0,0,5,166.86a6.51,6.51,0,0,1-3.47-.78A3.26,3.26,0,0,1,.39,165,3.19,3.19,0,0,1,0,163.43a3.11,3.11,0,0,1,.39-1.53,3,3,0,0,1,1.1-1.12A6.5,6.5,0,0,1,5,160Z"/></g></g></svg>