<svg xmlns="http://www.w3.org/2000/svg" viewBox="0 0 444.82 129.08"><defs><style>.cls-1{fill:#2d2d2d;}</style></defs><g id="Livello_2" data-name="Livello 2"><g id="Livello_1-2" data-name="Livello 1"><path class="cls-1" d="M2.69,6.49v7.74H14v2.69H2.69v7.74H14v2.69H0V3.8H14V6.49Z"/><path class="cls-1" d="M22.11,15.58a1.69,1.69,0,1,1-1.69-1.68A1.67,1.67,0,0,1,22.11,15.58Zm0,10.09A1.69,1.69,0,1,1,20.42,24,1.67,1.67,0,0,1,22.11,25.67Z"/><path class="cls-1" d="M8.41,57.46V78.32H5.72V57.46H0V54.77H14.17v2.69Z"/><path class="cls-1" d="M18.88,66.54a1.69,1.69,0,1,1-1.69-1.68A1.67,1.67,0,0,1,18.88,66.54Zm0,10.1A1.69,1.69,0,1,1,17.19,75,1.67,1.67,0,0,1,18.88,76.64Z"/><path class="cls-1" d="M8.45,101.69a8.23,8.23,0,0,1,4.84,1.38,7.22,7.22,0,0,1,2.76,4.07l-2.59.74a4.68,4.68,0,0,0-1.72-2.59,5.5,5.5,0,0,0-3.29-.91H8a6.81,6.81,0,0,0-4.14,1.08,3.82,3.82,0,0,0,0,5.58A6.81,6.81,0,0,0,8,112.12a9.2,9.2,0,0,1,5.82,1.65,6.46,6.46,0,0,1,0,9.82A9.2,9.2,0,0,1,8,125.24H7.67a8.23,8.23,0,0,1-4.88-1.41,7.13,7.13,0,0,1-2.72-4l2.56-.74a4.51,4.51,0,0,0,1.74,2.59,5.53,5.53,0,0,0,3.3.91H8a6.67,6.67,0,0,0,4.14-1.08,3.76,3.76,0,0,0,0-5.58A6.67,6.67,0,0,0,8,114.81a9.2,9.2,0,0,1-5.79-1.65A5.9,5.9,0,0,1,0,108.25a6,6,0,0,1,2.25-5A9.45,9.45,0,0,1,8,101.69Z"/><path class="cls-1" d="M23.52,113.46a1.68,1.68,0,1,1-1.68-1.68A1.67,1.67,0,0,1,23.52,113.46Zm0,10.1a1.68,1.68,0,1,1-1.68-1.68A1.66,1.66,0,0,1,23.52,123.56Z"/><path class="cls-1" d="M53.79,5.21a1.41,1.41,0,1,1-2.82,0,1.41,1.41,0,1,1,2.82,0ZM51.3,27.35V9.92h2.16V27.35Z"/><path class="cls-1" d="M70.92,11.57a6.08,6.08,0,0,1,2,4.78v11H70.72v-11a4,4,0,0,0-1.21-3.16,5.66,5.66,0,0,0-3.81-1.11,5.72,5.72,0,0,0-3.83,1.11,4,4,0,0,0-1.21,3.16v11H58.5V9.92h2.16v1.49a7.92,7.92,0,0,1,5-1.49A7.81,7.81,0,0,1,70.92,11.57Z"/><path class="cls-1" d="M84.31,6a4.31,4.31,0,0,0-2.72.74,2.46,2.46,0,0,0-.78,2V9.92h5v2.16h-5V27.35H78.66V12.08H75.9V9.92h2.76V8.71a4.64,4.64,0,0,1,1.55-3.66,6.33,6.33,0,0,1,4.1-1.25h1.52V6Z"/><path class="cls-1" d="M100.6,11.57a6.08,6.08,0,0,1,2,4.78v4.58a6.1,6.1,0,0,1-2,4.78,7.81,7.81,0,0,1-5.22,1.64,7.89,7.89,0,0,1-5.25-1.64,6.13,6.13,0,0,1-1.95-4.78V16.35a6.12,6.12,0,0,1,1.95-4.78,7.89,7.89,0,0,1,5.25-1.65A7.81,7.81,0,0,1,100.6,11.57Zm-9,1.62a4,4,0,0,0-1.22,3.16v4.58a4,4,0,0,0,1.22,3.16,5.72,5.72,0,0,0,3.83,1.11,5.63,5.63,0,0,0,3.8-1.11,4,4,0,0,0,1.21-3.16V16.35a4,4,0,0,0-1.21-3.16,5.63,5.63,0,0,0-3.8-1.11A5.72,5.72,0,0,0,91.55,13.19Z"/><path class="cls-1" d="M128.15.94a13.88,13.88,0,0,1,5,2.76,14.28,14.28,0,0,1,4.65,11.14A11.84,11.84,0,0,1,136,21.57a6.26,6.26,0,0,1-1.89,1.85,4.64,4.64,0,0,1-2.35.64,4.59,4.59,0,0,1-2.26-.61,5.78,5.78,0,0,1-1.81-1.72,5.74,5.74,0,0,1-.78-1.37,5.9,5.9,0,0,1-.37.47,6.12,6.12,0,0,1-4.78,2,9.12,9.12,0,0,1-3-.44,6.43,6.43,0,0,1-2.32-1.45,6.2,6.2,0,0,1-1.44-2.32,8.88,8.88,0,0,1-.47-3,8.8,8.8,0,0,1,.47-3,6,6,0,0,1,3.76-3.77,9.1,9.1,0,0,1,3-.47,6.4,6.4,0,0,1,4.28,1.45V8.41h2.15v7.2a8.36,8.36,0,0,0,1.25,4.91,3,3,0,0,0,2.32,1.38,3.15,3.15,0,0,0,2.49-1.54,9.81,9.81,0,0,0,1.34-5.52,14,14,0,0,0-1.07-5.59,10.2,10.2,0,0,0-2.83-3.9A12,12,0,0,0,127.48,3a16.7,16.7,0,0,0-5.31-.81A13.12,13.12,0,0,0,117,3.23a13.49,13.49,0,0,0-7.17,7.13,14,14,0,0,0-1,5.25,13.81,13.81,0,0,0,1,5.22,13.31,13.31,0,0,0,2.9,4.27A13.17,13.17,0,0,0,117,28,13.63,13.63,0,0,0,122.17,29a13.36,13.36,0,0,0,6-1.42l.94,1.92a15.05,15.05,0,0,1-7,1.65A15.64,15.64,0,0,1,107.8,9.52a16,16,0,0,1,3.36-4.94,15.56,15.56,0,0,1,5-3.34A15.75,15.75,0,0,1,122.17,0,19,19,0,0,1,128.15.94ZM118,11.84a5.11,5.11,0,0,0-1.28,3.77A5.16,5.16,0,0,0,118,19.38a5.14,5.14,0,0,0,3.76,1.24A4,4,0,0,0,125,19.41a5.63,5.63,0,0,0,1.11-3.8A5.72,5.72,0,0,0,125,11.78a4,4,0,0,0-3.17-1.22A5.15,5.15,0,0,0,118,11.84Z"/><path class="cls-1" d="M151.41,9.92v2.16h-5v8.85a4,4,0,0,0,1.21,3.16,5.66,5.66,0,0,0,3.81,1.11v2.15a8,8,0,0,1-5.25-1.64,6.18,6.18,0,0,1-1.92-4.78V12.08h-2.76V9.92h2.76V3.8h2.15V9.92Z"/><path class="cls-1" d="M157.6,11.41a7.94,7.94,0,0,1,5-1.49,7.77,7.77,0,0,1,5.22,1.65,6.08,6.08,0,0,1,1.95,4.78v11h-2.15v-11a4,4,0,0,0-1.21-3.16,5.65,5.65,0,0,0-3.81-1.11,5.72,5.72,0,0,0-3.83,1.11,4,4,0,0,0-1.21,3.16v11h-2.15V3.8h2.15Z"/><path class="cls-1" d="M185.93,11.57a6.08,6.08,0,0,1,1.95,4.78v3.37H175.67v1.21a4,4,0,0,0,1.21,3.16,5.72,5.72,0,0,0,3.83,1.11h.41a7,7,0,0,0,3.13-.64,3.5,3.5,0,0,0,1.58-1.75l2,.81a5.38,5.38,0,0,1-2.55,2.83,8.74,8.74,0,0,1-4.14.9h-.41a7.89,7.89,0,0,1-5.25-1.64,6.13,6.13,0,0,1-2-4.78V16.35a6.12,6.12,0,0,1,2-4.78,7.89,7.89,0,0,1,5.25-1.65A7.81,7.81,0,0,1,185.93,11.57Zm-9.05,1.62a4,4,0,0,0-1.21,3.16v1.21h10.06V16.35a4,4,0,0,0-1.21-3.16,5.66,5.66,0,0,0-3.81-1.11A5.72,5.72,0,0,0,176.88,13.19Z"/><path class="cls-1" d="M205.28,27.35h-2.16V25.87a7.92,7.92,0,0,1-5,1.48,7.81,7.81,0,0,1-5.22-1.64,6.1,6.1,0,0,1-2-4.78V16.35a6.08,6.08,0,0,1,2-4.78,7.81,7.81,0,0,1,5.22-1.65,7.92,7.92,0,0,1,5,1.49V3.8h2.16Zm-11-14.16a4,4,0,0,0-1.21,3.16v4.58a4,4,0,0,0,1.21,3.16,5.66,5.66,0,0,0,3.81,1.11,5.72,5.72,0,0,0,3.83-1.11,4,4,0,0,0,1.21-3.16V16.35a4,4,0,0,0-1.21-3.16,5.72,5.72,0,0,0-3.83-1.11A5.66,5.66,0,0,0,194.27,13.19Z"/><path class="cls-1" d="M217.19,12.08a5.75,5.75,0,0,0-3.84,1.11,4,4,0,0,0-1.21,3.16v11H210V9.92h2.15v1.49a8,8,0,0,1,5.05-1.49h1.51v2.16Z"/><path class="cls-1" d="M233.47,11.57a6.08,6.08,0,0,1,1.95,4.78v3.37H223.21v1.21a4,4,0,0,0,1.21,3.16,5.75,5.75,0,0,0,3.84,1.11h.4a7,7,0,0,0,3.13-.64,3.46,3.46,0,0,0,1.58-1.75l2,.81a5.44,5.44,0,0,1-2.56,2.83,8.71,8.71,0,0,1-4.14.9h-.4A7.87,7.87,0,0,1,223,25.71a6.1,6.1,0,0,1-1.95-4.78V16.35A6.08,6.08,0,0,1,223,11.57a7.88,7.88,0,0,1,5.25-1.65A7.76,7.76,0,0,1,233.47,11.57Zm-9.05,1.62a4,4,0,0,0-1.21,3.16v1.21h10.06V16.35a4,4,0,0,0-1.21-3.16,5.63,5.63,0,0,0-3.8-1.11A5.75,5.75,0,0,0,224.42,13.19Z"/><path class="cls-1" d="M245.66,9.92a7.9,7.9,0,0,1,5.24,1.65,6.09,6.09,0,0,1,2,4.78v11H250.7V25.87a7.93,7.93,0,0,1-5,1.48h-.78a8,8,0,0,1-4.57-1.17,4.4,4.4,0,0,1-1.85-3.74,4.36,4.36,0,0,1,1.85-3.7,7.94,7.94,0,0,1,4.57-1.18h5.82V16.35a4,4,0,0,0-1.24-3.16,5.63,5.63,0,0,0-3.8-1.11h0a6,6,0,0,0-3.63,1,3.66,3.66,0,0,0-1.38,2.66l-2.12-.23a5.73,5.73,0,0,1,2.19-4.14,8,8,0,0,1,4.94-1.42Zm-.78,9.8a6,6,0,0,0-3.33.77,2.26,2.26,0,0,0-.94,2,2.28,2.28,0,0,0,.94,2,6,6,0,0,0,3.33.77h.78a5.63,5.63,0,0,0,3.8-1.11,4,4,0,0,0,1.24-3.16V19.72Z"/><path class="cls-1" d="M282.19,11.57a6.09,6.09,0,0,1,2,4.78v11H282v-11a4,4,0,0,0-1.21-3.16,5.63,5.63,0,0,0-3.8-1.11,5.82,5.82,0,0,0-3.84,1.11,4,4,0,0,0-1.21,3.16v11h-2.15v-11a4,4,0,0,0-1.21-3.16,5.63,5.63,0,0,0-3.8-1.11,5.73,5.73,0,0,0-3.84,1.11,4,4,0,0,0-1.21,3.16v11h-2.15V9.92h2.15v1.49a8,8,0,0,1,5-1.49A7.76,7.76,0,0,1,270,11.57a6.14,6.14,0,0,1,.88,1,7.93,7.93,0,0,1,.87-1A7.89,7.89,0,0,1,277,9.92,7.76,7.76,0,0,1,282.19,11.57Z"/><path class="cls-1" d="M295.45,9.92a8.71,8.71,0,0,1,4.14.91,5.4,5.4,0,0,1,2.56,2.83l-2,.81a3.48,3.48,0,0,0-1.59-1.75,6.87,6.87,0,0,0-3.13-.64h-.4a7.45,7.45,0,0,0-4,.84A2,2,0,0,0,290,14.8a2,2,0,0,0,1.08,1.92,7.45,7.45,0,0,0,4,.84,9.79,9.79,0,0,1,5.08,1.15,4.41,4.41,0,0,1,0,7.5,9.8,9.8,0,0,1-5.08,1.14h-.4a8.79,8.79,0,0,1-4.18-.9,5.38,5.38,0,0,1-2.55-2.83l2-.81a3.26,3.26,0,0,0,1.54,1.75,7.22,7.22,0,0,0,3.17.64h.4a7.4,7.4,0,0,0,3.94-.84,2,2,0,0,0,1.07-1.92A2,2,0,0,0,299,20.56a7.4,7.4,0,0,0-3.94-.84,9.89,9.89,0,0,1-5.11-1.15,4.24,4.24,0,0,1-2.09-3.77,4.22,4.22,0,0,1,2.09-3.73,9.89,9.89,0,0,1,5.11-1.15Z"/><path class="cls-1" d="M316.58,10.83a5.36,5.36,0,0,1,2.56,2.83l-2,.81a3.22,3.22,0,0,0-1.54-1.75,6.93,6.93,0,0,0-3.13-.64,5.73,5.73,0,0,0-3.84,1.11,4,4,0,0,0-1.21,3.16v4.58a4,4,0,0,0,1.21,3.16,5.73,5.73,0,0,0,3.84,1.11,7.07,7.07,0,0,0,3.13-.64,3.26,3.26,0,0,0,1.54-1.75l2,.81a5.36,5.36,0,0,1-2.56,2.83,8.69,8.69,0,0,1-4.13.9,7.87,7.87,0,0,1-5.25-1.64,6.1,6.1,0,0,1-1.95-4.78V16.35a6.08,6.08,0,0,1,1.95-4.78,7.88,7.88,0,0,1,5.25-1.65A8.69,8.69,0,0,1,316.58,10.83Z"/><path class="cls-1" d="M334.59,11.57a6.08,6.08,0,0,1,2,4.78v4.58a6.1,6.1,0,0,1-2,4.78,7.81,7.81,0,0,1-5.22,1.64,7.89,7.89,0,0,1-5.25-1.64,6.1,6.1,0,0,1-1.95-4.78V16.35a6.08,6.08,0,0,1,1.95-4.78,7.89,7.89,0,0,1,5.25-1.65A7.81,7.81,0,0,1,334.59,11.57Zm-9,1.62a4,4,0,0,0-1.21,3.16v4.58a4,4,0,0,0,1.21,3.16,5.72,5.72,0,0,0,3.83,1.11,5.63,5.63,0,0,0,3.8-1.11,4,4,0,0,0,1.21-3.16V16.35a4,4,0,0,0-1.21-3.16,5.63,5.63,0,0,0-3.8-1.11A5.72,5.72,0,0,0,325.54,13.19Z"/><path class="cls-1" d="M353.93,27.35h-2.15V25.87a8,8,0,0,1-5,1.48,7.76,7.76,0,0,1-5.21-1.64,6.1,6.1,0,0,1-1.95-4.78V16.35a6.08,6.08,0,0,1,1.95-4.78,7.76,7.76,0,0,1,5.21-1.65,8,8,0,0,1,5,1.49V3.8h2.15Zm-11-14.16a4,4,0,0,0-1.21,3.16v4.58a4,4,0,0,0,1.21,3.16,5.63,5.63,0,0,0,3.8,1.11,5.73,5.73,0,0,0,3.84-1.11,4,4,0,0,0,1.21-3.16V16.35a4,4,0,0,0-1.21-3.16,5.73,5.73,0,0,0-3.84-1.11A5.63,5.63,0,0,0,342.93,13.19Z"/><path class="cls-1" d="M370.39,11.57a6.08,6.08,0,0,1,1.95,4.78v3.37H360.13v1.21a4,4,0,0,0,1.21,3.16,5.72,5.72,0,0,0,3.83,1.11h.41a7,7,0,0,0,3.13-.64,3.5,3.5,0,0,0,1.58-1.75l2,.81a5.38,5.38,0,0,1-2.55,2.83,8.74,8.74,0,0,1-4.14.9h-.41a7.89,7.89,0,0,1-5.25-1.64A6.13,6.13,0,0,1,358,20.93V16.35a6.12,6.12,0,0,1,1.95-4.78,7.89,7.89,0,0,1,5.25-1.65A7.81,7.81,0,0,1,370.39,11.57Zm-9.05,1.62a4,4,0,0,0-1.21,3.16v1.21h10.06V16.35A4,4,0,0,0,369,13.19a5.66,5.66,0,0,0-3.81-1.11A5.72,5.72,0,0,0,361.34,13.19Z"/><path class="cls-1" d="M378.87,25.94a1.42,1.42,0,1,1-1.41-1.41A1.38,1.38,0,0,1,378.87,25.94Z"/><path class="cls-1" d="M394.25,10.83a5.38,5.38,0,0,1,2.55,2.83l-2,.81a3.22,3.22,0,0,0-1.54-1.75,6.9,6.9,0,0,0-3.13-.64,5.73,5.73,0,0,0-3.84,1.11,4,4,0,0,0-1.21,3.16v4.58a4,4,0,0,0,1.21,3.16,5.73,5.73,0,0,0,3.84,1.11,7,7,0,0,0,3.13-.64,3.26,3.26,0,0,0,1.54-1.75l2,.81a5.38,5.38,0,0,1-2.55,2.83,8.76,8.76,0,0,1-4.14.9,7.87,7.87,0,0,1-5.25-1.64,6.1,6.1,0,0,1-1.95-4.78V16.35a6.08,6.08,0,0,1,1.95-4.78,7.88,7.88,0,0,1,5.25-1.65A8.76,8.76,0,0,1,394.25,10.83Z"/><path class="cls-1" d="M412.25,11.57a6.08,6.08,0,0,1,1.95,4.78v4.58a6.1,6.1,0,0,1-1.95,4.78A7.81,7.81,0,0,1,407,27.35a7.89,7.89,0,0,1-5.25-1.64,6.1,6.1,0,0,1-1.95-4.78V16.35a6.08,6.08,0,0,1,1.95-4.78A7.89,7.89,0,0,1,407,9.92,7.81,7.81,0,0,1,412.25,11.57Zm-9.05,1.62A4,4,0,0,0,402,16.35v4.58a4,4,0,0,0,1.21,3.16A5.72,5.72,0,0,0,407,25.2a5.63,5.63,0,0,0,3.8-1.11A4,4,0,0,0,412,20.93V16.35a4,4,0,0,0-1.21-3.16,5.63,5.63,0,0,0-3.8-1.11A5.72,5.72,0,0,0,403.2,13.19Z"/><path class="cls-1" d="M442.87,11.57a6.08,6.08,0,0,1,1.95,4.78v11h-2.15v-11a4,4,0,0,0-1.22-3.16,5.63,5.63,0,0,0-3.8-1.11,5.78,5.78,0,0,0-3.83,1.11,4,4,0,0,0-1.22,3.16v11h-2.15v-11a4,4,0,0,0-1.21-3.16,5.63,5.63,0,0,0-3.8-1.11,5.75,5.75,0,0,0-3.84,1.11,4,4,0,0,0-1.21,3.16v11h-2.15V9.92h2.15v1.49a8,8,0,0,1,5.05-1.49,7.76,7.76,0,0,1,5.21,1.65,6.14,6.14,0,0,1,.88,1,8.85,8.85,0,0,1,.87-1,7.89,7.89,0,0,1,5.25-1.65A7.81,7.81,0,0,1,442.87,11.57Z"/><path class="cls-1" d="M66.24,68.53v2.15H59.68v6.56H57.53V70.68H51V68.53h6.56V62h2.15v6.56Z"/><path class="cls-1" d="M83.13,56.45a6.78,6.78,0,0,1,0,9.52,6.44,6.44,0,0,1-.8.57,6.52,6.52,0,0,1,.8.58,6.82,6.82,0,0,1,0,9.55,7.86,7.86,0,0,1-5.25,1.65,7.13,7.13,0,0,1-4.54-1.41,6.71,6.71,0,0,1-2.39-4L73,72.43c.57,2.49,2.19,3.74,4.84,3.74a5.65,5.65,0,0,0,3.81-1.11,4.66,4.66,0,0,0,0-6.33,5.65,5.65,0,0,0-3.81-1.11H76.37V65.47h1.51a5.65,5.65,0,0,0,3.81-1.11,4.07,4.07,0,0,0,1.24-3.17,4,4,0,0,0-1.24-3.12,5.65,5.65,0,0,0-3.81-1.15A4.48,4.48,0,0,0,73,60.69L71,60.22a6.67,6.67,0,0,1,2.39-4,7.13,7.13,0,0,1,4.54-1.41A7.71,7.71,0,0,1,83.13,56.45Z"/><path class="cls-1" d="M95.75,78.32a7.2,7.2,0,0,1-4.57-1.41,6.81,6.81,0,0,1-2.36-4l2.09-.47c.54,2.49,2.18,3.77,4.84,3.77H96a4.78,4.78,0,0,0,3.74-1.45A6.38,6.38,0,0,0,101,70.35V67.49a6.27,6.27,0,0,1-2,1.17,9.68,9.68,0,0,1-6,0,5.73,5.73,0,0,1-3.73-3.73,9.68,9.68,0,0,1,0-6,5.85,5.85,0,0,1,1.41-2.32A6.27,6.27,0,0,1,93,55.24a9.23,9.23,0,0,1,3-.47,8,8,0,0,1,3,.54,5.79,5.79,0,0,1,2.32,1.61,8.49,8.49,0,0,1,1.85,5.79v7.64a8.52,8.52,0,0,1-1.85,5.82A6.33,6.33,0,0,1,99,77.78a8.6,8.6,0,0,1-3,.54Zm4-12.58A5.12,5.12,0,0,0,101,62.3a6.24,6.24,0,0,0-1.31-4A4.76,4.76,0,0,0,96,56.92a5.2,5.2,0,0,0-3.76,1.28A5.06,5.06,0,0,0,90.94,62a4.41,4.41,0,0,0,5,5A5.09,5.09,0,0,0,99.72,65.74Z"/><path class="cls-1" d="M128.79,56.45a6.76,6.76,0,0,1,0,9.52,5.78,5.78,0,0,1-.8.57,5.84,5.84,0,0,1,.8.58,6.8,6.8,0,0,1,0,9.55,7.86,7.86,0,0,1-5.25,1.65A7.13,7.13,0,0,1,119,76.91a6.71,6.71,0,0,1-2.39-4l2.09-.47c.57,2.49,2.19,3.74,4.84,3.74a5.65,5.65,0,0,0,3.81-1.11,4.66,4.66,0,0,0,0-6.33,5.65,5.65,0,0,0-3.81-1.11H122V65.47h1.51a5.65,5.65,0,0,0,3.81-1.11,4.07,4.07,0,0,0,1.24-3.17,4,4,0,0,0-1.24-3.12,5.65,5.65,0,0,0-3.81-1.15,4.48,4.48,0,0,0-4.84,3.77l-2.09-.47a6.67,6.67,0,0,1,2.39-4,7.13,7.13,0,0,1,4.54-1.41A7.71,7.71,0,0,1,128.79,56.45Z"/><path class="cls-1" d="M146.09,71.59V67h2.15V78.32h-2.15V73.74H134.45V71.12l7.43-16.35h2.36L136.6,71.59Z"/><path class="cls-1" d="M164.39,56.42a6.08,6.08,0,0,1,2,4.77,6.17,6.17,0,0,1-2,4.78,5.78,5.78,0,0,1-.8.57,5.84,5.84,0,0,1,.8.58,6.82,6.82,0,0,1,0,9.55,9.16,9.16,0,0,1-10.49,0,6.8,6.8,0,0,1,0-9.55,5.54,5.54,0,0,1,.77-.58,5.48,5.48,0,0,1-.77-.57,6.18,6.18,0,0,1-2-4.78,6.08,6.08,0,0,1,2-4.77,9.16,9.16,0,0,1,10.49,0ZM155.31,58a4.74,4.74,0,0,0,0,6.33,5.72,5.72,0,0,0,3.83,1.11A5.65,5.65,0,0,0,163,64.36,4.66,4.66,0,0,0,163,58a5.65,5.65,0,0,0-3.81-1.11A5.72,5.72,0,0,0,155.31,58Zm0,10.7a4.74,4.74,0,0,0,0,6.33,5.72,5.72,0,0,0,3.83,1.11A5.65,5.65,0,0,0,163,75.06a4.66,4.66,0,0,0,0-6.33,5.65,5.65,0,0,0-3.81-1.11A5.72,5.72,0,0,0,155.31,68.73Z"/><path class="cls-1" d="M182.5,56.42a6.08,6.08,0,0,1,1.95,4.77A6.17,6.17,0,0,1,182.5,66a6.55,6.55,0,0,1-.81.57,6.63,6.63,0,0,1,.81.58,6.82,6.82,0,0,1,0,9.55,9.18,9.18,0,0,1-10.5,0,6.82,6.82,0,0,1,0-9.55,5.54,5.54,0,0,1,.77-.58A5.48,5.48,0,0,1,172,66a6.17,6.17,0,0,1-1.95-4.78A6.08,6.08,0,0,1,172,56.42a9.18,9.18,0,0,1,10.5,0ZM173.41,58a4.74,4.74,0,0,0,0,6.33,5.75,5.75,0,0,0,3.84,1.11,5.63,5.63,0,0,0,3.8-1.11,4.66,4.66,0,0,0,0-6.33,5.63,5.63,0,0,0-3.8-1.11A5.75,5.75,0,0,0,173.41,58Zm0,10.7a4.74,4.74,0,0,0,0,6.33,5.75,5.75,0,0,0,3.84,1.11,5.63,5.63,0,0,0,3.8-1.11,4.66,4.66,0,0,0,0-6.33,5.63,5.63,0,0,0-3.8-1.11A5.75,5.75,0,0,0,173.41,68.73Z"/><path class="cls-1" d="M195.12,78.32a7.21,7.21,0,0,1-4.58-1.41,6.81,6.81,0,0,1-2.36-4l2.09-.47c.54,2.49,2.19,3.77,4.85,3.77h.2a4.77,4.77,0,0,0,3.73-1.45,6.33,6.33,0,0,0,1.31-4.37V67.49a6.27,6.27,0,0,1-2.05,1.17,9.65,9.65,0,0,1-5.95,0,5.77,5.77,0,0,1-3.74-3.73,9.68,9.68,0,0,1,0-6A5.76,5.76,0,0,1,190,56.65a6.19,6.19,0,0,1,2.32-1.41,9.14,9.14,0,0,1,3-.47,8,8,0,0,1,3,.54,5.86,5.86,0,0,1,2.32,1.61,8.54,8.54,0,0,1,1.85,5.79v7.64a8.57,8.57,0,0,1-1.85,5.82,6.42,6.42,0,0,1-2.32,1.61,8.6,8.6,0,0,1-3,.54Zm4-12.58a5.07,5.07,0,0,0,1.28-3.44,6.18,6.18,0,0,0-1.31-4,4.75,4.75,0,0,0-3.73-1.41,5.21,5.21,0,0,0-3.77,1.28A5.11,5.11,0,0,0,190.3,62a4.41,4.41,0,0,0,5,5A5.08,5.08,0,0,0,199.08,65.74Z"/><path class="cls-1" d="M217.86,71.59V67H220V78.32h-2.15V73.74H206.22V71.12l7.43-16.35H216l-7.64,16.82Z"/><path class="cls-1" d="M225.87,56.92v7h4.41A8.51,8.51,0,0,1,236,65.8a5.76,5.76,0,0,1,1.58,2.33,7.63,7.63,0,0,1,.54,3,8.24,8.24,0,0,1-.47,3,5.82,5.82,0,0,1-1.41,2.33,6.27,6.27,0,0,1-2.32,1.41,9.23,9.23,0,0,1-3,.47h-.24a7.2,7.2,0,0,1-4.57-1.41,6.82,6.82,0,0,1-2.36-4l2.09-.47q.85,3.73,4.84,3.74h.24a5.2,5.2,0,0,0,3.76-1.28,5.06,5.06,0,0,0,1.25-3.77,4.71,4.71,0,0,0-1.41-3.7,6.4,6.4,0,0,0-4.38-1.31h-6.42V54.77H237v2.15Z"/><path class="cls-1" d="M243.27,56.92v7h4.4a8.52,8.52,0,0,1,5.69,1.85,6,6,0,0,1,1.58,2.33,7.63,7.63,0,0,1,.54,3,8.46,8.46,0,0,1-.47,3,5.84,5.84,0,0,1-1.42,2.33,6.19,6.19,0,0,1-2.32,1.41,9.14,9.14,0,0,1-3,.47h-.23a7.23,7.23,0,0,1-4.58-1.41,6.87,6.87,0,0,1-2.36-4l2.09-.47q.86,3.73,4.85,3.74h.23a5.21,5.21,0,0,0,3.77-1.28,5.1,5.1,0,0,0,1.24-3.77,4.71,4.71,0,0,0-1.41-3.7,6.36,6.36,0,0,0-4.37-1.31h-6.43V54.77H254.4v2.15Z"/><path class="cls-1" d="M265.47,78.32a7.2,7.2,0,0,1-4.57-1.41,6.81,6.81,0,0,1-2.36-4l2.09-.47c.54,2.49,2.18,3.77,4.84,3.77h.2a4.78,4.78,0,0,0,3.74-1.45,6.38,6.38,0,0,0,1.31-4.37V67.49a6.27,6.27,0,0,1-2.05,1.17,9.68,9.68,0,0,1-6,0A5.73,5.73,0,0,1,259,64.93a9.68,9.68,0,0,1,0-6,5.85,5.85,0,0,1,1.41-2.32,6.27,6.27,0,0,1,2.32-1.41,9.23,9.23,0,0,1,3-.47,7.94,7.94,0,0,1,3,.54A5.79,5.79,0,0,1,271,56.92a8.49,8.49,0,0,1,1.86,5.79v7.64A8.52,8.52,0,0,1,271,76.17a6.33,6.33,0,0,1-2.32,1.61,8.56,8.56,0,0,1-3,.54Zm4-12.58a5.12,5.12,0,0,0,1.28-3.44,6.24,6.24,0,0,0-1.31-4,4.76,4.76,0,0,0-3.74-1.41,5.2,5.2,0,0,0-3.76,1.28A5.06,5.06,0,0,0,260.66,62a4.41,4.41,0,0,0,5,5A5.09,5.09,0,0,0,269.44,65.74Z"/><path class="cls-1" d="M288.08,56.45a6.76,6.76,0,0,1,0,9.52,6.44,6.44,0,0,1-.8.57,6.52,6.52,0,0,1,.8.58,6.8,6.8,0,0,1,0,9.55,7.85,7.85,0,0,1-5.24,1.65,7.14,7.14,0,0,1-4.55-1.41,6.76,6.76,0,0,1-2.39-4l2.09-.47q.86,3.73,4.85,3.74a5.63,5.63,0,0,0,3.8-1.11,4.66,4.66,0,0,0,0-6.33,5.63,5.63,0,0,0-3.8-1.11h-1.52V65.47h1.52a5.63,5.63,0,0,0,3.8-1.11,4,4,0,0,0,1.24-3.17,3.93,3.93,0,0,0-1.24-3.12,5.64,5.64,0,0,0-3.8-1.15A4.48,4.48,0,0,0,278,60.69l-2.09-.47a6.72,6.72,0,0,1,2.39-4,7.14,7.14,0,0,1,4.55-1.41A7.7,7.7,0,0,1,288.08,56.45Z"/><path class="cls-1" d="M72.53,98.83a13.88,13.88,0,0,1,5,2.76,14.28,14.28,0,0,1,4.65,11.14,11.84,11.84,0,0,1-1.75,6.73,6.26,6.26,0,0,1-1.89,1.85,4.67,4.67,0,0,1-2.35.64,4.59,4.59,0,0,1-2.26-.61,5.78,5.78,0,0,1-1.81-1.72,5.61,5.61,0,0,1-.78-1.38,3.66,3.66,0,0,1-.37.47,6.09,6.09,0,0,1-4.78,2,9.07,9.07,0,0,1-3-.44,6.35,6.35,0,0,1-2.32-1.45,6.2,6.2,0,0,1-1.44-2.32,8.88,8.88,0,0,1-.48-3,8.75,8.75,0,0,1,.48-3,6,6,0,0,1,3.76-3.77,9.05,9.05,0,0,1,3-.47,6.35,6.35,0,0,1,4.28,1.45V106.3H72.6v7.2a8.36,8.36,0,0,0,1.25,4.91,3,3,0,0,0,2.32,1.38,3.14,3.14,0,0,0,2.49-1.55A9.74,9.74,0,0,0,80,112.73a14,14,0,0,0-1.07-5.59,10.3,10.3,0,0,0-2.83-3.9,12,12,0,0,0-4.24-2.39,16.72,16.72,0,0,0-5.32-.81,13.1,13.1,0,0,0-5.21,1.08,13.49,13.49,0,0,0-7.17,7.13,14,14,0,0,0-1,5.25,13.72,13.72,0,0,0,1,5.21,13.24,13.24,0,0,0,2.9,4.28,13.06,13.06,0,0,0,4.27,2.89,13.8,13.8,0,0,0,5.21,1,13.39,13.39,0,0,0,6-1.41l.94,1.92a15.07,15.07,0,0,1-7,1.65,15.74,15.74,0,0,1-14.36-9.52,15.86,15.86,0,0,1,0-12.15,16.13,16.13,0,0,1,3.36-5,15.66,15.66,0,0,1,11-4.57A18.76,18.76,0,0,1,72.53,98.83Zm-10.12,10.9a6.19,6.19,0,0,0,0,7.54,5.14,5.14,0,0,0,3.76,1.24,4,4,0,0,0,3.17-1.21,5.63,5.63,0,0,0,1.11-3.8,5.77,5.77,0,0,0-1.11-3.84,4.06,4.06,0,0,0-3.17-1.21A5.15,5.15,0,0,0,62.41,109.73Z"/><path class="cls-1" d="M95.79,107.81V110h-5v8.85A4,4,0,0,0,92,122a5.65,5.65,0,0,0,3.81,1.11v2.15a7.86,7.86,0,0,1-5.25-1.65,6.16,6.16,0,0,1-1.92-4.77V110H85.86v-2.16h2.76v-6.12h2.15v6.12Z"/><path class="cls-1" d="M102,109.29a8,8,0,0,1,5-1.48,7.81,7.81,0,0,1,5.22,1.65,6.08,6.08,0,0,1,2,4.78v11H112v-11a4,4,0,0,0-1.21-3.16A5.66,5.66,0,0,0,107,110a5.72,5.72,0,0,0-3.83,1.11,4,4,0,0,0-1.21,3.16v11H99.82V101.69H102Z"/><path class="cls-1" d="M130.31,109.46a6.08,6.08,0,0,1,1.95,4.78v3.36H120.05v1.22a4,4,0,0,0,1.21,3.16,5.72,5.72,0,0,0,3.83,1.11h.41a7,7,0,0,0,3.13-.64,3.5,3.5,0,0,0,1.58-1.75l2,.81a5.34,5.34,0,0,1-2.56,2.82,8.55,8.55,0,0,1-4.13.91h-.41a7.84,7.84,0,0,1-5.25-1.65,6.11,6.11,0,0,1-2-4.77v-4.58a6.12,6.12,0,0,1,2-4.78,7.89,7.89,0,0,1,5.25-1.65A7.81,7.81,0,0,1,130.31,109.46Zm-9,1.62a4,4,0,0,0-1.21,3.16v1.21h10.06v-1.21a4,4,0,0,0-1.22-3.16,5.62,5.62,0,0,0-3.8-1.11A5.72,5.72,0,0,0,121.26,111.08Z"/><path class="cls-1" d="M134.62,129.08v-2.16h15.27v2.16Z"/><path class="cls-1" d="M166.61,125.24h-2.15v-1.48a8,8,0,0,1-5.05,1.48,7.71,7.71,0,0,1-5.21-1.65,6.08,6.08,0,0,1-1.95-4.77v-4.58a6.08,6.08,0,0,1,1.95-4.78,7.76,7.76,0,0,1,5.21-1.65,8,8,0,0,1,5.05,1.48v-7.6h2.15Zm-11-14.16a4,4,0,0,0-1.21,3.16v4.58a4,4,0,0,0,1.21,3.16,5.63,5.63,0,0,0,3.8,1.11,5.73,5.73,0,0,0,3.84-1.11,4,4,0,0,0,1.21-3.16v-4.58a4,4,0,0,0-1.21-3.16,5.73,5.73,0,0,0-3.84-1.11A5.63,5.63,0,0,0,155.61,111.08Z"/><path class="cls-1" d="M178.53,110a5.73,5.73,0,0,0-3.84,1.11,4,4,0,0,0-1.21,3.16v11h-2.15V107.81h2.15v1.48a8,8,0,0,1,5.05-1.48H180V110Z"/><path class="cls-1" d="M194.81,109.46a6.08,6.08,0,0,1,1.95,4.78v3.36H184.55v1.22a4,4,0,0,0,1.21,3.16,5.73,5.73,0,0,0,3.84,1.11h.4a7,7,0,0,0,3.13-.64,3.5,3.5,0,0,0,1.58-1.75l2,.81a5.42,5.42,0,0,1-2.56,2.82,8.59,8.59,0,0,1-4.14.91h-.4a7.82,7.82,0,0,1-5.25-1.65,6.08,6.08,0,0,1-1.95-4.77v-4.58a6.08,6.08,0,0,1,1.95-4.78,7.88,7.88,0,0,1,5.25-1.65A7.76,7.76,0,0,1,194.81,109.46Zm-9.05,1.62a4,4,0,0,0-1.21,3.16v1.21h10.06v-1.21a4,4,0,0,0-1.21-3.16,5.63,5.63,0,0,0-3.8-1.11A5.73,5.73,0,0,0,185.76,111.08Z"/><path class="cls-1" d="M207,107.81a8,8,0,0,1,5.25,1.65,6.08,6.08,0,0,1,1.95,4.78v11H212v-1.48a8,8,0,0,1-5,1.48h-.77a7.9,7.9,0,0,1-4.58-1.18,4.66,4.66,0,0,1,0-7.43,8,8,0,0,1,4.58-1.18H212v-1.21a4,4,0,0,0-1.25-3.16A5.63,5.63,0,0,0,207,110h0a5.9,5.9,0,0,0-3.63,1A3.64,3.64,0,0,0,202,113.6l-2.12-.23a5.72,5.72,0,0,1,2.18-4.14,8,8,0,0,1,5-1.42Zm-.77,9.79a6,6,0,0,0-3.33.78,2.26,2.26,0,0,0-.94,2,2.29,2.29,0,0,0,.94,2,6,6,0,0,0,3.33.77H207a5.63,5.63,0,0,0,3.8-1.11,4,4,0,0,0,1.25-3.16V117.6Z"/><path class="cls-1" d="M243.53,109.46a6.08,6.08,0,0,1,1.95,4.78v11h-2.15v-11a4,4,0,0,0-1.21-3.16,5.63,5.63,0,0,0-3.8-1.11,5.82,5.82,0,0,0-3.84,1.11,4,4,0,0,0-1.21,3.16v11h-2.15v-11a4,4,0,0,0-1.21-3.16A5.65,5.65,0,0,0,226.1,110a5.72,5.72,0,0,0-3.83,1.11,4,4,0,0,0-1.21,3.16v11H218.9V107.81h2.16v1.48a8,8,0,0,1,5-1.48,7.79,7.79,0,0,1,5.22,1.65,5.62,5.62,0,0,1,.87,1,8,8,0,0,1,.88-1,7.88,7.88,0,0,1,5.25-1.65A7.76,7.76,0,0,1,243.53,109.46Z"/><path class="cls-1" d="M256.79,107.81a8.71,8.71,0,0,1,4.14.91,5.4,5.4,0,0,1,2.56,2.83l-2,.81a3.42,3.42,0,0,0-1.58-1.75,6.9,6.9,0,0,0-3.13-.64h-.4a7.42,7.42,0,0,0-4,.84,2.21,2.21,0,0,0,0,3.8,7.42,7.42,0,0,0,4,.84,9.79,9.79,0,0,1,5.08,1.15,4.42,4.42,0,0,1,0,7.5,9.8,9.8,0,0,1-5.08,1.14H256a8.66,8.66,0,0,1-4.17-.91,5.36,5.36,0,0,1-2.55-2.82l2-.81a3.32,3.32,0,0,0,1.55,1.75,7.21,7.21,0,0,0,3.16.64h.41a7.42,7.42,0,0,0,3.94-.84,2,2,0,0,0,1.07-1.92,2,2,0,0,0-1.07-1.88,7.32,7.32,0,0,0-3.94-.85,10,10,0,0,1-5.12-1.14,4.42,4.42,0,0,1,0-7.5,10,10,0,0,1,5.12-1.15Z"/><path class="cls-1" d="M277.92,108.72a5.4,5.4,0,0,1,2.56,2.83l-2,.81a3.24,3.24,0,0,0-1.55-1.75,6.87,6.87,0,0,0-3.13-.64,5.72,5.72,0,0,0-3.83,1.11,4,4,0,0,0-1.21,3.16v4.58A4,4,0,0,0,270,122a5.72,5.72,0,0,0,3.83,1.11,7,7,0,0,0,3.13-.64,3.28,3.28,0,0,0,1.55-1.75l2,.81a5.42,5.42,0,0,1-2.56,2.82,8.59,8.59,0,0,1-4.14.91,7.79,7.79,0,0,1-5.24-1.65,6.08,6.08,0,0,1-2-4.77v-4.58a6.09,6.09,0,0,1,2-4.78,7.85,7.85,0,0,1,5.24-1.65A8.71,8.71,0,0,1,277.92,108.72Z"/><path class="cls-1" d="M295.92,109.46a6.09,6.09,0,0,1,2,4.78v4.58a6.08,6.08,0,0,1-2,4.77,7.71,7.71,0,0,1-5.21,1.65,7.84,7.84,0,0,1-5.25-1.65,6.08,6.08,0,0,1-1.95-4.77v-4.58a6.08,6.08,0,0,1,1.95-4.78,7.89,7.89,0,0,1,5.25-1.65A7.76,7.76,0,0,1,295.92,109.46Zm-9.05,1.62a4,4,0,0,0-1.21,3.16v4.58a4,4,0,0,0,1.21,3.16,5.75,5.75,0,0,0,3.84,1.11,5.63,5.63,0,0,0,3.8-1.11,4,4,0,0,0,1.21-3.16v-4.58a4,4,0,0,0-1.21-3.16,5.63,5.63,0,0,0-3.8-1.11A5.75,5.75,0,0,0,286.87,111.08Z"/><path class="cls-1" d="M315.27,125.24h-2.15v-1.48a8,8,0,0,1-5.05,1.48,7.71,7.71,0,0,1-5.21-1.65,6.08,6.08,0,0,1-1.95-4.77v-4.58a6.08,6.08,0,0,1,1.95-4.78,7.76,7.76,0,0,1,5.21-1.65,8,8,0,0,1,5.05,1.48v-7.6h2.15Zm-11-14.16a4,4,0,0,0-1.21,3.16v4.58a4,4,0,0,0,1.21,3.16,5.63,5.63,0,0,0,3.8,1.11,5.75,5.75,0,0,0,3.84-1.11,4,4,0,0,0,1.21-3.16v-4.58a4,4,0,0,0-1.21-3.16,5.75,5.75,0,0,0-3.84-1.11A5.63,5.63,0,0,0,304.27,111.08Z"/><path class="cls-1" d="M331.73,109.46a6.12,6.12,0,0,1,1.95,4.78v3.36H321.46v1.22a4,4,0,0,0,1.22,3.16,5.72,5.72,0,0,0,3.83,1.11h.41a7,7,0,0,0,3.12-.64,3.52,3.52,0,0,0,1.59-1.75l2,.81a5.38,5.38,0,0,1-2.56,2.82,8.58,8.58,0,0,1-4.13.91h-.41a7.84,7.84,0,0,1-5.25-1.65,6.08,6.08,0,0,1-1.95-4.77v-4.58a6.08,6.08,0,0,1,1.95-4.78,7.89,7.89,0,0,1,5.25-1.65A7.81,7.81,0,0,1,331.73,109.46Zm-9.05,1.62a4,4,0,0,0-1.22,3.16v1.21h10.06v-1.21a4,4,0,0,0-1.21-3.16,5.63,5.63,0,0,0-3.8-1.11A5.72,5.72,0,0,0,322.68,111.08Z"/></g></g></svg>