<svg xmlns="http://www.w3.org/2000/svg" viewBox="0 0 375.74 52.98"><defs><style>.cls-1{fill:#2d2d2d;}</style></defs><g id="Livello_2" data-name="Livello 2"><g id="Livello_1-2" data-name="Livello 1"><path class="cls-1" d="M6.55,0A7,7,0,0,1,9.3.48,5.25,5.25,0,0,1,11.4,1.9a7.62,7.62,0,0,1,1.7,5.3v5.2a7.67,7.67,0,0,1-1.7,5.3,5.58,5.58,0,0,1-2.1,1.42,7.62,7.62,0,0,1-2.75.48H0V0ZM1.4,18.2H6.55a4.85,4.85,0,0,0,3.81-1.46A6.22,6.22,0,0,0,11.7,12.4V7.2a6.22,6.22,0,0,0-1.34-4.34A4.85,4.85,0,0,0,6.55,1.4H1.4Z"/><path class="cls-1" d="M26.4,6.55a4.5,4.5,0,0,1,1.21,1.68A6.17,6.17,0,0,1,28,10.44V13.1H17.58v1.24a3.54,3.54,0,0,0,1.12,2.85,5,5,0,0,0,3.39,1h.34a5.75,5.75,0,0,0,2.77-.59A3,3,0,0,0,26.63,16l1.31.51a4.34,4.34,0,0,1-2.07,2.29,7,7,0,0,1-3.44.76h-.34a6.34,6.34,0,0,1-4.31-1.34,4.69,4.69,0,0,1-1.2-1.71,6,6,0,0,1-.4-2.21v-3.9a6,6,0,0,1,.4-2.21,4.59,4.59,0,0,1,1.2-1.68,6.34,6.34,0,0,1,4.31-1.37A6.44,6.44,0,0,1,26.4,6.55Zm-7.7,1a3.58,3.58,0,0,0-1.12,2.85V11.7h9V10.44a3.64,3.64,0,0,0-1.12-2.85,5.12,5.12,0,0,0-3.39-1A5.14,5.14,0,0,0,18.7,7.59Z"/><path class="cls-1" d="M36.77,5.18a7.41,7.41,0,0,1,3.44.76,4.45,4.45,0,0,1,2.07,2.29L41,8.76a3,3,0,0,0-1.43-1.59,6,6,0,0,0-2.77-.59h-.34a6.86,6.86,0,0,0-3.5.76,2,2,0,0,0-1,1.82,2,2,0,0,0,1,1.79,6.67,6.67,0,0,0,3.5.75,7.84,7.84,0,0,1,4.23,1,3.36,3.36,0,0,1,1.68,3,3.38,3.38,0,0,1-1.68,3,7.94,7.94,0,0,1-4.23,1h-.37a7.19,7.19,0,0,1-3.44-.76,4.28,4.28,0,0,1-2-2.29L31.86,16a3.12,3.12,0,0,0,1.43,1.57,5.83,5.83,0,0,0,2.77.59h.37a6.69,6.69,0,0,0,3.47-.73,2,2,0,0,0,1-1.82,2,2,0,0,0-1-1.82,6.79,6.79,0,0,0-3.47-.73,8.13,8.13,0,0,1-4.23-.95,3.43,3.43,0,0,1-1.68-3,3.46,3.46,0,0,1,1.68-3,8.23,8.23,0,0,1,4.23-1Z"/><path class="cls-1" d="M47.66,1a1,1,0,0,1-2,0,1,1,0,0,1,2,0ZM46,19.6V5.18h1.4V19.6Z"/><path class="cls-1" d="M62.83,19.54a6.19,6.19,0,0,1-.39,2.22,4.58,4.58,0,0,1-1.2,1.7,6.31,6.31,0,0,1-4.31,1.35h-.34a7,7,0,0,1-3.44-.76,4.31,4.31,0,0,1-2.08-2.29l1.29-.51a3.12,3.12,0,0,0,1.43,1.57,5.87,5.87,0,0,0,2.8.59h.34a5,5,0,0,0,3.38-1,3.53,3.53,0,0,0,1.12-2.86V18.06a.72.72,0,0,1-.19.2,6.36,6.36,0,0,1-4.31,1.34,6.37,6.37,0,0,1-4.32-1.34,4.69,4.69,0,0,1-1.2-1.71A6.17,6.17,0,0,1,51,14.34v-3.9a6.17,6.17,0,0,1,.39-2.21,4.69,4.69,0,0,1,1.2-1.71,6.37,6.37,0,0,1,4.32-1.34,6.36,6.36,0,0,1,4.31,1.34.72.72,0,0,1,.19.2V5.18h1.4ZM53.54,7.59a3.51,3.51,0,0,0-1.12,2.85v3.9a3.51,3.51,0,0,0,1.12,2.85,5,5,0,0,0,3.39,1,5,5,0,0,0,3.38-1,3.51,3.51,0,0,0,1.12-2.85v-3.9a3.51,3.51,0,0,0-1.12-2.85,5,5,0,0,0-3.38-1A5,5,0,0,0,53.54,7.59Z"/><path class="cls-1" d="M77,6.55a4.5,4.5,0,0,1,1.21,1.68,6.17,6.17,0,0,1,.39,2.21V19.6h-1.4V10.44a3.64,3.64,0,0,0-1.12-2.85,6.19,6.19,0,0,0-6.78,0,3.58,3.58,0,0,0-1.12,2.85V19.6h-1.4V5.18h1.4V6.72l.2-.17a6.34,6.34,0,0,1,4.31-1.37A6.44,6.44,0,0,1,77,6.55Z"/><path class="cls-1" d="M91.87,6.55a4.59,4.59,0,0,1,1.2,1.68,6,6,0,0,1,.4,2.21V13.1H83.05v1.24a3.51,3.51,0,0,0,1.12,2.85,5,5,0,0,0,3.39,1h.33a5.79,5.79,0,0,0,2.78-.59A2.94,2.94,0,0,0,92.09,16l1.32.51a4.34,4.34,0,0,1-2.07,2.29,7.07,7.07,0,0,1-3.45.76h-.33a6.32,6.32,0,0,1-4.31-1.34A4.6,4.6,0,0,1,82,16.55a6.17,6.17,0,0,1-.39-2.21v-3.9A6.17,6.17,0,0,1,82,8.23a4.5,4.5,0,0,1,1.21-1.68,6.33,6.33,0,0,1,4.31-1.37A6.45,6.45,0,0,1,91.87,6.55Zm-7.7,1a3.55,3.55,0,0,0-1.12,2.85V11.7h9V10.44A3.68,3.68,0,0,0,91,7.59a6.19,6.19,0,0,0-6.78,0Z"/><path class="cls-1" d="M106.4,19.6V18.06a.72.72,0,0,1-.19.2,6.36,6.36,0,0,1-4.31,1.34,6.45,6.45,0,0,1-4.32-1.34,4.69,4.69,0,0,1-1.2-1.71A6.17,6.17,0,0,1,96,14.34v-3.9a6.17,6.17,0,0,1,.39-2.21,4.59,4.59,0,0,1,1.2-1.68,6.46,6.46,0,0,1,4.32-1.37,6.36,6.36,0,0,1,4.31,1.37,1.08,1.08,0,0,1,.19.17V0h1.4V19.6Zm-7.89-12a3.64,3.64,0,0,0-1.12,2.85v3.9a3.6,3.6,0,0,0,1.12,2.85,6.18,6.18,0,0,0,6.77,0,3.51,3.51,0,0,0,1.12-2.85v-3.9a3.55,3.55,0,0,0-1.12-2.85,6.18,6.18,0,0,0-6.77,0Z"/><path class="cls-1" d="M120.4,6.72l.2-.17a6.34,6.34,0,0,1,4.31-1.37,6.44,6.44,0,0,1,4.31,1.37,4.5,4.5,0,0,1,1.21,1.68,6.17,6.17,0,0,1,.39,2.21v3.9a6.17,6.17,0,0,1-.39,2.21,4.6,4.6,0,0,1-1.21,1.71,6.43,6.43,0,0,1-4.31,1.34,6.34,6.34,0,0,1-4.31-1.34,1,1,0,0,1-.2-.2V19.6H119V0h1.4Zm1.12.87a3.58,3.58,0,0,0-1.12,2.85v3.9a3.54,3.54,0,0,0,1.12,2.85,6.19,6.19,0,0,0,6.78,0,3.6,3.6,0,0,0,1.12-2.85v-3.9a3.64,3.64,0,0,0-1.12-2.85,6.19,6.19,0,0,0-6.78,0Z"/><path class="cls-1" d="M145.72,19.54a6,6,0,0,1-.4,2.22,4.58,4.58,0,0,1-1.2,1.7,6.29,6.29,0,0,1-4.31,1.35h-.34a7,7,0,0,1-3.44-.76A4.25,4.25,0,0,1,134,21.76l1.28-.51a3.12,3.12,0,0,0,1.43,1.57,5.87,5.87,0,0,0,2.8.59h.34a5,5,0,0,0,3.39-1,3.56,3.56,0,0,0,1.12-2.86V18.06a1,1,0,0,1-.2.2,7.6,7.6,0,0,1-8.62,0,4.6,4.6,0,0,1-1.21-1.71,6.17,6.17,0,0,1-.39-2.21V5.18h1.4v9.16a3.51,3.51,0,0,0,1.12,2.85,6.19,6.19,0,0,0,6.78,0,3.54,3.54,0,0,0,1.12-2.85V5.18h1.4Z"/><path class="cls-1" d="M168.68,18.2v1.4H156.92V0h1.4V18.2Z"/><path class="cls-1" d="M180.86,6.55a4.59,4.59,0,0,1,1.2,1.68,6.17,6.17,0,0,1,.39,2.21v3.9a6.17,6.17,0,0,1-.39,2.21,4.69,4.69,0,0,1-1.2,1.71,6.47,6.47,0,0,1-4.32,1.34,6.36,6.36,0,0,1-4.31-1.34,4.69,4.69,0,0,1-1.2-1.71,6.17,6.17,0,0,1-.39-2.21v-3.9A6.17,6.17,0,0,1,171,8.23a4.59,4.59,0,0,1,1.2-1.68,6.36,6.36,0,0,1,4.31-1.37A6.48,6.48,0,0,1,180.86,6.55Zm-7.7,1A3.55,3.55,0,0,0,172,10.44v3.9a3.51,3.51,0,0,0,1.12,2.85,6.18,6.18,0,0,0,6.77,0,3.6,3.6,0,0,0,1.12-2.85v-3.9a3.64,3.64,0,0,0-1.12-2.85,6.18,6.18,0,0,0-6.77,0Z"/><path class="cls-1" d="M191.72,6.58a5.14,5.14,0,0,0-3.39,1,3.58,3.58,0,0,0-1.12,2.85V19.6h-1.4V5.18h1.4V6.72a1.18,1.18,0,0,1,.2-.17,6.34,6.34,0,0,1,4.31-1.37H193v1.4Z"/><path class="cls-1" d="M205.19,6.55a4.59,4.59,0,0,1,1.2,1.68,6.17,6.17,0,0,1,.39,2.21V13.1H196.37v1.24a3.51,3.51,0,0,0,1.12,2.85,5,5,0,0,0,3.39,1h.33a5.75,5.75,0,0,0,2.77-.59A2.92,2.92,0,0,0,205.41,16l1.32.51a4.34,4.34,0,0,1-2.07,2.29,7.1,7.1,0,0,1-3.45.76h-.33a6.37,6.37,0,0,1-4.32-1.34,4.69,4.69,0,0,1-1.2-1.71,6.17,6.17,0,0,1-.39-2.21v-3.9a6.17,6.17,0,0,1,.39-2.21,4.59,4.59,0,0,1,1.2-1.68,6.37,6.37,0,0,1,4.32-1.37A6.45,6.45,0,0,1,205.19,6.55Zm-7.7,1a3.55,3.55,0,0,0-1.12,2.85V11.7h9V10.44a3.64,3.64,0,0,0-1.12-2.85,6.18,6.18,0,0,0-6.77,0Z"/><path class="cls-1" d="M220.36,6.55a4.5,4.5,0,0,1,1.21,1.68,6.17,6.17,0,0,1,.39,2.21V19.6h-1.4V10.44a3.64,3.64,0,0,0-1.12-2.85,6.18,6.18,0,0,0-6.77,0,3.55,3.55,0,0,0-1.12,2.85V19.6h-1.4V5.18h1.4V6.72a1.08,1.08,0,0,1,.19-.17,6.34,6.34,0,0,1,4.31-1.37A6.44,6.44,0,0,1,220.36,6.55Z"/><path class="cls-1" d="M226.61,18.2h10.14v1.4H225V17.86L235.18,6.58H225V5.18h11.71V6.94Z"/><path class="cls-1" d="M249.49,6.55a4.59,4.59,0,0,1,1.2,1.68,6.17,6.17,0,0,1,.39,2.21v3.9a6.17,6.17,0,0,1-.39,2.21,4.69,4.69,0,0,1-1.2,1.71,6.47,6.47,0,0,1-4.32,1.34,6.36,6.36,0,0,1-4.31-1.34,4.69,4.69,0,0,1-1.2-1.71,6.17,6.17,0,0,1-.39-2.21v-3.9a6.17,6.17,0,0,1,.39-2.21,4.59,4.59,0,0,1,1.2-1.68,6.36,6.36,0,0,1,4.31-1.37A6.48,6.48,0,0,1,249.49,6.55Zm-7.7,1a3.55,3.55,0,0,0-1.12,2.85v3.9a3.51,3.51,0,0,0,1.12,2.85,6.18,6.18,0,0,0,6.77,0,3.6,3.6,0,0,0,1.12-2.85v-3.9a3.64,3.64,0,0,0-1.12-2.85,6.18,6.18,0,0,0-6.77,0Z"/><path class="cls-1" d="M269.17,0c3.16,0,5.38,1.57,6.19,4.4L274,4.79a4.44,4.44,0,0,0-1.69-2.52,5.25,5.25,0,0,0-3.16-.87h-.34c-4.25,0-5.15,2.1-5.15,3.84s.9,3.86,5.15,3.86a7.6,7.6,0,0,1,4.76,1.32,4.75,4.75,0,0,1,1.8,3.92,4.76,4.76,0,0,1-1.8,3.94,7.6,7.6,0,0,1-4.76,1.32h-.33c-3.17,0-5.38-1.57-6.19-4.4l1.34-.39a4.58,4.58,0,0,0,1.68,2.52,5.3,5.3,0,0,0,3.17.87h.33c4.26,0,5.16-2.1,5.16-3.86s-.9-3.84-5.16-3.84a7.57,7.57,0,0,1-4.76-1.34,4.75,4.75,0,0,1-1.79-3.92,4.77,4.77,0,0,1,1.79-3.92A7.69,7.69,0,0,1,268.83,0Z"/><path class="cls-1" d="M283.81,5.18a6.43,6.43,0,0,1,4.32,1.37,4.59,4.59,0,0,1,1.2,1.68,6.17,6.17,0,0,1,.39,2.21V19.6h-1.4V18.06a1.84,1.84,0,0,1-.19.2,6.42,6.42,0,0,1-4.32,1.34h-.64a6.48,6.48,0,0,1-3.78-1,3.43,3.43,0,0,1-1.48-3,3.44,3.44,0,0,1,1.48-3,6.27,6.27,0,0,1,3.78-1h5.15V10.44a3.64,3.64,0,0,0-1.12-2.85,5.1,5.1,0,0,0-3.39-1h0a5.34,5.34,0,0,0-3.22.87,3.33,3.33,0,0,0-1.26,2.41l-1.4-.14a4.64,4.64,0,0,1,1.82-3.36,6.43,6.43,0,0,1,4.06-1.18Zm-.64,7.92a5.42,5.42,0,0,0-3,.7,2.13,2.13,0,0,0-.89,1.85,2.17,2.17,0,0,0,.89,1.85,5.33,5.33,0,0,0,3,.7h.64a5,5,0,0,0,3.39-1,3.6,3.6,0,0,0,1.12-2.85V13.1Z"/><path class="cls-1" d="M302.15,5.94a4.37,4.37,0,0,1,2.05,2.29l-1.29.53a3,3,0,0,0-1.43-1.59,6.08,6.08,0,0,0-2.77-.59,5.14,5.14,0,0,0-3.39,1,3.58,3.58,0,0,0-1.12,2.85v3.9a3.54,3.54,0,0,0,1.12,2.85,5,5,0,0,0,3.39,1,5.83,5.83,0,0,0,2.77-.59A3.08,3.08,0,0,0,302.91,16l1.29.51a4.26,4.26,0,0,1-2.05,2.29,7.11,7.11,0,0,1-3.44.76,6.34,6.34,0,0,1-4.31-1.34,4.72,4.72,0,0,1-1.21-1.71,6.17,6.17,0,0,1-.39-2.21v-3.9a6.17,6.17,0,0,1,.39-2.21,4.61,4.61,0,0,1,1.21-1.68,6.34,6.34,0,0,1,4.31-1.37A7.47,7.47,0,0,1,302.15,5.94Z"/><path class="cls-1" d="M316.07,5.94a4.39,4.39,0,0,1,2,2.29l-1.28.53a3,3,0,0,0-1.43-1.59,6.08,6.08,0,0,0-2.77-.59,5.1,5.1,0,0,0-3.39,1,3.55,3.55,0,0,0-1.12,2.85v3.9a3.51,3.51,0,0,0,1.12,2.85,5,5,0,0,0,3.39,1,5.83,5.83,0,0,0,2.77-.59A3.08,3.08,0,0,0,316.83,16l1.28.51a4.28,4.28,0,0,1-2,2.29,7.11,7.11,0,0,1-3.44.76,6.37,6.37,0,0,1-4.32-1.34,4.69,4.69,0,0,1-1.2-1.71,6.17,6.17,0,0,1-.39-2.21v-3.9a6.17,6.17,0,0,1,.39-2.21,4.59,4.59,0,0,1,1.2-1.68,6.37,6.37,0,0,1,4.32-1.37A7.47,7.47,0,0,1,316.07,5.94Z"/><path class="cls-1" d="M330.85,6.55a4.5,4.5,0,0,1,1.21,1.68,6.17,6.17,0,0,1,.39,2.21v3.9a6.17,6.17,0,0,1-.39,2.21,4.6,4.6,0,0,1-1.21,1.71,6.43,6.43,0,0,1-4.31,1.34,6.34,6.34,0,0,1-4.31-1.34,4.69,4.69,0,0,1-1.2-1.71,6,6,0,0,1-.39-2.21v-3.9A6,6,0,0,1,321,8.23a4.59,4.59,0,0,1,1.2-1.68,6.34,6.34,0,0,1,4.31-1.37A6.44,6.44,0,0,1,330.85,6.55Zm-7.69,1A3.55,3.55,0,0,0,322,10.44v3.9a3.51,3.51,0,0,0,1.12,2.85,6.18,6.18,0,0,0,6.77,0,3.6,3.6,0,0,0,1.12-2.85v-3.9a3.64,3.64,0,0,0-1.12-2.85,6.18,6.18,0,0,0-6.77,0Z"/><path class="cls-1" d="M6.55,28.17a7.21,7.21,0,0,1,2.75.48,5.28,5.28,0,0,1,2.1,1.43,7.6,7.6,0,0,1,1.7,5.29v5.21a7.65,7.65,0,0,1-1.7,5.29A5.6,5.6,0,0,1,9.3,47.3a7.62,7.62,0,0,1-2.75.47H0V28.17ZM1.4,46.37H6.55a4.85,4.85,0,0,0,3.81-1.45,6.23,6.23,0,0,0,1.34-4.34V35.37A6.23,6.23,0,0,0,10.36,31a4.85,4.85,0,0,0-3.81-1.45H1.4Z"/><path class="cls-1" d="M26.4,34.73a4.34,4.34,0,0,1,1.21,1.68A6.13,6.13,0,0,1,28,38.62v2.66H17.58v1.23a3.57,3.57,0,0,0,1.12,2.86,5,5,0,0,0,3.39,1h.34a5.75,5.75,0,0,0,2.77-.58,3,3,0,0,0,1.43-1.57l1.31.5A4.39,4.39,0,0,1,25.87,47a7.15,7.15,0,0,1-3.44.75h-.34a6.29,6.29,0,0,1-4.31-1.34,4.61,4.61,0,0,1-1.2-1.71,5.92,5.92,0,0,1-.4-2.21V38.62a5.92,5.92,0,0,1,.4-2.21,4.43,4.43,0,0,1,1.2-1.68,6.3,6.3,0,0,1,4.31-1.38A6.39,6.39,0,0,1,26.4,34.73Zm-7.7,1a3.61,3.61,0,0,0-1.12,2.86v1.26h9V38.62a3.68,3.68,0,0,0-1.12-2.86,5.17,5.17,0,0,0-3.39-1A5.19,5.19,0,0,0,18.7,35.76Z"/><path class="cls-1" d="M35.17,47.77,29.4,33.35h1.51l4.73,11.82,4.74-11.82h1.51L36.12,47.77Z"/><path class="cls-1" d="M53.51,34.73a4.43,4.43,0,0,1,1.2,1.68,6.13,6.13,0,0,1,.39,2.21v2.66H44.69v1.23a3.54,3.54,0,0,0,1.12,2.86,5,5,0,0,0,3.39,1h.33a5.75,5.75,0,0,0,2.77-.58,3,3,0,0,0,1.43-1.57l1.32.5A4.39,4.39,0,0,1,53,47a7.21,7.21,0,0,1-3.45.75H49.2a6.31,6.31,0,0,1-4.32-1.34,4.61,4.61,0,0,1-1.2-1.71,6.13,6.13,0,0,1-.39-2.21V38.62a6.13,6.13,0,0,1,.39-2.21,4.43,4.43,0,0,1,1.2-1.68,6.33,6.33,0,0,1,4.32-1.38A6.4,6.4,0,0,1,53.51,34.73Zm-7.7,1a3.58,3.58,0,0,0-1.12,2.86v1.26h9V38.62a3.68,3.68,0,0,0-1.12-2.86,5.14,5.14,0,0,0-3.38-1A5.15,5.15,0,0,0,45.81,35.76Z"/><path class="cls-1" d="M59.58,42.51a5.42,5.42,0,0,0,.7,3,2.12,2.12,0,0,0,1.85.89v1.4a3.41,3.41,0,0,1-3-1.48,6.32,6.32,0,0,1-1-3.78V28.17h1.4Z"/><path class="cls-1" d="M74.31,34.73a4.45,4.45,0,0,1,1.21,1.68,6.13,6.13,0,0,1,.39,2.21v3.89a6.13,6.13,0,0,1-.39,2.21,4.64,4.64,0,0,1-1.21,1.71A6.37,6.37,0,0,1,70,47.77a6.29,6.29,0,0,1-4.31-1.34,4.64,4.64,0,0,1-1.21-1.71,6.13,6.13,0,0,1-.39-2.21V38.62a6.13,6.13,0,0,1,.39-2.21,4.45,4.45,0,0,1,1.21-1.68A6.3,6.3,0,0,1,70,33.35,6.39,6.39,0,0,1,74.31,34.73Zm-7.7,1a3.61,3.61,0,0,0-1.12,2.86v3.89a3.57,3.57,0,0,0,1.12,2.86,5,5,0,0,0,3.39,1,5,5,0,0,0,3.39-1,3.64,3.64,0,0,0,1.12-2.86V38.62a3.68,3.68,0,0,0-1.12-2.86,6.19,6.19,0,0,0-6.78,0Z"/><path class="cls-1" d="M89.49,34.7a4.61,4.61,0,0,1,1.2,1.71,5.92,5.92,0,0,1,.4,2.21v3.89a5.92,5.92,0,0,1-.4,2.21,4.61,4.61,0,0,1-1.2,1.71,7.6,7.6,0,0,1-8.62,0,.73.73,0,0,1-.2-.19V53h-1.4V33.35h1.4V34.9a.55.55,0,0,1,.2-.2,7.56,7.56,0,0,1,8.62,0Zm-7.7,1.06a3.54,3.54,0,0,0-1.12,2.86v3.89a3.54,3.54,0,0,0,1.12,2.86,6.25,6.25,0,0,0,6.78,0,3.57,3.57,0,0,0,1.12-2.86V38.62a3.57,3.57,0,0,0-1.12-2.86,6.19,6.19,0,0,0-6.78,0Z"/><path class="cls-1" d="M103.83,34.73a4.43,4.43,0,0,1,1.2,1.68,6.13,6.13,0,0,1,.39,2.21v2.66H95v1.23a3.54,3.54,0,0,0,1.12,2.86,5,5,0,0,0,3.38,1h.34a5.75,5.75,0,0,0,2.77-.58,3,3,0,0,0,1.43-1.57l1.32.5a4.41,4.41,0,0,1-2.08,2.3,7.15,7.15,0,0,1-3.44.75h-.34a6.3,6.3,0,0,1-4.31-1.34A4.61,4.61,0,0,1,94,44.72a6.13,6.13,0,0,1-.39-2.21V38.62A6.13,6.13,0,0,1,94,36.41a4.43,4.43,0,0,1,1.2-1.68,6.32,6.32,0,0,1,4.31-1.38A6.43,6.43,0,0,1,103.83,34.73Zm-7.7,1A3.58,3.58,0,0,0,95,38.62v1.26h9V38.62a3.68,3.68,0,0,0-1.12-2.86,6.18,6.18,0,0,0-6.77,0Z"/><path class="cls-1" d="M118.36,47.77V46.24a.73.73,0,0,1-.2.19,6.27,6.27,0,0,1-4.31,1.34,6.39,6.39,0,0,1-4.31-1.34,4.75,4.75,0,0,1-1.21-1.71,6.13,6.13,0,0,1-.39-2.21V38.62a6.13,6.13,0,0,1,.39-2.21,4.56,4.56,0,0,1,1.21-1.68,6.4,6.4,0,0,1,4.31-1.38,6.28,6.28,0,0,1,4.31,1.38.85.85,0,0,1,.2.17V28.17h1.4v19.6Zm-7.9-12a3.72,3.72,0,0,0-1.12,2.86v3.89a3.67,3.67,0,0,0,1.12,2.86,6.25,6.25,0,0,0,6.78,0,3.54,3.54,0,0,0,1.12-2.86V38.62a3.58,3.58,0,0,0-1.12-2.86,6.19,6.19,0,0,0-6.78,0Z"/><path class="cls-1" d="M132.36,34.9a.85.85,0,0,1,.2-.17,6.28,6.28,0,0,1,4.31-1.38,6.4,6.4,0,0,1,4.31,1.38,4.43,4.43,0,0,1,1.2,1.68,5.92,5.92,0,0,1,.4,2.21v3.89a5.92,5.92,0,0,1-.4,2.21,4.61,4.61,0,0,1-1.2,1.71,6.39,6.39,0,0,1-4.31,1.34,6.27,6.27,0,0,1-4.31-1.34.73.73,0,0,1-.2-.19v1.53H131V28.17h1.4Zm1.12.86a3.58,3.58,0,0,0-1.12,2.86v3.89a3.54,3.54,0,0,0,1.12,2.86,6.25,6.25,0,0,0,6.78,0,3.67,3.67,0,0,0,1.12-2.86V38.62a3.72,3.72,0,0,0-1.12-2.86,6.19,6.19,0,0,0-6.78,0Z"/><path class="cls-1" d="M157.67,47.72a6.13,6.13,0,0,1-.39,2.21,4.69,4.69,0,0,1-1.2,1.71A6.37,6.37,0,0,1,151.76,53h-.33a7.21,7.21,0,0,1-3.45-.75,4.27,4.27,0,0,1-2.07-2.3l1.29-.5A3.16,3.16,0,0,0,148.63,51a5.88,5.88,0,0,0,2.8.58h.33a5,5,0,0,0,3.39-1,3.54,3.54,0,0,0,1.12-2.86V46.24a.69.69,0,0,1-.19.19,7.62,7.62,0,0,1-8.63,0,4.61,4.61,0,0,1-1.2-1.71,6.13,6.13,0,0,1-.39-2.21V33.35h1.4v9.16a3.54,3.54,0,0,0,1.12,2.86,6.23,6.23,0,0,0,6.77,0,3.54,3.54,0,0,0,1.12-2.86V33.35h1.4Z"/><path class="cls-1" d="M175.76,28.17c3.16,0,5.38,1.57,6.19,4.4L180.6,33a4.38,4.38,0,0,0-1.68-2.52,5.25,5.25,0,0,0-3.16-.86h-.34c-4.25,0-5.15,2.09-5.15,3.83s.9,3.86,5.15,3.86a7.62,7.62,0,0,1,4.76,1.32,5.2,5.2,0,0,1,0,7.87,7.62,7.62,0,0,1-4.76,1.31h-.33c-3.17,0-5.38-1.56-6.19-4.39l1.34-.39a4.58,4.58,0,0,0,1.68,2.52,5.37,5.37,0,0,0,3.17.86h.33c4.26,0,5.16-2.1,5.16-3.86s-.9-3.84-5.16-3.84a7.51,7.51,0,0,1-4.76-1.34,4.75,4.75,0,0,1-1.79-3.92,4.79,4.79,0,0,1,1.79-3.92,7.69,7.69,0,0,1,4.76-1.32Z"/><path class="cls-1" d="M187.3,29.16a1,1,0,1,1-1-1A1,1,0,0,1,187.3,29.16Zm-1.71,18.61V33.35H187V47.77Z"/><path class="cls-1" d="M211.85,34.73A4.28,4.28,0,0,1,213,36.41a6.13,6.13,0,0,1,.39,2.21v9.15H212V38.62a3.67,3.67,0,0,0-1.09-2.86,5.28,5.28,0,0,0-3.42-1,5.19,5.19,0,0,0-3.39,1A3.7,3.7,0,0,0,203,38.62v9.15h-1.4V38.62a3.68,3.68,0,0,0-1.12-2.86,6.18,6.18,0,0,0-6.77,0,3.58,3.58,0,0,0-1.12,2.86v9.15h-1.4V33.35h1.4V34.9a.79.79,0,0,1,.19-.17,6.32,6.32,0,0,1,4.31-1.38,6.43,6.43,0,0,1,4.32,1.38,4.52,4.52,0,0,1,.89,1.06,4.44,4.44,0,0,1,.87-1.06,7.47,7.47,0,0,1,8.65,0Z"/><path class="cls-1" d="M226.72,34.73a4.43,4.43,0,0,1,1.2,1.68,5.92,5.92,0,0,1,.4,2.21v3.89a5.92,5.92,0,0,1-.4,2.21,4.61,4.61,0,0,1-1.2,1.71,6.39,6.39,0,0,1-4.31,1.34,6.27,6.27,0,0,1-4.31-1.34,4.52,4.52,0,0,1-1.21-1.71,6.13,6.13,0,0,1-.39-2.21V38.62a6.13,6.13,0,0,1,.39-2.21,4.34,4.34,0,0,1,1.21-1.68,6.28,6.28,0,0,1,4.31-1.38A6.4,6.4,0,0,1,226.72,34.73Zm-7.7,1a3.58,3.58,0,0,0-1.12,2.86v3.89A3.54,3.54,0,0,0,219,45.37a6.25,6.25,0,0,0,6.78,0,3.67,3.67,0,0,0,1.12-2.86V38.62a3.72,3.72,0,0,0-1.12-2.86,6.19,6.19,0,0,0-6.78,0Z"/><path class="cls-1" d="M241.9,34.73a4.43,4.43,0,0,1,1.2,1.68,6.13,6.13,0,0,1,.39,2.21v9.15h-1.4V38.62A3.68,3.68,0,0,0,241,35.76a6.18,6.18,0,0,0-6.77,0,3.58,3.58,0,0,0-1.12,2.86v9.15h-1.4V33.35h1.4V34.9a.79.79,0,0,1,.19-.17,6.32,6.32,0,0,1,4.31-1.38A6.43,6.43,0,0,1,241.9,34.73Z"/><path class="cls-1" d="M256.79,34.73A4.34,4.34,0,0,1,258,36.41a6.13,6.13,0,0,1,.39,2.21v2.66H248v1.23a3.57,3.57,0,0,0,1.12,2.86,5,5,0,0,0,3.39,1h.34a5.75,5.75,0,0,0,2.77-.58A3,3,0,0,0,257,44.22l1.31.5a4.39,4.39,0,0,1-2.07,2.3,7.15,7.15,0,0,1-3.44.75h-.34a6.29,6.29,0,0,1-4.31-1.34A4.75,4.75,0,0,1,247,44.72a6.13,6.13,0,0,1-.39-2.21V38.62a6.13,6.13,0,0,1,.39-2.21,4.56,4.56,0,0,1,1.21-1.68,6.3,6.3,0,0,1,4.31-1.38A6.39,6.39,0,0,1,256.79,34.73Zm-7.7,1A3.61,3.61,0,0,0,248,38.62v1.26h9V38.62a3.68,3.68,0,0,0-1.12-2.86,6.19,6.19,0,0,0-6.78,0Z"/><path class="cls-1" d="M276.79,28.17a6.31,6.31,0,0,1,4.31,1.35,4.59,4.59,0,0,1,1.2,1.68,6.25,6.25,0,0,1,.39,2.21,6.13,6.13,0,0,1-.39,2.21,4.61,4.61,0,0,1-1.2,1.71,5.12,5.12,0,0,1-1,.65,3.69,3.69,0,0,1,1,.64,4.61,4.61,0,0,1,1.2,1.71,6,6,0,0,1,.39,2.18,6.13,6.13,0,0,1-.39,2.21,4.61,4.61,0,0,1-1.2,1.71,6.3,6.3,0,0,1-4.31,1.34h-7.2V28.17Zm-5.8,9.1h5.8a5,5,0,0,0,3.38-1,3.54,3.54,0,0,0,1.12-2.86,3.52,3.52,0,0,0-1.12-2.83,5,5,0,0,0-3.38-1H271Zm0,9.1h5.8a5,5,0,0,0,3.38-1,3.54,3.54,0,0,0,1.12-2.86,3.52,3.52,0,0,0-1.12-2.83,5,5,0,0,0-3.38-1H271Z"/><path class="cls-1" d="M291.68,33.35A6.33,6.33,0,0,1,296,34.73a4.34,4.34,0,0,1,1.21,1.68,6.13,6.13,0,0,1,.39,2.21v9.15h-1.4V46.24a1.75,1.75,0,0,1-.2.19,6.32,6.32,0,0,1-4.31,1.34H291a6.39,6.39,0,0,1-3.78-1,3.7,3.7,0,0,1,0-5.93,6.25,6.25,0,0,1,3.78-1h5.15V38.62a3.68,3.68,0,0,0-1.12-2.86,5.17,5.17,0,0,0-3.39-1h0a5.38,5.38,0,0,0-3.22.87A3.43,3.43,0,0,0,287.17,38l-1.4-.14a4.72,4.72,0,0,1,1.82-3.36,6.51,6.51,0,0,1,4.06-1.18ZM291,41.28a5.31,5.31,0,0,0-3,.7,2.34,2.34,0,0,0,0,3.69,5.31,5.31,0,0,0,3,.7h.64a5,5,0,0,0,3.39-1,3.64,3.64,0,0,0,1.12-2.86V41.28Z"/><path class="cls-1" d="M308.57,33.35v1.4h-4.51v7.76a3.54,3.54,0,0,0,1.12,2.86,5,5,0,0,0,3.39,1v1.4a6.31,6.31,0,0,1-4.32-1.34,4.61,4.61,0,0,1-1.2-1.71,6.13,6.13,0,0,1-.39-2.21V34.75h-2.55v-1.4h2.55V28.17h1.4v5.18Z"/><path class="cls-1" d="M318.42,33.35v1.4h-4.51v7.76A3.57,3.57,0,0,0,315,45.37a5,5,0,0,0,3.39,1v1.4a6.29,6.29,0,0,1-4.31-1.34,4.61,4.61,0,0,1-1.2-1.71,5.92,5.92,0,0,1-.4-2.21V34.75H310v-1.4h2.54V28.17h1.4v5.18Z"/><path class="cls-1" d="M326.85,33.35a6.33,6.33,0,0,1,4.31,1.38,4.45,4.45,0,0,1,1.21,1.68,6.13,6.13,0,0,1,.39,2.21v9.15h-1.4V46.24a1.75,1.75,0,0,1-.2.19,6.32,6.32,0,0,1-4.31,1.34h-.64a6.39,6.39,0,0,1-3.78-1,3.7,3.7,0,0,1,0-5.93,6.25,6.25,0,0,1,3.78-1h5.15V38.62a3.68,3.68,0,0,0-1.12-2.86,5.19,5.19,0,0,0-3.39-1h0a5.38,5.38,0,0,0-3.22.87A3.35,3.35,0,0,0,322.34,38l-1.4-.14a4.72,4.72,0,0,1,1.82-3.36,6.51,6.51,0,0,1,4.06-1.18Zm-.64,7.93a5.31,5.31,0,0,0-3,.7,2.34,2.34,0,0,0,0,3.69,5.31,5.31,0,0,0,3,.7h.64a5,5,0,0,0,3.39-1,3.64,3.64,0,0,0,1.12-2.86V41.28Z"/><path class="cls-1" d="M347.66,47.72a6.13,6.13,0,0,1-.4,2.21,4.69,4.69,0,0,1-1.2,1.71A6.36,6.36,0,0,1,341.75,53h-.34a7.15,7.15,0,0,1-3.44-.75,4.33,4.33,0,0,1-2.08-2.3l1.29-.5A3.16,3.16,0,0,0,338.61,51a5.88,5.88,0,0,0,2.8.58h.34a5,5,0,0,0,3.38-1,3.54,3.54,0,0,0,1.12-2.86V46.24a.69.69,0,0,1-.19.19,7.62,7.62,0,0,1-8.63,0,4.61,4.61,0,0,1-1.2-1.71,6.13,6.13,0,0,1-.39-2.21V38.62a6.13,6.13,0,0,1,.39-2.21,4.61,4.61,0,0,1,1.2-1.71,7.57,7.57,0,0,1,8.63,0,.52.52,0,0,1,.19.2V33.35h1.41Zm-9.3-12a3.54,3.54,0,0,0-1.12,2.86v3.89a3.54,3.54,0,0,0,1.12,2.86,6.23,6.23,0,0,0,6.77,0,3.54,3.54,0,0,0,1.12-2.86V38.62a3.54,3.54,0,0,0-1.12-2.86,6.18,6.18,0,0,0-6.77,0Z"/><path class="cls-1" d="M353,42.51a5.43,5.43,0,0,0,.69,3,2.12,2.12,0,0,0,1.85.89v1.4a3.41,3.41,0,0,1-3-1.48,6.32,6.32,0,0,1-1-3.78V28.17H353Z"/><path class="cls-1" d="M360.56,29.16a1,1,0,1,1-1-1A1,1,0,0,1,360.56,29.16Zm-1.7,18.61V33.35h1.4V47.77Z"/><path class="cls-1" d="M369.83,33.35a6.33,6.33,0,0,1,4.31,1.38,4.34,4.34,0,0,1,1.21,1.68,6.13,6.13,0,0,1,.39,2.21v9.15h-1.4V46.24a1.75,1.75,0,0,1-.2.19,6.32,6.32,0,0,1-4.31,1.34h-.64a6.39,6.39,0,0,1-3.78-1,3.7,3.7,0,0,1,0-5.93,6.25,6.25,0,0,1,3.78-1h5.15V38.62a3.68,3.68,0,0,0-1.12-2.86,5.17,5.17,0,0,0-3.39-1h0a5.38,5.38,0,0,0-3.22.87A3.43,3.43,0,0,0,365.32,38l-1.4-.14a4.72,4.72,0,0,1,1.82-3.36,6.51,6.51,0,0,1,4.06-1.18Zm-.64,7.93a5.31,5.31,0,0,0-3,.7,2.34,2.34,0,0,0,0,3.69,5.31,5.31,0,0,0,3,.7h.64a5,5,0,0,0,3.39-1,3.64,3.64,0,0,0,1.12-2.86V41.28Z"/></g></g></svg>