<svg xmlns="http://www.w3.org/2000/svg" viewBox="0 0 1479.91 314.65"><defs><style>.cls-1{fill:#2d2d2d;}</style></defs><g id="Livello_2" data-name="Livello 2"><g id="Livello_1-2" data-name="Livello 1"><path class="cls-1" d="M13.91,42,.42,0h5L15.64,31.71,25.83,0h5L17.38,42Z"/><path class="cls-1" d="M42.26,3a3,3,0,0,1-3,3,3,3,0,0,1-3-3,3,3,0,0,1,3-3A3,3,0,0,1,42.26,3Zm-5.4,39V10.61h4.8V42Z"/><path class="cls-1" d="M63.18,10.61a15.22,15.22,0,0,1,7.49,1.68,9.69,9.69,0,0,1,4.61,5.15l-4.43,1.8a5,5,0,0,0-2.46-2.76,10.87,10.87,0,0,0-5.21-1.08h-.72c-3.66,0-5.58.72-6.6,1.38a3,3,0,0,0-1.61,2.88,3.12,3.12,0,0,0,1.61,2.88c1,.59,2.94,1.31,6.6,1.31,3.83,0,6.95.72,9.17,2.1a8.94,8.94,0,0,1,2.87,2.94,8.28,8.28,0,0,1,1,4,8.13,8.13,0,0,1-1,4,8.4,8.4,0,0,1-2.87,2.94c-2.22,1.38-5.34,2.1-9.17,2.1h-.72a15.17,15.17,0,0,1-7.49-1.68,9.73,9.73,0,0,1-4.62-5.16l4.44-1.8a5.26,5.26,0,0,0,2.45,2.76,11.22,11.22,0,0,0,5.22,1.08h.72c3.65,0,5.63-.72,6.59-1.38a3,3,0,0,0,1.62-2.88A3.12,3.12,0,0,0,69.05,30c-1-.6-2.94-1.38-6.59-1.38-3.84,0-6.9-.66-9.11-2a8.42,8.42,0,0,1-2.88-2.94,8.27,8.27,0,0,1-1-4,8.17,8.17,0,0,1,1-4,7.92,7.92,0,0,1,2.88-2.93c2.21-1.38,5.27-2.1,9.11-2.1Z"/><path class="cls-1" d="M102.08,42v-2.1A15,15,0,0,1,93.87,42c-4,0-7.2-1-9.48-3a11.1,11.1,0,0,1-3.53-8.69V10.61h4.79V30.27a6.58,6.58,0,0,0,1.92,5.09c1.38,1.2,3.54,1.8,6.3,1.8s4.91-.6,6.29-1.8a6.58,6.58,0,0,0,1.92-5.09V10.61h4.79V42Z"/><path class="cls-1" d="M127.07,10.61c4,0,7.19,1,9.47,3a11,11,0,0,1,3.54,8.69V42h-4.8v-2.1a15,15,0,0,1-8.21,2.1h-1.32c-3.47,0-6.29-.72-8.27-2.16a8,8,0,0,1-3.42-6.9,7.9,7.9,0,0,1,3.42-6.83,14,14,0,0,1,8.27-2.22h9.53V22.3a6.6,6.6,0,0,0-1.92-5.1c-1.37-1.2-3.53-1.8-6.29-1.8H127A10,10,0,0,0,121,17a5.69,5.69,0,0,0-2.16,4.26l-4.8-.48a10.71,10.71,0,0,1,4.08-7.61A14.4,14.4,0,0,1,127,10.61Zm-1.32,18A9.7,9.7,0,0,0,120.24,30a3.26,3.26,0,0,0-1.38,2.93,3.38,3.38,0,0,0,1.38,3,9.73,9.73,0,0,0,5.51,1.26h1.32c2.76,0,4.92-.6,6.29-1.8a6.58,6.58,0,0,0,1.92-5.09V28.65Z"/><path class="cls-1" d="M152.07,30.27a9.85,9.85,0,0,0,1.26,5.51,3.36,3.36,0,0,0,3,1.38V42a8.15,8.15,0,0,1-6.89-3.42,14.1,14.1,0,0,1-2.16-8.27V0h4.8Z"/><path class="cls-1" d="M206.31,30.27a6.41,6.41,0,0,0,2,5.09c1.32,1.2,3.53,1.8,6.29,1.8h.66a10.85,10.85,0,0,0,5.21-1.08A5.15,5.15,0,0,0,223,33.32l4.44,1.8a9.6,9.6,0,0,1-4.68,5.16A15.19,15.19,0,0,1,215.24,42h-.66c-4,0-7.19-1-9.47-3a11.33,11.33,0,0,1-1.2-1.2,10.78,10.78,0,0,1-1.14,1.2c-2.27,2-5.45,3-9.47,3H192a14.1,14.1,0,0,1-8.27-2.16,8.17,8.17,0,0,1-3.41-6.9,8.06,8.06,0,0,1,3.41-6.83A14.1,14.1,0,0,1,192,23.85h9.53V22.3a6.43,6.43,0,0,0-1.91-5.1c-1.38-1.2-3.54-1.8-6.3-1.8h-.06a10.05,10.05,0,0,0-6,1.56,5.69,5.69,0,0,0-2.16,4.26l-4.79-.48a10.66,10.66,0,0,1,4.07-7.61,14.42,14.42,0,0,1,8.87-2.52h.06c4,0,7.2,1,9.47,3a9.88,9.88,0,0,1,1.14,1.19,10.37,10.37,0,0,1,1.2-1.19c2.28-2,5.45-3,9.47-3s7.13,1,9.41,3a11.09,11.09,0,0,1,3.6,8.69v6.35H206.31Zm-4.8,0V28.65H192A9.83,9.83,0,0,0,186.47,30a3.26,3.26,0,0,0-1.38,2.93,3.38,3.38,0,0,0,1.38,3A9.87,9.87,0,0,0,192,37.16h1.32c2.76,0,4.92-.6,6.3-1.8A6.4,6.4,0,0,0,201.51,30.27Zm4.8-8v1.55h16.48V22.3a6.6,6.6,0,0,0-1.92-5.1c-1.37-1.2-3.53-1.8-6.29-1.8s-5,.6-6.29,1.8A6.43,6.43,0,0,0,206.31,22.3Z"/><path class="cls-1" d="M246.71,10.61a15.19,15.19,0,0,1,7.49,1.68,9.71,9.71,0,0,1,4.62,5.15l-4.44,1.8a5,5,0,0,0-2.46-2.76,10.85,10.85,0,0,0-5.21-1.08H246c-3.66,0-5.57.72-6.59,1.38a3,3,0,0,0-1.62,2.88,3.13,3.13,0,0,0,1.62,2.88c1,.59,2.93,1.31,6.59,1.31,3.84,0,6.95.72,9.17,2.1A9,9,0,0,1,258,28.89a8.28,8.28,0,0,1,1,4,8.13,8.13,0,0,1-1,4,8.43,8.43,0,0,1-2.88,2.94c-2.22,1.38-5.33,2.1-9.17,2.1h-.72a15.19,15.19,0,0,1-7.49-1.68,9.73,9.73,0,0,1-4.62-5.16l4.44-1.8a5.28,5.28,0,0,0,2.46,2.76,11.15,11.15,0,0,0,5.21,1.08H246c3.66,0,5.63-.72,6.59-1.38a3,3,0,0,0,1.62-2.88A3.12,3.12,0,0,0,252.58,30c-1-.6-2.93-1.38-6.59-1.38-3.84,0-6.89-.66-9.11-2A8.42,8.42,0,0,1,234,23.67a8.27,8.27,0,0,1-1-4,8.17,8.17,0,0,1,1-4,7.92,7.92,0,0,1,2.88-2.93c2.22-1.38,5.27-2.1,9.11-2.1Z"/><path class="cls-1" d="M280.45,10.61V15.4h-8.21V30.27a6.58,6.58,0,0,0,1.92,5.09c1.38,1.2,3.54,1.8,6.29,1.8V42c-4,0-7.19-1-9.47-3a11.1,11.1,0,0,1-3.53-8.69V15.4h-4.26V10.61h4.26V0h4.79V10.61Z"/><path class="cls-1" d="M292.44,12.71a15,15,0,0,1,8.21-2.1c4,0,7.2,1,9.47,3a11,11,0,0,1,3.54,8.69V42h-4.79V22.3A6.4,6.4,0,0,0,307,17.2c-1.38-1.2-3.54-1.8-6.3-1.8s-4.91.6-6.29,1.8a6.6,6.6,0,0,0-1.92,5.1V42h-4.79V0h4.79Z"/><path class="cls-1" d="M342.73,13.61a11,11,0,0,1,3.54,8.69v6.35H325.05v1.62A6.58,6.58,0,0,0,327,35.36c1.37,1.2,3.53,1.8,6.29,1.8H334a10.85,10.85,0,0,0,5.21-1.08,5,5,0,0,0,2.46-2.76l4.44,1.8a9.73,9.73,0,0,1-4.62,5.16A15.19,15.19,0,0,1,334,42h-.72c-4,0-7.13-1-9.41-3a11.12,11.12,0,0,1-3.6-8.69v-8a11.09,11.09,0,0,1,3.6-8.69c2.28-2,5.45-3,9.41-3S340.45,11.63,342.73,13.61ZM327,17.2a6.6,6.6,0,0,0-1.92,5.1v1.55h16.42V22.3a6.4,6.4,0,0,0-1.92-5.1c-1.38-1.2-3.53-1.8-6.29-1.8S328.34,16,327,17.2Z"/><path class="cls-1" d="M367.72,10.61V15.4h-8.21V30.27a6.58,6.58,0,0,0,1.92,5.09c1.38,1.2,3.54,1.8,6.29,1.8V42c-4,0-7.19-1-9.47-3a11.1,11.1,0,0,1-3.53-8.69V15.4h-4.26V10.61h4.26V0h4.79V10.61Z"/><path class="cls-1" d="M380.91,3a3,3,0,0,1-3,3,3,3,0,0,1-3-3,3,3,0,0,1,3-3A3,3,0,0,1,380.91,3Zm-5.39,39V10.61h4.79V42Z"/><path class="cls-1" d="M408.6,12.29a9.82,9.82,0,0,1,4.68,5.15l-4.44,1.8a5.41,5.41,0,0,0-2.51-2.76,10.89,10.89,0,0,0-5.22-1.08c-2.76,0-4.91.6-6.29,1.8a6.6,6.6,0,0,0-1.92,5.1v8a6.58,6.58,0,0,0,1.92,5.09c1.38,1.2,3.53,1.8,6.29,1.8a10.89,10.89,0,0,0,5.22-1.08,5.41,5.41,0,0,0,2.51-2.76l4.44,1.8a9.84,9.84,0,0,1-4.68,5.16A15.17,15.17,0,0,1,401.11,42c-3.95,0-7.13-1-9.41-3a11.12,11.12,0,0,1-3.6-8.69v-8a11.09,11.09,0,0,1,3.6-8.69c2.28-2,5.46-3,9.41-3A15.17,15.17,0,0,1,408.6,12.29Z"/><path class="cls-1" d="M450.26,10.61c4,0,7.19,1,9.47,3a11,11,0,0,1,3.54,8.69V42h-4.8v-2.1a15,15,0,0,1-8.21,2.1h-1.32c-3.47,0-6.29-.72-8.27-2.16a8,8,0,0,1-3.42-6.9,7.9,7.9,0,0,1,3.42-6.83,14,14,0,0,1,8.27-2.22h9.53V22.3a6.6,6.6,0,0,0-1.92-5.1c-1.37-1.2-3.53-1.8-6.29-1.8h-.06a10,10,0,0,0-6,1.56,5.69,5.69,0,0,0-2.16,4.26l-4.8-.48a10.67,10.67,0,0,1,4.08-7.61,14.4,14.4,0,0,1,8.87-2.52Zm-1.32,18A9.67,9.67,0,0,0,443.43,30a3.26,3.26,0,0,0-1.38,2.93,3.38,3.38,0,0,0,1.38,3,9.71,9.71,0,0,0,5.51,1.26h1.32c2.76,0,4.92-.6,6.29-1.8a6.58,6.58,0,0,0,1.92-5.09V28.65Z"/><path class="cls-1" d="M494.13,13.61a11,11,0,0,1,3.54,8.69V42h-4.79V22.3A6.4,6.4,0,0,0,491,17.2c-1.38-1.2-3.54-1.8-6.29-1.8s-4.92.6-6.3,1.8a6.6,6.6,0,0,0-1.92,5.1V42h-4.79V10.61h4.79v2.1a15.06,15.06,0,0,1,8.22-2.1C488.68,10.61,491.86,11.63,494.13,13.61Z"/><path class="cls-1" d="M530.28,42h-4.8v-2.1a15,15,0,0,1-8.21,2.1c-4,0-7.19-1-9.47-3a11.08,11.08,0,0,1-3.54-8.69v-8a11,11,0,0,1,3.54-8.69c2.28-2,5.46-3,9.47-3a15,15,0,0,1,8.21,2.1V0h4.8ZM511,17.2a6.4,6.4,0,0,0-1.92,5.1v8A6.38,6.38,0,0,0,511,35.36c1.38,1.2,3.53,1.8,6.29,1.8s4.92-.6,6.29-1.8a6.58,6.58,0,0,0,1.92-5.09v-8a6.6,6.6,0,0,0-1.92-5.1c-1.37-1.2-3.53-1.8-6.29-1.8S512.36,16,511,17.2Z"/><path class="cls-1" d="M580.27,42h-4.8v-2.1a15,15,0,0,1-8.21,2.1c-4,0-7.19-1-9.47-3a11.08,11.08,0,0,1-3.54-8.69v-8a11,11,0,0,1,3.54-8.69c2.28-2,5.45-3,9.47-3a15,15,0,0,1,8.21,2.1V0h4.8ZM561,17.2a6.4,6.4,0,0,0-1.92,5.1v8A6.38,6.38,0,0,0,561,35.36c1.37,1.2,3.53,1.8,6.29,1.8s4.91-.6,6.29-1.8a6.58,6.58,0,0,0,1.92-5.09v-8a6.6,6.6,0,0,0-1.92-5.1c-1.38-1.2-3.53-1.8-6.29-1.8S562.34,16,561,17.2Z"/><path class="cls-1" d="M609.94,13.61a11.07,11.07,0,0,1,3.53,8.69v6.35H592.25v1.62a6.58,6.58,0,0,0,1.92,5.09c1.38,1.2,3.54,1.8,6.3,1.8h.71a10.89,10.89,0,0,0,5.22-1.08,5,5,0,0,0,2.46-2.76l4.43,1.8a9.71,9.71,0,0,1-4.61,5.16,15.23,15.23,0,0,1-7.5,1.68h-.71c-4,0-7.14-1-9.41-3a11.12,11.12,0,0,1-3.6-8.69v-8a11.09,11.09,0,0,1,3.6-8.69c2.27-2,5.45-3,9.41-3S607.66,11.63,609.94,13.61ZM594.17,17.2a6.6,6.6,0,0,0-1.92,5.1v1.55h16.43V22.3a6.4,6.4,0,0,0-1.92-5.1c-1.38-1.2-3.54-1.8-6.29-1.8S595.55,16,594.17,17.2Z"/><path class="cls-1" d="M632.59,10.61a15.23,15.23,0,0,1,7.5,1.68,9.73,9.73,0,0,1,4.61,5.15l-4.44,1.8a5,5,0,0,0-2.45-2.76,10.89,10.89,0,0,0-5.22-1.08h-.72c-3.65,0-5.57.72-6.59,1.38a3,3,0,0,0-1.62,2.88,3.13,3.13,0,0,0,1.62,2.88c1,.59,2.94,1.31,6.59,1.31,3.84,0,7,.72,9.17,2.1a9,9,0,0,1,2.88,2.94,8.28,8.28,0,0,1,1,4,8.13,8.13,0,0,1-1,4A8.43,8.43,0,0,1,641,39.86c-2.21,1.38-5.33,2.1-9.17,2.1h-.72a15.22,15.22,0,0,1-7.49-1.68,9.75,9.75,0,0,1-4.61-5.16l4.43-1.8a5.28,5.28,0,0,0,2.46,2.76,11.21,11.21,0,0,0,5.21,1.08h.72c3.66,0,5.64-.72,6.6-1.38a3,3,0,0,0,1.62-2.88A3.12,3.12,0,0,0,638.47,30c-1-.6-2.94-1.38-6.6-1.38-3.83,0-6.89-.66-9.11-2a8.47,8.47,0,0,1-2.87-2.94,8.27,8.27,0,0,1-1-4,8.17,8.17,0,0,1,1-4,8,8,0,0,1,2.87-2.93c2.22-1.38,5.28-2.1,9.11-2.1Z"/><path class="cls-1" d="M658.07,3a3,3,0,0,1-3,3,3,3,0,0,1-3-3,3,3,0,0,1,3-3A3,3,0,0,1,658.07,3Zm-5.4,39V10.61h4.8V42Z"/><path class="cls-1" d="M686.48,12.71v-2.1h4.79V40.88a11.1,11.1,0,0,1-3.53,8.69c-2.28,2-5.46,3-9.47,3h-.72a15.34,15.34,0,0,1-7.5-1.67,9.75,9.75,0,0,1-4.61-5.16l4.44-1.8a5.22,5.22,0,0,0,2.45,2.76,11.22,11.22,0,0,0,5.22,1.08h.72c2.75,0,4.91-.6,6.29-1.8a6.39,6.39,0,0,0,1.92-5.09v-1a14.76,14.76,0,0,1-8.21,2.1c-4,0-7.14-1-9.41-3a11.2,11.2,0,0,1-3.6-8.69v-8a11.09,11.09,0,0,1,3.6-8.69c2.27-2,5.45-3,9.41-3A14.28,14.28,0,0,1,686.48,12.71ZM672,17.2a6.52,6.52,0,0,0-1.92,5.1v8A6.58,6.58,0,0,0,672,35.36a11.91,11.91,0,0,0,12.59,0,6.38,6.38,0,0,0,1.92-5.09v-8c0-2.28-.6-4-1.92-5.1s-3.54-1.8-6.29-1.8S673.35,16,672,17.2Z"/><path class="cls-1" d="M722.14,13.61a11,11,0,0,1,3.54,8.69V42h-4.8V22.3A6.4,6.4,0,0,0,719,17.2c-1.37-1.2-3.53-1.8-6.29-1.8s-4.91.6-6.29,1.8a6.6,6.6,0,0,0-1.92,5.1V42h-4.8V10.61h4.8v2.1a15,15,0,0,1,8.21-2.1C716.69,10.61,719.86,11.63,722.14,13.61Z"/><path class="cls-1" d="M764.28,4.79a7.09,7.09,0,0,0-4.38,1.14,3.67,3.67,0,0,0-1.2,3.12v1.56h8.21V15.4H758.7V42h-4.79V15.4h-4.26V10.61h4.26V9.05a8.38,8.38,0,0,1,2.93-6.77A11.36,11.36,0,0,1,764.28,0h2.63V4.79Z"/><path class="cls-1" d="M793.59,13.61c2.34,2,3.53,5,3.53,8.69v8A11.07,11.07,0,0,1,793.59,39c-2.28,2-5.46,3-9.47,3s-7.14-1-9.41-3a11.12,11.12,0,0,1-3.6-8.69v-8a11.09,11.09,0,0,1,3.6-8.69c2.27-2,5.45-3,9.41-3S791.31,11.63,793.59,13.61ZM777.82,17.2a6.6,6.6,0,0,0-1.91,5.1v8a6.58,6.58,0,0,0,1.91,5.09c1.38,1.2,3.54,1.8,6.3,1.8s4.91-.6,6.29-1.8a6.38,6.38,0,0,0,1.92-5.09v-8a6.4,6.4,0,0,0-1.92-5.1c-1.38-1.2-3.54-1.8-6.29-1.8S779.2,16,777.82,17.2Z"/><path class="cls-1" d="M817.32,15.4c-2.75,0-4.91.6-6.29,1.8a6.6,6.6,0,0,0-1.92,5.1V42h-4.79V10.61h4.79v2.1a15,15,0,0,1,8.21-2.1H820V15.4Z"/><path class="cls-1" d="M861.26,10.61V15.4h-8.21V30.27A6.58,6.58,0,0,0,855,35.36c1.37,1.2,3.53,1.8,6.29,1.8V42c-4,0-7.19-1-9.47-3a11.08,11.08,0,0,1-3.54-8.69V15.4H844V10.61h4.25V0h4.8V10.61Z"/><path class="cls-1" d="M873.25,12.71a15,15,0,0,1,8.21-2.1c4,0,7.19,1,9.47,3a11.07,11.07,0,0,1,3.53,8.69V42h-4.79V22.3a6.4,6.4,0,0,0-1.92-5.1c-1.38-1.2-3.53-1.8-6.29-1.8s-4.92.6-6.3,1.8a6.63,6.63,0,0,0-1.91,5.1V42h-4.8V0h4.8Z"/><path class="cls-1" d="M923.53,13.61a11,11,0,0,1,3.54,8.69v6.35H905.85v1.62a6.58,6.58,0,0,0,1.92,5.09c1.38,1.2,3.54,1.8,6.29,1.8h.72A10.89,10.89,0,0,0,920,36.08a5,5,0,0,0,2.46-2.76l4.43,1.8a9.75,9.75,0,0,1-4.61,5.16,15.23,15.23,0,0,1-7.5,1.68h-.72c-3.95,0-7.13-1-9.41-3a11.14,11.14,0,0,1-3.59-8.69v-8a11.11,11.11,0,0,1,3.59-8.69c2.28-2,5.46-3,9.41-3S921.26,11.63,923.53,13.61ZM907.77,17.2a6.6,6.6,0,0,0-1.92,5.1v1.55h16.43V22.3a6.4,6.4,0,0,0-1.92-5.1c-1.38-1.2-3.54-1.8-6.3-1.8S909.15,16,907.77,17.2Z"/><path class="cls-1" d="M955.84,12.71a15,15,0,0,1,8.21-2.1c4,0,7.2,1,9.47,3a11,11,0,0,1,3.54,8.69V42h-4.8V22.3a6.43,6.43,0,0,0-1.91-5.1c-1.38-1.2-3.54-1.8-6.3-1.8s-4.91.6-6.29,1.8a6.6,6.6,0,0,0-1.92,5.1V42h-4.79V0h4.79Z"/><path class="cls-1" d="M1005.47,42v-2.1a15,15,0,0,1-8.21,2.1c-4,0-7.19-1-9.47-3a11.08,11.08,0,0,1-3.54-8.69V10.61h4.8V30.27A6.58,6.58,0,0,0,991,35.36c1.37,1.2,3.53,1.8,6.29,1.8s4.91-.6,6.29-1.8a6.58,6.58,0,0,0,1.92-5.09V10.61h4.79V42Z"/><path class="cls-1" d="M1062.35,13.61a11.09,11.09,0,0,1,3.6,8.69V42h-4.8V22.3a6.6,6.6,0,0,0-1.92-5.1c-1.38-1.2-3.53-1.8-6.29-1.8s-5,.6-6.29,1.8a6.43,6.43,0,0,0-2,5.1V42h-4.8V22.3a6.43,6.43,0,0,0-1.91-5.1c-1.38-1.2-3.54-1.8-6.3-1.8s-4.91.6-6.29,1.8a6.6,6.6,0,0,0-1.92,5.1V42h-4.79V10.61h4.79v2.1a15,15,0,0,1,8.21-2.1c4,0,7.2,1,9.47,3a9.88,9.88,0,0,1,1.14,1.19,10.37,10.37,0,0,1,1.2-1.19c2.28-2,5.46-3,9.47-3S1060.07,11.63,1062.35,13.61Z"/><path class="cls-1" d="M1085.55,10.61c4,0,7.19,1,9.47,3a11.07,11.07,0,0,1,3.53,8.69V42h-4.79v-2.1a15,15,0,0,1-8.21,2.1h-1.32c-3.48,0-6.3-.72-8.27-2.16a8,8,0,0,1-3.42-6.9,7.9,7.9,0,0,1,3.42-6.83,13.93,13.93,0,0,1,8.27-2.22h9.53V22.3a6.6,6.6,0,0,0-1.92-5.1c-1.38-1.2-3.54-1.8-6.29-1.8h-.06a10.07,10.07,0,0,0-6,1.56,5.65,5.65,0,0,0-2.15,4.26l-4.8-.48a10.67,10.67,0,0,1,4.08-7.61,14.38,14.38,0,0,1,8.87-2.52Zm-1.32,18a9.71,9.71,0,0,0-5.52,1.32,3.28,3.28,0,0,0-1.37,2.93,3.39,3.39,0,0,0,1.37,3,9.75,9.75,0,0,0,5.52,1.26h1.32c2.75,0,4.91-.6,6.29-1.8a6.58,6.58,0,0,0,1.92-5.09V28.65Z"/><path class="cls-1" d="M1129.42,13.61A11,11,0,0,1,1133,22.3V42h-4.8V22.3a6.43,6.43,0,0,0-1.91-5.1c-1.38-1.2-3.54-1.8-6.3-1.8s-4.91.6-6.29,1.8a6.6,6.6,0,0,0-1.92,5.1V42H1107V10.61h4.79v2.1a15,15,0,0,1,8.21-2.1C1124,10.61,1127.14,11.63,1129.42,13.61Z"/><path class="cls-1" d="M1161.73,12.71a15,15,0,0,1,8.21-2.1c4,0,7.19,1,9.47,3A11,11,0,0,1,1183,22.3v8a11.08,11.08,0,0,1-3.54,8.69c-2.28,2-5.45,3-9.47,3a15,15,0,0,1-8.21-2.1V42h-4.8V0h4.8Zm1.92,4.49a6.6,6.6,0,0,0-1.92,5.1v8a6.58,6.58,0,0,0,1.92,5.09c1.37,1.2,3.53,1.8,6.29,1.8s4.91-.6,6.29-1.8a6.38,6.38,0,0,0,1.92-5.09v-8a6.4,6.4,0,0,0-1.92-5.1c-1.38-1.2-3.53-1.8-6.29-1.8S1165,16,1163.65,17.2Z"/><path class="cls-1" d="M1210.82,13.61c2.34,2,3.53,5,3.53,8.69v6.35h-21.21v1.62a6.61,6.61,0,0,0,1.91,5.09c1.38,1.2,3.54,1.8,6.3,1.8h.72a10.87,10.87,0,0,0,5.21-1.08,5,5,0,0,0,2.46-2.76l4.43,1.8a9.71,9.71,0,0,1-4.61,5.16,15.22,15.22,0,0,1-7.49,1.68h-.72c-4,0-7.13-1-9.41-3a11.12,11.12,0,0,1-3.6-8.69v-8a11.09,11.09,0,0,1,3.6-8.69c2.28-2,5.45-3,9.41-3S1208.54,11.63,1210.82,13.61Zm-15.77,3.59a6.63,6.63,0,0,0-1.91,5.1v1.55h16.42V22.3a6.4,6.4,0,0,0-1.92-5.1c-1.38-1.2-3.54-1.8-6.29-1.8S1196.43,16,1195.05,17.2Z"/><path class="cls-1" d="M1227.54,3a3,3,0,0,1-3,3,3,3,0,0,1-3-3,3,3,0,0,1,3-3A3,3,0,0,1,1227.54,3Zm-5.39,39V10.61h4.79V42Z"/><path class="cls-1" d="M1258.41,13.61A11,11,0,0,1,1262,22.3V42h-4.8V22.3a6.4,6.4,0,0,0-1.92-5.1c-1.38-1.2-3.53-1.8-6.29-1.8s-4.92.6-6.29,1.8a6.6,6.6,0,0,0-1.92,5.1V42h-4.8V10.61h4.8v2.1a15,15,0,0,1,8.21-2.1C1253,10.61,1256.13,11.63,1258.41,13.61Z"/><path class="cls-1" d="M1289.76,12.71v-2.1h4.79V40.88a11.08,11.08,0,0,1-3.54,8.69c-2.27,2-5.45,3-9.46,3h-.72a15.34,15.34,0,0,1-7.5-1.67,9.75,9.75,0,0,1-4.61-5.16l4.43-1.8a5.28,5.28,0,0,0,2.46,2.76,11.22,11.22,0,0,0,5.22,1.08h.72c2.75,0,4.91-.6,6.29-1.8a6.39,6.39,0,0,0,1.92-5.09v-1a14.76,14.76,0,0,1-8.21,2.1c-4,0-7.14-1-9.42-3a11.23,11.23,0,0,1-3.59-8.69v-8a11.11,11.11,0,0,1,3.59-8.69c2.28-2,5.46-3,9.42-3A14.28,14.28,0,0,1,1289.76,12.71Zm-14.51,4.49a6.52,6.52,0,0,0-1.92,5.1v8a6.58,6.58,0,0,0,1.92,5.09,11.91,11.91,0,0,0,12.59,0,6.38,6.38,0,0,0,1.92-5.09v-8c0-2.28-.6-4-1.92-5.1s-3.54-1.8-6.29-1.8S1276.63,16,1275.25,17.2Z"/><path class="cls-1" d="M1308.94,39a3,3,0,1,1-3-3A3,3,0,0,1,1308.94,39Z"/><path class="cls-1" d="M13.38,76.32v34.31H9.93V76.32H0V72.87H23.25v3.45Z"/><path class="cls-1" d="M33.18,85.06a12.73,12.73,0,0,1,8.09-2.37c3.56,0,6.36.91,8.36,2.64A9.75,9.75,0,0,1,52.76,93v17.64H49.3V93a6.41,6.41,0,0,0-1.94-5.07C46,86.73,44,86.14,41.27,86.14s-4.8.59-6.15,1.78A6.41,6.41,0,0,0,33.18,93v17.64H29.72V72.87h3.46Z"/><path class="cls-1" d="M78.6,85.33A9.75,9.75,0,0,1,81.72,93v5.39H62.14v1.94a6.4,6.4,0,0,0,2,5.07c1.35,1.19,3.45,1.78,6.15,1.78h.64a11.16,11.16,0,0,0,5-1,5.51,5.51,0,0,0,2.53-2.81l3.19,1.3a8.6,8.6,0,0,1-4.1,4.53,13.9,13.9,0,0,1-6.64,1.46h-.64c-3.56,0-6.42-.92-8.42-2.65a9.75,9.75,0,0,1-3.13-7.66V93a9.75,9.75,0,0,1,3.13-7.66c2-1.73,4.86-2.64,8.42-2.64S76.6,83.6,78.6,85.33ZM64.09,87.92a6.41,6.41,0,0,0-2,5.07v1.94H78.27V93a6.41,6.41,0,0,0-1.94-5.07c-1.35-1.19-3.4-1.78-6.09-1.78S65.44,86.73,64.09,87.92Z"/><path class="cls-1" d="M125.07,72.87a13.78,13.78,0,0,1,5.34,1,9.92,9.92,0,0,1,4.1,2.8c2.21,2.43,3.35,5.88,3.35,10.2v9.82c0,4.37-1.14,7.76-3.35,10.25a10.52,10.52,0,0,1-4.1,2.8,15,15,0,0,1-5.34.92H112.34V72.87Zm-9.28,34.3h9.28c3,0,5.34-.86,6.91-2.58s2.42-4.48,2.42-7.93V86.84c0-3.45-.81-6.1-2.42-7.88a8.94,8.94,0,0,0-6.91-2.64h-9.28Z"/><path class="cls-1" d="M157,86.14c-2.69,0-4.8.59-6.15,1.78A6.44,6.44,0,0,0,148.86,93v17.64h-3.45V82.69h3.45v2.37A12.75,12.75,0,0,1,157,82.69h2.43v3.45Z"/><path class="cls-1" d="M183.06,85.33A9.75,9.75,0,0,1,186.19,93v5.39H166.61v1.94a6.43,6.43,0,0,0,1.94,5.07c1.35,1.19,3.45,1.78,6.15,1.78h.65a11.11,11.11,0,0,0,5-1,5.57,5.57,0,0,0,2.54-2.81l3.18,1.3a8.6,8.6,0,0,1-4.1,4.53,13.85,13.85,0,0,1-6.63,1.46h-.65c-3.56,0-6.42-.92-8.41-2.65a9.75,9.75,0,0,1-3.13-7.66V93a9.75,9.75,0,0,1,3.13-7.66c2-1.73,4.85-2.64,8.41-2.64S181.06,83.6,183.06,85.33Zm-14.51,2.59A6.44,6.44,0,0,0,166.61,93v1.94h16.13V93a6.41,6.41,0,0,0-2-5.07c-1.34-1.19-3.39-1.78-6.09-1.78S169.9,86.73,168.55,87.92Z"/><path class="cls-1" d="M202.59,82.69A12.64,12.64,0,0,1,211,85.33,9.75,9.75,0,0,1,214.13,93v17.64h-3.45v-2.38a12.75,12.75,0,0,1-8.09,2.38h-1.24a12.74,12.74,0,0,1-7.34-1.89,7.48,7.48,0,0,1,0-11.92,12.74,12.74,0,0,1,7.34-1.89h9.33V93a6.44,6.44,0,0,0-2-5.07c-1.34-1.19-3.39-1.78-6.09-1.78h-.05a9.52,9.52,0,0,0-5.83,1.56A5.9,5.9,0,0,0,194.5,92l-3.4-.37A9.19,9.19,0,0,1,194.61,85a12.8,12.8,0,0,1,7.93-2.26Zm-1.24,15.69A9.64,9.64,0,0,0,196,99.62a4.05,4.05,0,0,0,0,6.31,9.64,9.64,0,0,0,5.34,1.24h1.24c2.7,0,4.75-.59,6.09-1.78a6.42,6.42,0,0,0,2-5.07V98.38Z"/><path class="cls-1" d="M261.17,85.33A9.75,9.75,0,0,1,264.3,93v17.64h-3.45V93a6.44,6.44,0,0,0-1.94-5.07c-1.35-1.19-3.4-1.78-6.1-1.78s-4.75.59-6.15,1.78A6.44,6.44,0,0,0,244.72,93v17.64h-3.45V93a6.44,6.44,0,0,0-1.94-5.07c-1.35-1.19-3.4-1.78-6.1-1.78s-4.8.59-6.15,1.78A6.44,6.44,0,0,0,225.14,93v17.64h-3.45V82.69h3.45v2.37a12.73,12.73,0,0,1,8.09-2.37c3.56,0,6.36.91,8.36,2.64a8.82,8.82,0,0,1,1.4,1.56,12.12,12.12,0,0,1,1.41-1.56c2-1.73,4.85-2.64,8.41-2.64S259.17,83.6,261.17,85.33Z"/><path class="cls-1" d="M282.43,82.69a13.85,13.85,0,0,1,6.63,1.45,8.67,8.67,0,0,1,4.1,4.53L290,90a5.61,5.61,0,0,0-2.54-2.81,11.25,11.25,0,0,0-5-1h-.65c-2.8,0-5,.43-6.36,1.35a3.54,3.54,0,0,0,0,6.09c1.4.92,3.56,1.35,6.36,1.35a15.81,15.81,0,0,1,8.15,1.83,7.09,7.09,0,0,1,0,12,15.71,15.71,0,0,1-8.15,1.84h-.65a13.9,13.9,0,0,1-6.68-1.46,8.52,8.52,0,0,1-4.1-4.53l3.23-1.3a5.29,5.29,0,0,0,2.48,2.81,11.42,11.42,0,0,0,5.07,1h.65c2.75,0,4.91-.43,6.31-1.34a3.28,3.28,0,0,0,1.73-3.08,3.23,3.23,0,0,0-1.73-3c-1.4-.92-3.56-1.35-6.31-1.35a15.89,15.89,0,0,1-8.2-1.83,7.09,7.09,0,0,1,0-12,15.89,15.89,0,0,1,8.2-1.83Z"/><path class="cls-1" d="M316.3,84.14a8.59,8.59,0,0,1,4.1,4.53L317.17,90a5.33,5.33,0,0,0-2.48-2.81,11.32,11.32,0,0,0-5-1c-2.7,0-4.8.59-6.15,1.78A6.44,6.44,0,0,0,301.58,93v7.33a6.43,6.43,0,0,0,1.94,5.07c1.35,1.19,3.45,1.78,6.15,1.78a11.19,11.19,0,0,0,5-1,5.29,5.29,0,0,0,2.48-2.81l3.23,1.3a8.52,8.52,0,0,1-4.1,4.53,13.83,13.83,0,0,1-6.63,1.46c-3.56,0-6.42-.92-8.41-2.65a9.75,9.75,0,0,1-3.13-7.66V93a9.75,9.75,0,0,1,3.13-7.66c2-1.73,4.85-2.64,8.41-2.64A13.83,13.83,0,0,1,316.3,84.14Z"/><path class="cls-1" d="M345.17,85.33A9.78,9.78,0,0,1,348.29,93v7.33a9.78,9.78,0,0,1-3.12,7.66c-2,1.73-4.81,2.65-8.37,2.65s-6.41-.92-8.41-2.65a9.75,9.75,0,0,1-3.13-7.66V93a9.75,9.75,0,0,1,3.13-7.66c2-1.73,4.85-2.64,8.41-2.64S343.17,83.6,345.17,85.33Zm-14.51,2.59a6.41,6.41,0,0,0-2,5.07v7.33a6.4,6.4,0,0,0,2,5.07c1.34,1.19,3.45,1.78,6.14,1.78s4.75-.59,6.1-1.78a6.43,6.43,0,0,0,1.94-5.07V93a6.44,6.44,0,0,0-1.94-5.07c-1.35-1.19-3.4-1.78-6.1-1.78S332,86.73,330.66,87.92Z"/><path class="cls-1" d="M376.18,110.63h-3.45v-2.38a12.73,12.73,0,0,1-8.09,2.38c-3.56,0-6.36-.92-8.36-2.65a9.75,9.75,0,0,1-3.13-7.66V93a9.75,9.75,0,0,1,3.13-7.66c2-1.73,4.8-2.64,8.36-2.64a12.73,12.73,0,0,1,8.09,2.37V72.87h3.45ZM358.54,87.92A6.44,6.44,0,0,0,356.6,93v7.33a6.43,6.43,0,0,0,1.94,5.07c1.35,1.19,3.4,1.78,6.1,1.78s4.8-.59,6.15-1.78a6.43,6.43,0,0,0,1.94-5.07V93a6.44,6.44,0,0,0-1.94-5.07c-1.35-1.19-3.45-1.78-6.15-1.78S359.89,86.73,358.54,87.92Z"/><path class="cls-1" d="M402.56,85.33A9.75,9.75,0,0,1,405.69,93v5.39H386.11v1.94a6.43,6.43,0,0,0,1.94,5.07c1.35,1.19,3.45,1.78,6.15,1.78h.65a11.19,11.19,0,0,0,5-1,5.6,5.6,0,0,0,2.53-2.81l3.18,1.3a8.56,8.56,0,0,1-4.1,4.53,13.85,13.85,0,0,1-6.63,1.46h-.65c-3.56,0-6.42-.92-8.41-2.65a9.75,9.75,0,0,1-3.13-7.66V93a9.75,9.75,0,0,1,3.13-7.66c2-1.73,4.85-2.64,8.41-2.64S400.57,83.6,402.56,85.33Zm-14.51,2.59A6.44,6.44,0,0,0,386.11,93v1.94h16.13V93a6.44,6.44,0,0,0-1.94-5.07c-1.35-1.19-3.4-1.78-6.1-1.78S389.4,86.73,388.05,87.92Z"/><path class="cls-1" d="M414.92,107.17c0,6.15-2.16,10.9-6.21,13.65L406.77,118a9.6,9.6,0,0,0,3.45-4.15,16.74,16.74,0,0,0,1.24-6.64Z"/><path class="cls-1" d="M457.08,82.69a12.64,12.64,0,0,1,8.41,2.64A9.75,9.75,0,0,1,468.62,93v17.64h-3.45v-2.38a12.77,12.77,0,0,1-8.09,2.38h-1.25a12.72,12.72,0,0,1-7.33-1.89,7.46,7.46,0,0,1,0-11.92,12.72,12.72,0,0,1,7.33-1.89h9.34V93a6.44,6.44,0,0,0-2-5.07c-1.35-1.19-3.4-1.78-6.09-1.78H457a9.49,9.49,0,0,0-5.82,1.56A5.94,5.94,0,0,0,449,92l-3.39-.37a9.22,9.22,0,0,1,3.5-6.64A12.82,12.82,0,0,1,457,82.69Zm-1.25,15.69a9.6,9.6,0,0,0-5.33,1.24,4,4,0,0,0,0,6.31,9.6,9.6,0,0,0,5.33,1.24h1.25c2.69,0,4.74-.59,6.09-1.78a6.42,6.42,0,0,0,2-5.07V98.38Z"/><path class="cls-1" d="M478.55,100.32a9.5,9.5,0,0,0,1.24,5.34,3.64,3.64,0,0,0,3.18,1.51v3.46a7.08,7.08,0,0,1-6-3,12.52,12.52,0,0,1-1.89-7.34V72.87h3.46Z"/><path class="cls-1" d="M493.44,75.13a2.27,2.27,0,1,1-2.27-2.26A2.22,2.22,0,0,1,493.44,75.13Zm-4,35.5V82.69h3.46v27.94Z"/><path class="cls-1" d="M511.45,82.69a12.67,12.67,0,0,1,8.42,2.64A9.75,9.75,0,0,1,523,93v17.64h-3.46v-2.38a12.73,12.73,0,0,1-8.09,2.38h-1.24a12.72,12.72,0,0,1-7.33-1.89,7.46,7.46,0,0,1,0-11.92,12.72,12.72,0,0,1,7.33-1.89h9.33V93a6.47,6.47,0,0,0-2-5.07c-1.35-1.19-3.4-1.78-6.1-1.78h-.05a9.52,9.52,0,0,0-5.83,1.56A5.93,5.93,0,0,0,503.36,92l-3.4-.37A9.19,9.19,0,0,1,503.47,85a12.82,12.82,0,0,1,7.93-2.26Zm-1.24,15.69a9.64,9.64,0,0,0-5.34,1.24,4.05,4.05,0,0,0,0,6.31,9.64,9.64,0,0,0,5.34,1.24h1.24c2.7,0,4.75-.59,6.1-1.78a6.45,6.45,0,0,0,2-5.07V98.38Z"/><path class="cls-1" d="M541.12,82.69a13.9,13.9,0,0,1,6.64,1.45,8.67,8.67,0,0,1,4.1,4.53L548.67,90a5.55,5.55,0,0,0-2.53-2.81,11.29,11.29,0,0,0-5-1h-.64c-2.81,0-5,.43-6.37,1.35a3.54,3.54,0,0,0,0,6.09c1.4.92,3.56,1.35,6.37,1.35a15.75,15.75,0,0,1,8.14,1.83,7.09,7.09,0,0,1,0,12,15.65,15.65,0,0,1-8.14,1.84h-.65a14,14,0,0,1-6.69-1.46,8.6,8.6,0,0,1-4.1-4.53l3.24-1.3a5.21,5.21,0,0,0,2.48,2.81,11.39,11.39,0,0,0,5.07,1h.65c2.75,0,4.9-.43,6.31-1.34a3.29,3.29,0,0,0,1.72-3.08,3.24,3.24,0,0,0-1.72-3c-1.41-.92-3.56-1.35-6.31-1.35a15.86,15.86,0,0,1-8.2-1.83,7.07,7.07,0,0,1,0-12,15.86,15.86,0,0,1,8.2-1.83Z"/><path class="cls-1" d="M605.13,107.17v3.46H582.58V72.87H586v34.3Z"/><path class="cls-1" d="M628.81,85.33A9.75,9.75,0,0,1,631.94,93v7.33a9.75,9.75,0,0,1-3.13,7.66c-2,1.73-4.8,2.65-8.36,2.65S614,109.71,612,108a9.75,9.75,0,0,1-3.13-7.66V93A9.75,9.75,0,0,1,612,85.33c2-1.73,4.85-2.64,8.41-2.64S626.82,83.6,628.81,85.33ZM614.3,87.92A6.44,6.44,0,0,0,612.36,93v7.33a6.43,6.43,0,0,0,1.94,5.07c1.35,1.19,3.45,1.78,6.15,1.78s4.75-.59,6.1-1.78a6.43,6.43,0,0,0,1.94-5.07V93a6.44,6.44,0,0,0-1.94-5.07c-1.35-1.19-3.4-1.78-6.1-1.78S615.65,86.73,614.3,87.92Z"/><path class="cls-1" d="M650,86.14c-2.7,0-4.8.59-6.15,1.78A6.41,6.41,0,0,0,641.87,93v17.64h-3.46V82.69h3.46v2.37A12.73,12.73,0,0,1,650,82.69h2.42v3.45Z"/><path class="cls-1" d="M676.07,85.33A9.75,9.75,0,0,1,679.19,93v5.39H659.61v1.94a6.4,6.4,0,0,0,1.95,5.07c1.35,1.19,3.45,1.78,6.15,1.78h.64a11.16,11.16,0,0,0,5-1,5.51,5.51,0,0,0,2.53-2.81l3.19,1.3a8.6,8.6,0,0,1-4.1,4.53,13.9,13.9,0,0,1-6.64,1.46h-.64c-3.56,0-6.42-.92-8.42-2.65a9.75,9.75,0,0,1-3.13-7.66V93a9.75,9.75,0,0,1,3.13-7.66c2-1.73,4.86-2.64,8.42-2.64S674.07,83.6,676.07,85.33Zm-14.51,2.59A6.41,6.41,0,0,0,659.61,93v1.94h16.13V93a6.41,6.41,0,0,0-1.94-5.07c-1.35-1.19-3.4-1.78-6.09-1.78S662.91,86.73,661.56,87.92Z"/><path class="cls-1" d="M705.57,85.33A9.75,9.75,0,0,1,708.7,93v17.64h-3.45V93a6.44,6.44,0,0,0-1.94-5.07c-1.35-1.19-3.4-1.78-6.1-1.78s-4.8.59-6.15,1.78A6.44,6.44,0,0,0,689.12,93v17.64h-3.45V82.69h3.45v2.37a12.77,12.77,0,0,1,8.09-2.37C700.77,82.69,703.58,83.6,705.57,85.33Z"/><path class="cls-1" d="M718.52,107.17H736.7v3.46H714.64v-4.32l18.18-20.17H714.64V82.69H736.7V87Z"/><path class="cls-1" d="M761.46,85.33A9.75,9.75,0,0,1,764.59,93v7.33a9.75,9.75,0,0,1-3.13,7.66c-2,1.73-4.8,2.65-8.36,2.65s-6.42-.92-8.42-2.65a9.75,9.75,0,0,1-3.12-7.66V93a9.75,9.75,0,0,1,3.12-7.66c2-1.73,4.86-2.64,8.42-2.64S759.46,83.6,761.46,85.33ZM747,87.92A6.44,6.44,0,0,0,745,93v7.33a6.43,6.43,0,0,0,1.94,5.07c1.35,1.19,3.45,1.78,6.15,1.78s4.75-.59,6.09-1.78a6.4,6.4,0,0,0,1.95-5.07V93a6.41,6.41,0,0,0-1.95-5.07c-1.34-1.19-3.39-1.78-6.09-1.78S748.3,86.73,747,87.92Z"/><path class="cls-1" d="M808.58,72.87c6.15,0,10.47,3.07,12,8.63l-3.29.92c-1.19-4-4.1-6.1-8.74-6.1h-.64c-3.08,0-5.51.65-7.07,1.89a6.74,6.74,0,0,0,0,10c1.56,1.18,4,1.83,7.07,1.83,3.93,0,7,.86,9.22,2.59a10.14,10.14,0,0,1,0,15.43c-2.21,1.72-5.29,2.59-9.22,2.59h-.6c-6.2,0-10.46-3.08-12.08-8.58l3.34-1c1.14,4,4.1,6.09,8.74,6.09h.6c3.07,0,5.55-.64,7.12-1.83a6.07,6.07,0,0,0,2.21-5,6,6,0,0,0-2.21-5c-1.57-1.24-4-1.89-7.12-1.89-3.89,0-7-.86-9.23-2.59a9.4,9.4,0,0,1-3.5-7.71,9.55,9.55,0,0,1,3.5-7.71c2.21-1.67,5.34-2.59,9.23-2.59Z"/><path class="cls-1" d="M837.12,82.69a12.67,12.67,0,0,1,8.42,2.64A9.78,9.78,0,0,1,848.66,93v17.64h-3.45v-2.38a12.73,12.73,0,0,1-8.09,2.38h-1.24a12.76,12.76,0,0,1-7.34-1.89,7.48,7.48,0,0,1,0-11.92,12.76,12.76,0,0,1,7.34-1.89h9.33V93a6.47,6.47,0,0,0-2-5.07c-1.35-1.19-3.4-1.78-6.1-1.78h0a9.52,9.52,0,0,0-5.83,1.56A5.93,5.93,0,0,0,829,92l-3.4-.37A9.19,9.19,0,0,1,829.14,85a12.8,12.8,0,0,1,7.93-2.26Zm-1.24,15.69a9.64,9.64,0,0,0-5.34,1.24,4.05,4.05,0,0,0,0,6.31,9.64,9.64,0,0,0,5.34,1.24h1.24c2.7,0,4.75-.59,6.1-1.78a6.45,6.45,0,0,0,2-5.07V98.38Z"/><path class="cls-1" d="M872.78,84.14a8.67,8.67,0,0,1,4.1,4.53L873.64,90a5.25,5.25,0,0,0-2.48-2.81,11.29,11.29,0,0,0-5-1c-2.69,0-4.8.59-6.15,1.78A6.44,6.44,0,0,0,858.05,93v7.33a6.43,6.43,0,0,0,1.94,5.07c1.35,1.19,3.46,1.78,6.15,1.78a11.16,11.16,0,0,0,5-1,5.21,5.21,0,0,0,2.48-2.81l3.24,1.3a8.6,8.6,0,0,1-4.1,4.53,13.9,13.9,0,0,1-6.64,1.46c-3.56,0-6.42-.92-8.41-2.65a9.75,9.75,0,0,1-3.13-7.66V93a9.75,9.75,0,0,1,3.13-7.66c2-1.73,4.85-2.64,8.41-2.64A13.9,13.9,0,0,1,872.78,84.14Z"/><path class="cls-1" d="M899.91,84.14a8.67,8.67,0,0,1,4.1,4.53L900.78,90a5.31,5.31,0,0,0-2.49-2.81,11.25,11.25,0,0,0-5-1c-2.7,0-4.8.59-6.15,1.78A6.41,6.41,0,0,0,885.19,93v7.33a6.39,6.39,0,0,0,1.94,5.07c1.35,1.19,3.45,1.78,6.15,1.78a11.11,11.11,0,0,0,5-1,5.27,5.27,0,0,0,2.49-2.81l3.23,1.3a8.6,8.6,0,0,1-4.1,4.53,13.85,13.85,0,0,1-6.63,1.46c-3.56,0-6.42-.92-8.42-2.65a9.75,9.75,0,0,1-3.13-7.66V93a9.75,9.75,0,0,1,3.13-7.66c2-1.73,4.86-2.64,8.42-2.64A13.85,13.85,0,0,1,899.91,84.14Z"/><path class="cls-1" d="M928.77,85.33A9.75,9.75,0,0,1,931.9,93v7.33a9.75,9.75,0,0,1-3.13,7.66c-2,1.73-4.8,2.65-8.36,2.65S914,109.71,912,108a9.75,9.75,0,0,1-3.13-7.66V93A9.75,9.75,0,0,1,912,85.33c2-1.73,4.85-2.64,8.41-2.64S926.78,83.6,928.77,85.33Zm-14.51,2.59A6.44,6.44,0,0,0,912.32,93v7.33a6.43,6.43,0,0,0,1.94,5.07c1.35,1.19,3.45,1.78,6.15,1.78s4.75-.59,6.1-1.78a6.43,6.43,0,0,0,1.94-5.07V93a6.44,6.44,0,0,0-1.94-5.07c-1.35-1.19-3.4-1.78-6.1-1.78S915.61,86.73,914.26,87.92Z"/><path class="cls-1" d="M941.13,107.17c0,6.15-2.16,10.9-6.21,13.65L933,118a9.6,9.6,0,0,0,3.45-4.15,16.74,16.74,0,0,0,1.24-6.64Z"/><path class="cls-1" d="M976.27,75.13A2.27,2.27,0,1,1,974,72.87,2.21,2.21,0,0,1,976.27,75.13Zm-4,35.5V82.69h3.46v27.94Z"/><path class="cls-1" d="M994.94,82.69a13.85,13.85,0,0,1,6.63,1.45,8.63,8.63,0,0,1,4.1,4.53l-3.18,1.3a5.64,5.64,0,0,0-2.53-2.81,11.32,11.32,0,0,0-5-1h-.65c-2.8,0-5,.43-6.36,1.35a3.54,3.54,0,0,0,0,6.09c1.4.92,3.56,1.35,6.36,1.35a15.76,15.76,0,0,1,8.15,1.83,7.09,7.09,0,0,1,0,12,15.66,15.66,0,0,1-8.15,1.84h-.64a13.94,13.94,0,0,1-6.69-1.46,8.56,8.56,0,0,1-4.1-4.53l3.23-1.3a5.27,5.27,0,0,0,2.49,2.81,11.39,11.39,0,0,0,5.07,1h.64c2.75,0,4.91-.43,6.31-1.34a3.28,3.28,0,0,0,1.73-3.08,3.23,3.23,0,0,0-1.73-3c-1.4-.92-3.56-1.35-6.31-1.35a15.91,15.91,0,0,1-8.2-1.83,7.09,7.09,0,0,1,0-12,15.91,15.91,0,0,1,8.2-1.83Z"/><path class="cls-1" d="M1047.94,82.69a12.67,12.67,0,0,1,8.42,2.64,9.75,9.75,0,0,1,3.13,7.66v17.64H1056v-2.38a12.73,12.73,0,0,1-8.09,2.38h-1.24a12.72,12.72,0,0,1-7.33-1.89,7.46,7.46,0,0,1,0-11.92,12.72,12.72,0,0,1,7.33-1.89H1056V93a6.47,6.47,0,0,0-2-5.07c-1.35-1.19-3.4-1.78-6.1-1.78h0a9.52,9.52,0,0,0-5.83,1.56,5.93,5.93,0,0,0-2.21,4.26l-3.4-.37A9.19,9.19,0,0,1,1040,85a12.82,12.82,0,0,1,7.93-2.26Zm-1.24,15.69a9.64,9.64,0,0,0-5.34,1.24,4.05,4.05,0,0,0,0,6.31,9.64,9.64,0,0,0,5.34,1.24h1.24c2.7,0,4.75-.59,6.1-1.78a6.45,6.45,0,0,0,2-5.07V98.38Z"/><path class="cls-1" d="M1129.59,85.33a9.75,9.75,0,0,1,3.13,7.66v17.64h-3.46V93a6.41,6.41,0,0,0-1.94-5.07c-1.35-1.19-3.4-1.78-6.09-1.78s-4.75.59-6.15,1.78a6.41,6.41,0,0,0-1.95,5.07v17.64h-3.45V93a6.41,6.41,0,0,0-1.94-5.07c-1.35-1.19-3.4-1.78-6.09-1.78s-4.8.59-6.15,1.78a6.41,6.41,0,0,0-2,5.07v17.64h-3.45V82.69h3.45v2.37a12.78,12.78,0,0,1,8.1-2.37c3.56,0,6.36.91,8.36,2.64a9.23,9.23,0,0,1,1.4,1.56,12,12,0,0,1,1.4-1.56c2-1.73,4.86-2.64,8.42-2.64S1127.59,83.6,1129.59,85.33Z"/><path class="cls-1" d="M1158.83,110.63v-2.38a14.82,14.82,0,0,1-16.51-.27,9.75,9.75,0,0,1-3.13-7.66V82.69h3.46v17.63a6.45,6.45,0,0,0,2,5.07c1.35,1.19,3.4,1.78,6.1,1.78s4.74-.59,6.09-1.78a6.42,6.42,0,0,0,2-5.07V82.69h3.45v27.94Z"/><path class="cls-1" d="M1173.29,100.32a9.5,9.5,0,0,0,1.24,5.34,3.64,3.64,0,0,0,3.18,1.51v3.46a7.07,7.07,0,0,1-6-3,12.52,12.52,0,0,1-1.89-7.34V72.87h3.46Z"/><path class="cls-1" d="M1195.78,82.69v3.45h-8v14.18a6.43,6.43,0,0,0,1.94,5.07c1.35,1.19,3.4,1.78,6.1,1.78v3.46a12.64,12.64,0,0,1-8.41-2.65,9.89,9.89,0,0,1-3.08-7.66V86.14h-4.42V82.69h4.42V72.87h3.45v9.82Z"/><path class="cls-1" d="M1206.79,75.13a2.27,2.27,0,1,1-2.27-2.26A2.21,2.21,0,0,1,1206.79,75.13Zm-4,35.5V82.69h3.46v27.94Z"/><path class="cls-1" d="M1236.29,110.63h-3.45v-2.38a12.73,12.73,0,0,1-8.09,2.38c-3.56,0-6.36-.92-8.36-2.65a9.75,9.75,0,0,1-3.13-7.66V93a9.75,9.75,0,0,1,3.13-7.66c2-1.73,4.8-2.64,8.36-2.64a12.73,12.73,0,0,1,8.09,2.37V72.87h3.45Zm-17.63-22.71a6.41,6.41,0,0,0-2,5.07v7.33a6.4,6.4,0,0,0,2,5.07c1.34,1.19,3.39,1.78,6.09,1.78s4.8-.59,6.15-1.78a6.43,6.43,0,0,0,1.94-5.07V93a6.44,6.44,0,0,0-1.94-5.07c-1.35-1.19-3.45-1.78-6.15-1.78S1220,86.73,1218.66,87.92Z"/><path class="cls-1" d="M1248.38,75.13a2.27,2.27,0,1,1-2.27-2.26A2.21,2.21,0,0,1,1248.38,75.13Zm-4,35.5V82.69h3.45v27.94Z"/><path class="cls-1" d="M1267,82.69a13.9,13.9,0,0,1,6.64,1.45,8.67,8.67,0,0,1,4.1,4.53l-3.19,1.3a5.55,5.55,0,0,0-2.53-2.81,11.29,11.29,0,0,0-5-1h-.64c-2.81,0-5,.43-6.37,1.35a3.54,3.54,0,0,0,0,6.09c1.4.92,3.56,1.35,6.37,1.35a15.75,15.75,0,0,1,8.14,1.83,7.09,7.09,0,0,1,0,12,15.65,15.65,0,0,1-8.14,1.84h-.65a14,14,0,0,1-6.69-1.46,8.6,8.6,0,0,1-4.1-4.53l3.24-1.3a5.21,5.21,0,0,0,2.48,2.81,11.39,11.39,0,0,0,5.07,1h.65c2.75,0,4.9-.43,6.31-1.34a3.29,3.29,0,0,0,1.72-3.08,3.24,3.24,0,0,0-1.72-3c-1.41-.92-3.56-1.35-6.31-1.35a15.86,15.86,0,0,1-8.2-1.83,7.07,7.07,0,0,1,0-12,15.86,15.86,0,0,1,8.2-1.83Z"/><path class="cls-1" d="M1300.92,84.14a8.67,8.67,0,0,1,4.1,4.53l-3.24,1.3a5.25,5.25,0,0,0-2.48-2.81,11.28,11.28,0,0,0-5-1c-2.7,0-4.81.59-6.15,1.78a6.41,6.41,0,0,0-2,5.07v7.33a6.4,6.4,0,0,0,2,5.07c1.34,1.19,3.45,1.78,6.15,1.78a11.14,11.14,0,0,0,5-1,5.21,5.21,0,0,0,2.48-2.81l3.24,1.3a8.6,8.6,0,0,1-4.1,4.53,13.88,13.88,0,0,1-6.63,1.46c-3.57,0-6.42-.92-8.42-2.65a9.75,9.75,0,0,1-3.13-7.66V93a9.75,9.75,0,0,1,3.13-7.66c2-1.73,4.85-2.64,8.42-2.64A13.88,13.88,0,0,1,1300.92,84.14Z"/><path class="cls-1" d="M1316,75.13a2.27,2.27,0,1,1-2.27-2.26A2.22,2.22,0,0,1,1316,75.13Zm-4,35.5V82.69h3.46v27.94Z"/><path class="cls-1" d="M1343.48,85.38a9.73,9.73,0,0,1,3.13,7.61v7.33a9.75,9.75,0,0,1-3.13,7.66c-2,1.78-4.8,2.65-8.36,2.65-3.4,0-6.09-.76-8.09-2.38v12.19h-3.45V82.69H1327v2.42a12.47,12.47,0,0,1,8.09-2.42C1338.68,82.69,1341.49,83.6,1343.48,85.38ZM1329,88a6.33,6.33,0,0,0-1.94,5v7.33a6.36,6.36,0,0,0,1.94,5.07c1.35,1.19,3.45,1.78,6.15,1.78s4.75-.59,6.1-1.78a6.36,6.36,0,0,0,1.94-5.07V93a6.33,6.33,0,0,0-1.94-5c-1.35-1.19-3.4-1.83-6.1-1.83S1330.32,86.78,1329,88Z"/><path class="cls-1" d="M1356,100.32a9.5,9.5,0,0,0,1.24,5.34,3.64,3.64,0,0,0,3.18,1.51v3.46a7.08,7.08,0,0,1-6-3,12.52,12.52,0,0,1-1.88-7.34V72.87H1356Z"/><path class="cls-1" d="M1370.89,75.13a2.27,2.27,0,1,1-2.27-2.26A2.21,2.21,0,0,1,1370.89,75.13Zm-4,35.5V82.69h3.45v27.94Z"/><path class="cls-1" d="M1398.34,85.33a9.75,9.75,0,0,1,3.13,7.66v17.64H1398V93a6.44,6.44,0,0,0-1.94-5.07c-1.35-1.19-3.4-1.78-6.1-1.78s-4.8.59-6.15,1.78a6.44,6.44,0,0,0-1.94,5.07v17.64h-3.45V82.69h3.45v2.37a12.75,12.75,0,0,1,8.09-2.37C1393.54,82.69,1396.35,83.6,1398.34,85.33Z"/><path class="cls-1" d="M1419,82.69a12.67,12.67,0,0,1,8.42,2.64,9.75,9.75,0,0,1,3.12,7.66v17.64H1427v-2.38a12.73,12.73,0,0,1-8.09,2.38h-1.24a12.76,12.76,0,0,1-7.34-1.89,7.48,7.48,0,0,1,0-11.92,12.76,12.76,0,0,1,7.34-1.89H1427V93a6.47,6.47,0,0,0-2-5.07c-1.35-1.19-3.4-1.78-6.1-1.78h0a9.52,9.52,0,0,0-5.83,1.56,5.93,5.93,0,0,0-2.21,4.26l-3.4-.37A9.19,9.19,0,0,1,1411,85a12.8,12.8,0,0,1,7.93-2.26Zm-1.24,15.69a9.64,9.64,0,0,0-5.34,1.24,4.05,4.05,0,0,0,0,6.31,9.64,9.64,0,0,0,5.34,1.24H1419c2.7,0,4.75-.59,6.1-1.78a6.45,6.45,0,0,0,2-5.07V98.38Z"/><path class="cls-1" d="M1449.59,86.14c-2.7,0-4.8.59-6.15,1.78A6.44,6.44,0,0,0,1441.5,93v17.64h-3.45V82.69h3.45v2.37a12.75,12.75,0,0,1,8.09-2.37H1452v3.45Z"/><path class="cls-1" d="M1479.91,110.14a9.75,9.75,0,0,1-3.13,7.66c-2,1.73-4.8,2.64-8.36,2.64h-.65a14,14,0,0,1-6.69-1.45,8.67,8.67,0,0,1-4.1-4.53l3.24-1.3a5.25,5.25,0,0,0,2.48,2.81,11.52,11.52,0,0,0,5.07,1h.65c2.69,0,4.74-.59,6.09-1.78a6.41,6.41,0,0,0,1.94-5.07v-1.89c-2,1.62-4.69,2.38-8,2.38-3.56,0-6.42-.87-8.42-2.65a9.75,9.75,0,0,1-3.13-7.66V82.69h3.46v17.63a6.32,6.32,0,0,0,1.94,5.07c1.35,1.19,3.45,1.78,6.15,1.78s4.74-.59,6.09-1.78a6.32,6.32,0,0,0,1.94-5.07V82.69h3.46Z"/><path class="cls-1" d="M23,175.36H19.58V173a12.81,12.81,0,0,1-8.09,2.37c-3.56,0-6.36-.92-8.36-2.64A9.77,9.77,0,0,1,0,165.06v-7.34a9.77,9.77,0,0,1,3.13-7.66c2-1.72,4.8-2.64,8.36-2.64a12.81,12.81,0,0,1,8.09,2.37V137.6H23ZM5.39,152.65a6.44,6.44,0,0,0-1.94,5.07v7.34a6.46,6.46,0,0,0,1.94,5.07c1.35,1.18,3.4,1.78,6.1,1.78s4.8-.6,6.15-1.78a6.46,6.46,0,0,0,1.94-5.07v-7.34a6.44,6.44,0,0,0-1.94-5.07c-1.35-1.19-3.45-1.78-6.15-1.78S6.74,151.46,5.39,152.65Z"/><path class="cls-1" d="M49.41,150.06a9.77,9.77,0,0,1,3.13,7.66v5.4H33v1.94a6.46,6.46,0,0,0,1.94,5.07c1.35,1.18,3.45,1.78,6.15,1.78h.65a11.1,11.1,0,0,0,5-1,5.55,5.55,0,0,0,2.54-2.8l3.18,1.29a8.56,8.56,0,0,1-4.1,4.53,13.85,13.85,0,0,1-6.63,1.46h-.65c-3.56,0-6.42-.92-8.41-2.64a9.77,9.77,0,0,1-3.13-7.66v-7.34a9.77,9.77,0,0,1,3.13-7.66c2-1.72,4.85-2.64,8.41-2.64S47.42,148.34,49.41,150.06ZM34.9,152.65A6.44,6.44,0,0,0,33,157.72v1.94H49.09v-1.94a6.44,6.44,0,0,0-1.94-5.07c-1.35-1.19-3.4-1.78-6.1-1.78S36.25,151.46,34.9,152.65Z"/><path class="cls-1" d="M69.59,147.42a13.85,13.85,0,0,1,6.63,1.46,8.56,8.56,0,0,1,4.1,4.53l-3.18,1.29a5.55,5.55,0,0,0-2.54-2.8,11.1,11.1,0,0,0-5-1h-.65c-2.8,0-5,.43-6.36,1.35a3.23,3.23,0,0,0-1.73,3,3.28,3.28,0,0,0,1.73,3.08c1.4.91,3.56,1.34,6.36,1.34a15.71,15.71,0,0,1,8.15,1.84,7.09,7.09,0,0,1,0,12,15.81,15.81,0,0,1-8.15,1.83h-.65a13.9,13.9,0,0,1-6.68-1.46,8.52,8.52,0,0,1-4.1-4.53l3.23-1.29a5.27,5.27,0,0,0,2.48,2.8,11.41,11.41,0,0,0,5.07,1h.65c2.75,0,4.91-.43,6.31-1.35a3.55,3.55,0,0,0,0-6.1c-1.4-.91-3.56-1.34-6.31-1.34a15.88,15.88,0,0,1-8.2-1.84,7.09,7.09,0,0,1,0-12,16,16,0,0,1,8.2-1.83Z"/><path class="cls-1" d="M91.44,139.87a2.27,2.27,0,1,1-2.27-2.27A2.22,2.22,0,0,1,91.44,139.87Zm-4,35.49V147.42H90.9v27.94Z"/><path class="cls-1" d="M120.94,174.87a9.75,9.75,0,0,1-3.13,7.66c-2,1.73-4.8,2.65-8.36,2.65h-.64a13.94,13.94,0,0,1-6.69-1.46,8.6,8.6,0,0,1-4.1-4.53l3.23-1.29a5.29,5.29,0,0,0,2.49,2.8,11.38,11.38,0,0,0,5.07,1h.64c2.7,0,4.75-.6,6.1-1.78a6.46,6.46,0,0,0,1.94-5.08V173c-2,1.62-4.69,2.37-8,2.37-3.56,0-6.41-.86-8.41-2.64a9.77,9.77,0,0,1-3.13-7.66v-7.34a9.71,9.71,0,0,1,3.13-7.6c2-1.78,4.85-2.7,8.41-2.7a12.4,12.4,0,0,1,8,2.43v-2.43h3.45ZM103.3,152.71a6.31,6.31,0,0,0-1.94,5v7.34a6.38,6.38,0,0,0,1.94,5.07c1.35,1.18,3.46,1.78,6.15,1.78s4.75-.6,6.1-1.78a6.38,6.38,0,0,0,1.94-5.07v-7.34a6.31,6.31,0,0,0-1.94-5,9,9,0,0,0-6.1-1.84A9.2,9.2,0,0,0,103.3,152.71Z"/><path class="cls-1" d="M148.4,150.06a9.77,9.77,0,0,1,3.13,7.66v17.64h-3.45V157.72a6.41,6.41,0,0,0-2-5.07c-1.34-1.19-3.39-1.78-6.09-1.78s-4.8.59-6.15,1.78a6.44,6.44,0,0,0-1.94,5.07v17.64H128.5V147.42H132v2.37a12.79,12.79,0,0,1,8.09-2.37C143.6,147.42,146.4,148.34,148.4,150.06Z"/><path class="cls-1" d="M177.37,150.06a9.77,9.77,0,0,1,3.13,7.66v5.4H160.92v1.94a6.42,6.42,0,0,0,1.94,5.07c1.35,1.18,3.45,1.78,6.15,1.78h.64a11.15,11.15,0,0,0,5-1,5.55,5.55,0,0,0,2.54-2.8l3.18,1.29a8.6,8.6,0,0,1-4.1,4.53,13.9,13.9,0,0,1-6.64,1.46H169c-3.56,0-6.42-.92-8.42-2.64a9.77,9.77,0,0,1-3.13-7.66v-7.34a9.77,9.77,0,0,1,3.13-7.66c2-1.72,4.86-2.64,8.42-2.64S175.37,148.34,177.37,150.06Zm-14.51,2.59a6.41,6.41,0,0,0-1.94,5.07v1.94H177v-1.94a6.41,6.41,0,0,0-1.94-5.07c-1.35-1.19-3.4-1.78-6.09-1.78S164.21,151.46,162.86,152.65Z"/><path class="cls-1" d="M198.52,150.87c-2.7,0-4.81.59-6.15,1.78a6.41,6.41,0,0,0-2,5.07v17.64H187V147.42h3.45v2.37a12.84,12.84,0,0,1,8.1-2.37h2.42v3.45Z"/><path class="cls-1" d="M231.55,147.42a12.69,12.69,0,0,1,8.41,2.64,9.77,9.77,0,0,1,3.13,7.66v17.64h-3.45V173a12.81,12.81,0,0,1-8.09,2.37h-1.24a12.74,12.74,0,0,1-7.34-1.89,7.48,7.48,0,0,1,0-11.92,12.74,12.74,0,0,1,7.34-1.89h9.33v-1.94a6.44,6.44,0,0,0-2-5.07c-1.34-1.19-3.39-1.78-6.09-1.78h-.05a9.46,9.46,0,0,0-5.83,1.57,5.86,5.86,0,0,0-2.21,4.26l-3.4-.38a9.21,9.21,0,0,1,3.51-6.64,12.8,12.8,0,0,1,7.93-2.26Zm-1.24,15.7a9.64,9.64,0,0,0-5.34,1.24,3.61,3.61,0,0,0-1.51,3.13,3.65,3.65,0,0,0,1.51,3.18,9.64,9.64,0,0,0,5.34,1.24h1.24c2.7,0,4.75-.6,6.09-1.78a6.45,6.45,0,0,0,2-5.07v-1.94Z"/><path class="cls-1" d="M270.55,150.06a9.77,9.77,0,0,1,3.13,7.66v17.64h-3.45V157.72a6.44,6.44,0,0,0-1.94-5.07c-1.35-1.19-3.4-1.78-6.1-1.78s-4.8.59-6.15,1.78a6.44,6.44,0,0,0-1.94,5.07v17.64h-3.45V147.42h3.45v2.37a12.79,12.79,0,0,1,8.09-2.37C265.75,147.42,268.55,148.34,270.55,150.06Z"/><path class="cls-1" d="M302.65,175.36h-3.46V173a12.79,12.79,0,0,1-8.09,2.37c-3.56,0-6.36-.92-8.36-2.64a9.77,9.77,0,0,1-3.13-7.66v-7.34a9.77,9.77,0,0,1,3.13-7.66c2-1.72,4.8-2.64,8.36-2.64a12.79,12.79,0,0,1,8.09,2.37V137.6h3.46ZM285,152.65a6.41,6.41,0,0,0-1.94,5.07v7.34a6.42,6.42,0,0,0,1.94,5.07c1.35,1.18,3.4,1.78,6.09,1.78s4.8-.6,6.15-1.78a6.42,6.42,0,0,0,1.94-5.07v-7.34a6.41,6.41,0,0,0-1.94-5.07c-1.35-1.19-3.45-1.78-6.15-1.78S286.36,151.46,285,152.65Z"/><path class="cls-1" d="M344.74,175.36h-3.45V173a12.79,12.79,0,0,1-8.09,2.37c-3.56,0-6.36-.92-8.36-2.64a9.77,9.77,0,0,1-3.13-7.66v-7.34a9.77,9.77,0,0,1,3.13-7.66c2-1.72,4.8-2.64,8.36-2.64a12.79,12.79,0,0,1,8.09,2.37V137.6h3.45Zm-17.63-22.71a6.41,6.41,0,0,0-1.95,5.07v7.34a6.43,6.43,0,0,0,1.95,5.07c1.35,1.18,3.39,1.78,6.09,1.78s4.8-.6,6.15-1.78a6.42,6.42,0,0,0,1.94-5.07v-7.34a6.41,6.41,0,0,0-1.94-5.07c-1.35-1.19-3.45-1.78-6.15-1.78S328.46,151.46,327.11,152.65Z"/><path class="cls-1" d="M356.83,139.87a2.27,2.27,0,1,1-2.27-2.27A2.21,2.21,0,0,1,356.83,139.87Zm-4,35.49V147.42h3.45v27.94Z"/><path class="cls-1" d="M386.33,174.87a9.75,9.75,0,0,1-3.12,7.66c-2,1.73-4.8,2.65-8.36,2.65h-.65a14,14,0,0,1-6.69-1.46,8.6,8.6,0,0,1-4.1-4.53l3.24-1.29a5.23,5.23,0,0,0,2.48,2.8,11.38,11.38,0,0,0,5.07,1h.65c2.69,0,4.74-.6,6.09-1.78a6.43,6.43,0,0,0,1.94-5.08V173c-2,1.62-4.69,2.37-8,2.37-3.56,0-6.42-.86-8.42-2.64a9.77,9.77,0,0,1-3.13-7.66v-7.34a9.71,9.71,0,0,1,3.13-7.6c2-1.78,4.86-2.7,8.42-2.7a12.39,12.39,0,0,1,8,2.43v-2.43h3.45ZM368.7,152.71a6.28,6.28,0,0,0-1.95,5v7.34a6.36,6.36,0,0,0,1.95,5.07c1.35,1.18,3.45,1.78,6.15,1.78s4.74-.6,6.09-1.78a6.35,6.35,0,0,0,1.94-5.07v-7.34a6.27,6.27,0,0,0-1.94-5,9,9,0,0,0-6.09-1.84A9.18,9.18,0,0,0,368.7,152.71Z"/><path class="cls-1" d="M398.42,139.87a2.27,2.27,0,1,1-2.27-2.27A2.21,2.21,0,0,1,398.42,139.87Zm-4,35.49V147.42h3.45v27.94Z"/><path class="cls-1" d="M420.27,147.42v3.45h-8v14.19a6.46,6.46,0,0,0,1.94,5.07c1.35,1.18,3.4,1.78,6.1,1.78v3.45a12.72,12.72,0,0,1-8.42-2.64,9.93,9.93,0,0,1-3.07-7.66V150.87h-4.43v-3.45h4.43V137.6h3.45v9.82Z"/><path class="cls-1" d="M436.67,147.42a12.69,12.69,0,0,1,8.41,2.64,9.77,9.77,0,0,1,3.13,7.66v17.64h-3.45V173a12.81,12.81,0,0,1-8.09,2.37h-1.24a12.74,12.74,0,0,1-7.34-1.89,7.47,7.47,0,0,1,0-11.92,12.74,12.74,0,0,1,7.34-1.89h9.33v-1.94a6.44,6.44,0,0,0-2-5.07c-1.35-1.19-3.4-1.78-6.09-1.78h-.06a9.44,9.44,0,0,0-5.82,1.57,5.86,5.86,0,0,0-2.21,4.26l-3.4-.38a9.23,9.23,0,0,1,3.5-6.64,12.82,12.82,0,0,1,7.93-2.26Zm-1.24,15.7a9.62,9.62,0,0,0-5.34,1.24,3.61,3.61,0,0,0-1.51,3.13,3.65,3.65,0,0,0,1.51,3.18,9.62,9.62,0,0,0,5.34,1.24h1.24c2.69,0,4.74-.6,6.09-1.78a6.45,6.45,0,0,0,2-5.07v-1.94Z"/><path class="cls-1" d="M458.14,165.06a9.5,9.5,0,0,0,1.24,5.34,3.66,3.66,0,0,0,3.18,1.51v3.45a7,7,0,0,1-6-3c-1.25-1.72-1.89-4.2-1.89-7.33V137.6h3.45Z"/><path class="cls-1" d="M493.17,147.42a12.69,12.69,0,0,1,8.41,2.64,9.77,9.77,0,0,1,3.13,7.66v17.64h-3.45V173a12.81,12.81,0,0,1-8.09,2.37h-1.24a12.74,12.74,0,0,1-7.34-1.89,7.48,7.48,0,0,1,0-11.92,12.74,12.74,0,0,1,7.34-1.89h9.33v-1.94a6.44,6.44,0,0,0-2-5.07c-1.34-1.19-3.39-1.78-6.09-1.78h-.06a9.44,9.44,0,0,0-5.82,1.57,5.86,5.86,0,0,0-2.21,4.26l-3.4-.38a9.21,9.21,0,0,1,3.51-6.64,12.77,12.77,0,0,1,7.92-2.26Zm-1.24,15.7a9.62,9.62,0,0,0-5.34,1.24,3.61,3.61,0,0,0-1.51,3.13,3.65,3.65,0,0,0,1.51,3.18,9.62,9.62,0,0,0,5.34,1.24h1.24c2.7,0,4.75-.6,6.09-1.78a6.45,6.45,0,0,0,2-5.07v-1.94Z"/><path class="cls-1" d="M523.81,150.87c-2.7,0-4.8.59-6.15,1.78a6.44,6.44,0,0,0-1.94,5.07v17.64h-3.45V147.42h3.45v2.37a12.79,12.79,0,0,1,8.09-2.37h2.43v3.45Z"/><path class="cls-1" d="M545.93,147.42v3.45h-8v14.19a6.46,6.46,0,0,0,1.94,5.07c1.35,1.18,3.4,1.78,6.1,1.78v3.45a12.72,12.72,0,0,1-8.42-2.64,9.93,9.93,0,0,1-3.07-7.66V150.87H530v-3.45h4.43V137.6h3.45v9.82Z"/><path class="cls-1" d="M556.93,139.87a2.27,2.27,0,1,1-2.26-2.27A2.21,2.21,0,0,1,556.93,139.87Zm-4,35.49V147.42h3.45v27.94Z"/><path class="cls-1" d="M575.6,147.42a13.85,13.85,0,0,1,6.63,1.46,8.6,8.6,0,0,1,4.1,4.53l-3.18,1.29a5.55,5.55,0,0,0-2.54-2.8,11.1,11.1,0,0,0-5-1H575c-2.81,0-5,.43-6.37,1.35a3.24,3.24,0,0,0-1.72,3,3.29,3.29,0,0,0,1.72,3.08c1.41.91,3.56,1.34,6.37,1.34a15.65,15.65,0,0,1,8.14,1.84,7.07,7.07,0,0,1,0,12,15.75,15.75,0,0,1-8.14,1.83h-.65a14,14,0,0,1-6.69-1.46,8.6,8.6,0,0,1-4.1-4.53l3.24-1.29a5.27,5.27,0,0,0,2.48,2.8,11.41,11.41,0,0,0,5.07,1H575c2.75,0,4.91-.43,6.31-1.35a3.55,3.55,0,0,0,0-6.1c-1.4-.91-3.56-1.34-6.31-1.34a15.88,15.88,0,0,1-8.2-1.84,7.09,7.09,0,0,1,0-12,16,16,0,0,1,8.2-1.83Z"/><path class="cls-1" d="M606.13,147.42v3.45h-8v14.19a6.46,6.46,0,0,0,1.94,5.07c1.35,1.18,3.4,1.78,6.1,1.78v3.45a12.72,12.72,0,0,1-8.42-2.64,9.93,9.93,0,0,1-3.07-7.66V150.87h-4.42v-3.45h4.42V137.6h3.45v9.82Z"/><path class="cls-1" d="M637.38,147.42a13.9,13.9,0,0,1,6.64,1.46,8.6,8.6,0,0,1,4.1,4.53l-3.18,1.29a5.55,5.55,0,0,0-2.54-2.8,11.15,11.15,0,0,0-5-1h-.64c-2.81,0-5,.43-6.37,1.35a3.24,3.24,0,0,0-1.72,3,3.29,3.29,0,0,0,1.72,3.08c1.4.91,3.56,1.34,6.37,1.34a15.65,15.65,0,0,1,8.14,1.84,7.07,7.07,0,0,1,0,12,15.75,15.75,0,0,1-8.14,1.83h-.65a14,14,0,0,1-6.69-1.46,8.6,8.6,0,0,1-4.1-4.53l3.24-1.29a5.19,5.19,0,0,0,2.48,2.8,11.38,11.38,0,0,0,5.07,1h.65c2.75,0,4.91-.43,6.31-1.35a3.56,3.56,0,0,0,0-6.1c-1.4-.91-3.56-1.34-6.31-1.34a15.86,15.86,0,0,1-8.2-1.84,7.07,7.07,0,0,1,0-12,16,16,0,0,1,8.2-1.83Z"/><path class="cls-1" d="M674.07,150.12a9.7,9.7,0,0,1,3.12,7.6v7.34a9.76,9.76,0,0,1-3.12,7.66c-2,1.78-4.81,2.64-8.36,2.64s-6.1-.75-8.1-2.37v12.19h-3.45V147.42h3.45v2.43a12.5,12.5,0,0,1,8.1-2.43C669.26,147.42,672.07,148.34,674.07,150.12Zm-14.51,2.59a6.28,6.28,0,0,0-1.95,5v7.34a6.36,6.36,0,0,0,1.95,5.07c1.34,1.18,3.45,1.78,6.15,1.78s4.74-.6,6.09-1.78a6.38,6.38,0,0,0,1.94-5.07v-7.34a6.31,6.31,0,0,0-1.94-5,9,9,0,0,0-6.09-1.84C663,150.87,660.9,151.52,659.56,152.71Z"/><path class="cls-1" d="M702,150.06a9.77,9.77,0,0,1,3.13,7.66v5.4H685.5v1.94a6.46,6.46,0,0,0,1.94,5.07c1.35,1.18,3.46,1.78,6.15,1.78h.65a11.18,11.18,0,0,0,5-1,5.58,5.58,0,0,0,2.53-2.8l3.18,1.29a8.54,8.54,0,0,1-4.09,4.53,13.92,13.92,0,0,1-6.64,1.46h-.65c-3.56,0-6.42-.92-8.41-2.64a9.77,9.77,0,0,1-3.13-7.66v-7.34a9.77,9.77,0,0,1,3.13-7.66c2-1.72,4.85-2.64,8.41-2.64S700,148.34,702,150.06Zm-14.51,2.59a6.44,6.44,0,0,0-1.94,5.07v1.94h16.13v-1.94a6.44,6.44,0,0,0-1.94-5.07c-1.35-1.19-3.4-1.78-6.1-1.78S688.79,151.46,687.44,152.65Z"/><path class="cls-1" d="M728.12,148.88a8.6,8.6,0,0,1,4.1,4.53L729,154.7a5.19,5.19,0,0,0-2.48-2.8,11.15,11.15,0,0,0-5-1c-2.69,0-4.8.59-6.15,1.78a6.44,6.44,0,0,0-1.94,5.07v7.34a6.46,6.46,0,0,0,1.94,5.07c1.35,1.18,3.46,1.78,6.15,1.78a11.15,11.15,0,0,0,5-1,5.19,5.19,0,0,0,2.48-2.8l3.24,1.29a8.6,8.6,0,0,1-4.1,4.53,13.9,13.9,0,0,1-6.64,1.46c-3.56,0-6.42-.92-8.41-2.64a9.77,9.77,0,0,1-3.13-7.66v-7.34a9.77,9.77,0,0,1,3.13-7.66c2-1.72,4.85-2.64,8.41-2.64A13.9,13.9,0,0,1,728.12,148.88Z"/><path class="cls-1" d="M743.22,139.87A2.27,2.27,0,1,1,741,137.6,2.21,2.21,0,0,1,743.22,139.87Zm-4,35.49V147.42h3.45v27.94Z"/><path class="cls-1" d="M761.24,147.42a12.72,12.72,0,0,1,8.42,2.64,9.77,9.77,0,0,1,3.13,7.66v17.64h-3.46V173a12.79,12.79,0,0,1-8.09,2.37H760a12.72,12.72,0,0,1-7.33-1.89,7.47,7.47,0,0,1,0-11.92,12.72,12.72,0,0,1,7.33-1.89h9.33v-1.94a6.47,6.47,0,0,0-2-5.07c-1.35-1.19-3.4-1.78-6.1-1.78h0a9.46,9.46,0,0,0-5.83,1.57,5.89,5.89,0,0,0-2.21,4.26l-3.4-.38a9.21,9.21,0,0,1,3.51-6.64,12.8,12.8,0,0,1,7.93-2.26ZM760,163.12a9.64,9.64,0,0,0-5.34,1.24,3.63,3.63,0,0,0-1.51,3.13,3.68,3.68,0,0,0,1.51,3.18,9.64,9.64,0,0,0,5.34,1.24h1.24c2.7,0,4.75-.6,6.1-1.78a6.48,6.48,0,0,0,2-5.07v-1.94Z"/><path class="cls-1" d="M782.71,165.06A9.5,9.5,0,0,0,784,170.4a3.68,3.68,0,0,0,3.19,1.51v3.45a7,7,0,0,1-6-3,12.46,12.46,0,0,1-1.89-7.33V137.6h3.45Z"/><path class="cls-1" d="M797.6,139.87a2.27,2.27,0,1,1-2.27-2.27A2.21,2.21,0,0,1,797.6,139.87Zm-4,35.49V147.42h3.45v27.94Z"/><path class="cls-1" d="M809,171.91h18.17v3.45H805.15V171l18.18-20.17H805.15v-3.45h22.06v4.31Z"/><path class="cls-1" d="M852,150.06a9.76,9.76,0,0,1,3.12,7.66v5.4H835.52v1.94a6.43,6.43,0,0,0,2,5.07c1.35,1.18,3.45,1.78,6.15,1.78h.64a11.15,11.15,0,0,0,5-1,5.49,5.49,0,0,0,2.53-2.8l3.19,1.29a8.6,8.6,0,0,1-4.1,4.53,13.9,13.9,0,0,1-6.64,1.46h-.64c-3.56,0-6.42-.92-8.42-2.64a9.77,9.77,0,0,1-3.13-7.66v-7.34a9.77,9.77,0,0,1,3.13-7.66c2-1.72,4.86-2.64,8.42-2.64S850,148.34,852,150.06Zm-14.51,2.59a6.41,6.41,0,0,0-2,5.07v1.94h16.13v-1.94a6.41,6.41,0,0,0-1.94-5.07c-1.35-1.19-3.4-1.78-6.09-1.78S838.82,151.46,837.47,152.65Z"/><path class="cls-1" d="M883,175.36h-3.45V173a12.79,12.79,0,0,1-8.09,2.37c-3.56,0-6.36-.92-8.36-2.64a9.77,9.77,0,0,1-3.13-7.66v-7.34a9.77,9.77,0,0,1,3.13-7.66c2-1.72,4.8-2.64,8.36-2.64a12.79,12.79,0,0,1,8.09,2.37V137.6H883Zm-17.63-22.71a6.41,6.41,0,0,0-2,5.07v7.34a6.43,6.43,0,0,0,2,5.07c1.35,1.18,3.39,1.78,6.09,1.78s4.8-.6,6.15-1.78a6.42,6.42,0,0,0,1.94-5.07v-7.34a6.41,6.41,0,0,0-1.94-5.07c-1.35-1.19-3.45-1.78-6.15-1.78S866.71,151.46,865.36,152.65Z"/><path class="cls-1" d="M906.59,139.87a2.27,2.27,0,1,1-2.26-2.27A2.21,2.21,0,0,1,906.59,139.87Zm-4,35.49V147.42h3.45v27.94Z"/><path class="cls-1" d="M934.05,150.06a9.77,9.77,0,0,1,3.13,7.66v17.64h-3.46V157.72a6.41,6.41,0,0,0-1.94-5.07c-1.35-1.19-3.4-1.78-6.09-1.78s-4.8.59-6.15,1.78a6.41,6.41,0,0,0-1.94,5.07v17.64h-3.46V147.42h3.46v2.37a12.79,12.79,0,0,1,8.09-2.37C929.25,147.42,932.05,148.34,934.05,150.06Z"/><path class="cls-1" d="M967.41,175.36l-11.17-27.94H960L968.59,169l8.63-21.57H981l-11.17,27.94Z"/><path class="cls-1" d="M990.33,139.87a2.27,2.27,0,1,1-2.26-2.27A2.21,2.21,0,0,1,990.33,139.87Zm-4,35.49V147.42h3.45v27.94Z"/><path class="cls-1" d="M1009,147.42a13.85,13.85,0,0,1,6.63,1.46,8.56,8.56,0,0,1,4.1,4.53l-3.18,1.29a5.55,5.55,0,0,0-2.54-2.8,11.1,11.1,0,0,0-5-1h-.65c-2.8,0-5,.43-6.36,1.35a3.23,3.23,0,0,0-1.73,3,3.28,3.28,0,0,0,1.73,3.08c1.4.91,3.56,1.34,6.36,1.34a15.71,15.71,0,0,1,8.15,1.84,7.09,7.09,0,0,1,0,12,15.81,15.81,0,0,1-8.15,1.83h-.65a13.9,13.9,0,0,1-6.68-1.46,8.52,8.52,0,0,1-4.1-4.53l3.23-1.29a5.27,5.27,0,0,0,2.48,2.8,11.41,11.41,0,0,0,5.07,1h.65c2.75,0,4.91-.43,6.31-1.35a3.55,3.55,0,0,0,0-6.1c-1.4-.91-3.56-1.34-6.31-1.34a15.88,15.88,0,0,1-8.2-1.84,7.09,7.09,0,0,1,0-12,16,16,0,0,1,8.2-1.83Z"/><path class="cls-1" d="M1044.33,175.36V173a14.85,14.85,0,0,1-16.5-.27,9.77,9.77,0,0,1-3.13-7.66V147.42h3.45v17.64a6.45,6.45,0,0,0,2,5.07c1.34,1.18,3.39,1.78,6.09,1.78s4.75-.6,6.1-1.78a6.48,6.48,0,0,0,2-5.07V147.42h3.45v27.94Z"/><path class="cls-1" d="M1065.8,147.42a12.72,12.72,0,0,1,8.42,2.64,9.77,9.77,0,0,1,3.13,7.66v17.64h-3.46V173a12.79,12.79,0,0,1-8.09,2.37h-1.24a12.72,12.72,0,0,1-7.33-1.89,7.47,7.47,0,0,1,0-11.92,12.72,12.72,0,0,1,7.33-1.89h9.33v-1.94a6.47,6.47,0,0,0-2-5.07c-1.35-1.19-3.4-1.78-6.1-1.78h0a9.46,9.46,0,0,0-5.83,1.57,5.89,5.89,0,0,0-2.21,4.26l-3.4-.38a9.21,9.21,0,0,1,3.51-6.64,12.82,12.82,0,0,1,7.93-2.26Zm-1.24,15.7a9.64,9.64,0,0,0-5.34,1.24,3.63,3.63,0,0,0-1.51,3.13,3.68,3.68,0,0,0,1.51,3.18,9.64,9.64,0,0,0,5.34,1.24h1.24c2.7,0,4.75-.6,6.1-1.78a6.48,6.48,0,0,0,2-5.07v-1.94Z"/><path class="cls-1" d="M1087.27,165.06a9.5,9.5,0,0,0,1.25,5.34,3.66,3.66,0,0,0,3.18,1.51v3.45a7,7,0,0,1-6-3,12.46,12.46,0,0,1-1.89-7.33V137.6h3.45Z"/><path class="cls-1" d="M1128.94,148.88a8.6,8.6,0,0,1,4.1,4.53l-3.24,1.29a5.19,5.19,0,0,0-2.48-2.8,11.13,11.13,0,0,0-5-1c-2.7,0-4.81.59-6.15,1.78a6.41,6.41,0,0,0-2,5.07v7.34a6.43,6.43,0,0,0,2,5.07c1.34,1.18,3.45,1.78,6.15,1.78a11.13,11.13,0,0,0,5-1,5.19,5.19,0,0,0,2.48-2.8l3.24,1.29a8.6,8.6,0,0,1-4.1,4.53,13.88,13.88,0,0,1-6.63,1.46c-3.56,0-6.42-.92-8.42-2.64a9.77,9.77,0,0,1-3.13-7.66v-7.34a9.77,9.77,0,0,1,3.13-7.66c2-1.72,4.86-2.64,8.42-2.64A13.88,13.88,0,0,1,1128.94,148.88Z"/><path class="cls-1" d="M1157.8,150.06a9.77,9.77,0,0,1,3.13,7.66v7.34a9.77,9.77,0,0,1-3.13,7.66c-2,1.72-4.8,2.64-8.36,2.64s-6.42-.92-8.42-2.64a9.76,9.76,0,0,1-3.12-7.66v-7.34a9.76,9.76,0,0,1,3.12-7.66c2-1.72,4.86-2.64,8.42-2.64S1155.8,148.34,1157.8,150.06Zm-14.51,2.59a6.44,6.44,0,0,0-1.94,5.07v7.34a6.46,6.46,0,0,0,1.94,5.07c1.35,1.18,3.45,1.78,6.15,1.78s4.75-.6,6.09-1.78a6.43,6.43,0,0,0,2-5.07v-7.34a6.41,6.41,0,0,0-2-5.07c-1.34-1.19-3.39-1.78-6.09-1.78S1144.64,151.46,1143.29,152.65Z"/><path class="cls-1" d="M1206.89,150.06a9.77,9.77,0,0,1,3.13,7.66v17.64h-3.46V157.72a6.41,6.41,0,0,0-1.94-5.07c-1.35-1.19-3.4-1.78-6.09-1.78s-4.75.59-6.15,1.78a6.41,6.41,0,0,0-1.94,5.07v17.64H1187V157.72a6.41,6.41,0,0,0-1.94-5.07c-1.35-1.19-3.4-1.78-6.09-1.78s-4.8.59-6.15,1.78a6.41,6.41,0,0,0-1.94,5.07v17.64h-3.46V147.42h3.46v2.37a12.79,12.79,0,0,1,8.09-2.37c3.56,0,6.36.92,8.36,2.64a9.68,9.68,0,0,1,1.4,1.57,12.8,12.8,0,0,1,1.4-1.57c2-1.72,4.86-2.64,8.42-2.64S1204.89,148.34,1206.89,150.06Z"/><path class="cls-1" d="M1257.06,150.06a9.77,9.77,0,0,1,3.13,7.66v17.64h-3.46V157.72a6.41,6.41,0,0,0-1.94-5.07c-1.35-1.19-3.4-1.78-6.09-1.78s-4.75.59-6.15,1.78a6.41,6.41,0,0,0-2,5.07v17.64h-3.45V157.72a6.41,6.41,0,0,0-1.94-5.07c-1.35-1.19-3.4-1.78-6.09-1.78s-4.8.59-6.15,1.78a6.41,6.41,0,0,0-2,5.07v17.64h-3.45V147.42H1221v2.37a12.84,12.84,0,0,1,8.1-2.37c3.56,0,6.36.92,8.36,2.64a9.68,9.68,0,0,1,1.4,1.57,12.8,12.8,0,0,1,1.4-1.57c2-1.72,4.86-2.64,8.42-2.64S1255.06,148.34,1257.06,150.06Z"/><path class="cls-1" d="M1286.3,175.36V173a14.87,14.87,0,0,1-16.51-.27,9.77,9.77,0,0,1-3.13-7.66V147.42h3.46v17.64a6.48,6.48,0,0,0,2,5.07c1.35,1.18,3.4,1.78,6.1,1.78s4.74-.6,6.09-1.78a6.45,6.45,0,0,0,2-5.07V147.42h3.45v27.94Z"/><path class="cls-1" d="M1317.21,150.06a9.77,9.77,0,0,1,3.13,7.66v17.64h-3.46V157.72a6.41,6.41,0,0,0-1.94-5.07c-1.35-1.19-3.4-1.78-6.09-1.78s-4.8.59-6.15,1.78a6.41,6.41,0,0,0-1.94,5.07v17.64h-3.46V147.42h3.46v2.37a12.79,12.79,0,0,1,8.09-2.37C1312.41,147.42,1315.21,148.34,1317.21,150.06Z"/><path class="cls-1" d="M1332.42,139.87a2.27,2.27,0,1,1-2.26-2.27A2.21,2.21,0,0,1,1332.42,139.87Zm-4,35.49V147.42h3.45v27.94Z"/><path class="cls-1" d="M1357.07,148.88a8.56,8.56,0,0,1,4.1,4.53l-3.23,1.29a5.27,5.27,0,0,0-2.48-2.8,11.18,11.18,0,0,0-5-1c-2.7,0-4.8.59-6.15,1.78a6.44,6.44,0,0,0-1.94,5.07v7.34a6.46,6.46,0,0,0,1.94,5.07c1.35,1.18,3.45,1.78,6.15,1.78a11.18,11.18,0,0,0,5-1,5.27,5.27,0,0,0,2.48-2.8l3.23,1.29a8.56,8.56,0,0,1-4.1,4.53,13.85,13.85,0,0,1-6.63,1.46c-3.56,0-6.42-.92-8.42-2.64a9.76,9.76,0,0,1-3.12-7.66v-7.34a9.76,9.76,0,0,1,3.12-7.66c2-1.72,4.86-2.64,8.42-2.64A13.85,13.85,0,0,1,1357.07,148.88Z"/><path class="cls-1" d="M1377.57,147.42a12.72,12.72,0,0,1,8.42,2.64,9.77,9.77,0,0,1,3.13,7.66v17.64h-3.46V173a12.79,12.79,0,0,1-8.09,2.37h-1.24a12.72,12.72,0,0,1-7.33-1.89,7.47,7.47,0,0,1,0-11.92,12.72,12.72,0,0,1,7.33-1.89h9.33v-1.94a6.47,6.47,0,0,0-2-5.07c-1.35-1.19-3.4-1.78-6.1-1.78h0a9.46,9.46,0,0,0-5.83,1.57,5.89,5.89,0,0,0-2.21,4.26l-3.4-.38a9.21,9.21,0,0,1,3.51-6.64,12.82,12.82,0,0,1,7.93-2.26Zm-1.24,15.7a9.64,9.64,0,0,0-5.34,1.24,3.63,3.63,0,0,0-1.51,3.13,3.68,3.68,0,0,0,1.51,3.18,9.64,9.64,0,0,0,5.34,1.24h1.24c2.7,0,4.75-.6,6.1-1.78a6.48,6.48,0,0,0,2-5.07v-1.94Z"/><path class="cls-1" d="M1409.89,147.42v3.45h-8v14.19a6.46,6.46,0,0,0,1.94,5.07c1.35,1.18,3.4,1.78,6.1,1.78v3.45a12.72,12.72,0,0,1-8.42-2.64,9.93,9.93,0,0,1-3.07-7.66V150.87H1394v-3.45h4.43V137.6h3.45v9.82Z"/><path class="cls-1" d="M1420.89,139.87a2.27,2.27,0,1,1-2.26-2.27A2.21,2.21,0,0,1,1420.89,139.87Zm-4,35.49V147.42h3.45v27.94Z"/><path class="cls-1" d="M1447.27,150.06a9.77,9.77,0,0,1,3.13,7.66v7.34a9.77,9.77,0,0,1-3.13,7.66c-2,1.72-4.8,2.64-8.36,2.64s-6.42-.92-8.41-2.64a9.77,9.77,0,0,1-3.13-7.66v-7.34a9.77,9.77,0,0,1,3.13-7.66c2-1.72,4.85-2.64,8.41-2.64S1445.28,148.34,1447.27,150.06Zm-14.51,2.59a6.44,6.44,0,0,0-1.94,5.07v7.34a6.46,6.46,0,0,0,1.94,5.07c1.35,1.18,3.45,1.78,6.15,1.78s4.75-.6,6.1-1.78a6.46,6.46,0,0,0,1.94-5.07v-7.34a6.44,6.44,0,0,0-1.94-5.07c-1.35-1.19-3.4-1.78-6.1-1.78S1434.11,151.46,1432.76,152.65Z"/><path class="cls-1" d="M1476.78,150.06a9.77,9.77,0,0,1,3.13,7.66v17.64h-3.46V157.72a6.41,6.41,0,0,0-1.94-5.07c-1.35-1.19-3.4-1.78-6.09-1.78s-4.8.59-6.15,1.78a6.41,6.41,0,0,0-1.94,5.07v17.64h-3.46V147.42h3.46v2.37a12.79,12.79,0,0,1,8.09-2.37C1472,147.42,1474.78,148.34,1476.78,150.06Z"/><path class="cls-1" d="M11.54,212.15A12.67,12.67,0,0,1,20,214.8a9.75,9.75,0,0,1,3.13,7.66v17.63H19.63v-2.37a12.79,12.79,0,0,1-8.09,2.37H10.3A12.73,12.73,0,0,1,3,238.21a7.46,7.46,0,0,1,0-11.92,12.72,12.72,0,0,1,7.33-1.89h9.33v-1.94a6.45,6.45,0,0,0-2-5.07c-1.35-1.19-3.4-1.78-6.1-1.78h0a9.52,9.52,0,0,0-5.83,1.56,5.91,5.91,0,0,0-2.21,4.26l-3.4-.38a9.19,9.19,0,0,1,3.51-6.63,12.82,12.82,0,0,1,7.93-2.27Zm-1.24,15.7A9.64,9.64,0,0,0,5,229.09a4.05,4.05,0,0,0,0,6.31,9.64,9.64,0,0,0,5.34,1.24h1.24c2.7,0,4.75-.59,6.1-1.78a6.47,6.47,0,0,0,2-5.07v-1.94Z"/><path class="cls-1" d="M50.54,214.8a9.75,9.75,0,0,1,3.13,7.66v17.63H50.22V222.46a6.43,6.43,0,0,0-1.94-5.07c-1.35-1.19-3.4-1.78-6.1-1.78s-4.8.59-6.14,1.78a6.4,6.4,0,0,0-1.95,5.07v17.63H30.64V212.15h3.45v2.38a12.77,12.77,0,0,1,8.09-2.38C45.74,212.15,48.55,213.07,50.54,214.8Z"/><path class="cls-1" d="M82.64,240.09H79.19v-2.37a12.81,12.81,0,0,1-8.09,2.37c-3.56,0-6.37-.91-8.36-2.64a9.75,9.75,0,0,1-3.13-7.66v-7.33a9.75,9.75,0,0,1,3.13-7.66c2-1.73,4.8-2.65,8.36-2.65a12.75,12.75,0,0,1,8.09,2.38V202.34h3.45ZM65,217.39a6.43,6.43,0,0,0-1.94,5.07v7.33A6.44,6.44,0,0,0,65,234.86c1.35,1.19,3.4,1.78,6.1,1.78s4.8-.59,6.15-1.78a6.44,6.44,0,0,0,1.94-5.07v-7.33a6.43,6.43,0,0,0-1.94-5.07c-1.35-1.19-3.46-1.78-6.15-1.78S66.35,216.2,65,217.39Z"/><path class="cls-1" d="M127.73,212.15a12.67,12.67,0,0,1,8.42,2.65,9.75,9.75,0,0,1,3.13,7.66v17.63h-3.45v-2.37a12.84,12.84,0,0,1-8.1,2.37h-1.24a12.73,12.73,0,0,1-7.33-1.88,7.46,7.46,0,0,1,0-11.92,12.72,12.72,0,0,1,7.33-1.89h9.34v-1.94a6.46,6.46,0,0,0-2-5.07c-1.35-1.19-3.4-1.78-6.1-1.78h0a9.52,9.52,0,0,0-5.83,1.56,5.91,5.91,0,0,0-2.21,4.26l-3.39-.38a9.14,9.14,0,0,1,3.5-6.63,12.82,12.82,0,0,1,7.93-2.27Zm-1.24,15.7a9.64,9.64,0,0,0-5.34,1.24,4.05,4.05,0,0,0,0,6.31,9.64,9.64,0,0,0,5.34,1.24h1.24c2.7,0,4.75-.59,6.1-1.78a6.47,6.47,0,0,0,2-5.07v-1.94Z"/><path class="cls-1" d="M158.38,215.61c-2.7,0-4.81.59-6.15,1.78a6.4,6.4,0,0,0-1.95,5.07v17.63h-3.45V212.15h3.45v2.38a12.78,12.78,0,0,1,8.1-2.38h2.42v3.46Z"/><path class="cls-1" d="M180.49,212.15v3.46h-8v14.18a6.41,6.41,0,0,0,1.94,5.07c1.35,1.19,3.39,1.78,6.09,1.78v3.45a12.64,12.64,0,0,1-8.41-2.64,9.89,9.89,0,0,1-3.08-7.66V215.61h-4.42v-3.46H169v-9.81h3.46v9.81Z"/><path class="cls-1" d="M237.07,240.09h-3.45v-2.37a12.79,12.79,0,0,1-8.09,2.37c-3.56,0-6.36-.91-8.36-2.64a9.75,9.75,0,0,1-3.13-7.66v-7.33a9.75,9.75,0,0,1,3.13-7.66c2-1.73,4.8-2.65,8.36-2.65a12.73,12.73,0,0,1,8.09,2.38V202.34h3.45Zm-17.64-22.7a6.43,6.43,0,0,0-1.94,5.07v7.33a6.44,6.44,0,0,0,1.94,5.07c1.35,1.19,3.4,1.78,6.1,1.78s4.8-.59,6.15-1.78a6.44,6.44,0,0,0,1.94-5.07v-7.33a6.43,6.43,0,0,0-1.94-5.07c-1.35-1.19-3.45-1.78-6.15-1.78S220.78,216.2,219.43,217.39Z"/><path class="cls-1" d="M249.16,204.6a2.27,2.27,0,1,1-2.27-2.26A2.21,2.21,0,0,1,249.16,204.6Zm-4,35.49V212.15h3.45v27.94Z"/><path class="cls-1" d="M268.25,215.61c-2.69,0-4.8.59-6.15,1.78a6.43,6.43,0,0,0-1.94,5.07v17.63h-3.45V212.15h3.45v2.38a12.77,12.77,0,0,1,8.09-2.38h2.43v3.46Z"/><path class="cls-1" d="M294.36,214.8a9.75,9.75,0,0,1,3.13,7.66v5.39H277.91v1.94a6.44,6.44,0,0,0,1.94,5.07c1.35,1.19,3.45,1.78,6.15,1.78h.65a11.25,11.25,0,0,0,5-1,5.61,5.61,0,0,0,2.54-2.81l3.18,1.3a8.67,8.67,0,0,1-4.1,4.53,13.85,13.85,0,0,1-6.63,1.45H286c-3.56,0-6.42-.91-8.41-2.64a9.75,9.75,0,0,1-3.13-7.66v-7.33a9.75,9.75,0,0,1,3.13-7.66c2-1.73,4.85-2.65,8.41-2.65S292.37,213.07,294.36,214.8Zm-14.51,2.59a6.43,6.43,0,0,0-1.94,5.07v1.94H294v-1.94a6.43,6.43,0,0,0-1.94-5.07c-1.35-1.19-3.4-1.78-6.1-1.78S281.2,216.2,279.85,217.39Z"/><path class="cls-1" d="M320.52,213.61a8.56,8.56,0,0,1,4.1,4.53l-3.23,1.3a5.33,5.33,0,0,0-2.48-2.81,11.19,11.19,0,0,0-5-1c-2.7,0-4.8.59-6.15,1.78a6.43,6.43,0,0,0-1.94,5.07v7.33a6.44,6.44,0,0,0,1.94,5.07c1.35,1.19,3.45,1.78,6.15,1.78a11.32,11.32,0,0,0,5-1,5.33,5.33,0,0,0,2.48-2.81l3.23,1.3a8.59,8.59,0,0,1-4.1,4.53,13.83,13.83,0,0,1-6.63,1.45c-3.56,0-6.42-.91-8.41-2.64a9.75,9.75,0,0,1-3.13-7.66v-7.33a9.75,9.75,0,0,1,3.13-7.66c2-1.73,4.85-2.65,8.41-2.65A13.83,13.83,0,0,1,320.52,213.61Z"/><path class="cls-1" d="M344.32,212.15v3.46h-8v14.18a6.41,6.41,0,0,0,1.94,5.07c1.35,1.19,3.4,1.78,6.1,1.78v3.45a12.65,12.65,0,0,1-8.42-2.64,9.88,9.88,0,0,1-3.07-7.66V215.61H328.4v-3.46h4.43v-9.81h3.45v9.81Z"/><path class="cls-1" d="M355.32,204.6a2.27,2.27,0,1,1-2.27-2.26A2.21,2.21,0,0,1,355.32,204.6Zm-4,35.49V212.15h3.45v27.94Z"/><path class="cls-1" d="M381.7,214.8a9.75,9.75,0,0,1,3.13,7.66v7.33a9.75,9.75,0,0,1-3.13,7.66c-2,1.73-4.8,2.64-8.36,2.64s-6.42-.91-8.42-2.64a9.75,9.75,0,0,1-3.13-7.66v-7.33a9.75,9.75,0,0,1,3.13-7.66c2-1.73,4.86-2.65,8.42-2.65S379.7,213.07,381.7,214.8Zm-14.51,2.59a6.39,6.39,0,0,0-1.94,5.07v7.33a6.41,6.41,0,0,0,1.94,5.07c1.35,1.19,3.45,1.78,6.15,1.78s4.74-.59,6.09-1.78a6.41,6.41,0,0,0,1.95-5.07v-7.33a6.4,6.4,0,0,0-1.95-5.07c-1.35-1.19-3.39-1.78-6.09-1.78S368.54,216.2,367.19,217.39Z"/><path class="cls-1" d="M411.21,214.8a9.75,9.75,0,0,1,3.12,7.66v17.63h-3.45V222.46a6.39,6.39,0,0,0-1.94-5.07c-1.35-1.19-3.4-1.78-6.09-1.78s-4.8.59-6.15,1.78a6.4,6.4,0,0,0-1.95,5.07v17.63H391.3V212.15h3.45v2.38a12.78,12.78,0,0,1,8.1-2.38C406.41,212.15,409.21,213.07,411.21,214.8Z"/><path class="cls-1" d="M461.37,205.79A7,7,0,0,0,457,207a4,4,0,0,0-1.24,3.23v1.94h8v3.46h-8v24.48h-3.45V215.61h-4.43v-3.46h4.43v-1.94a7.46,7.46,0,0,1,2.48-5.88,10.22,10.22,0,0,1,6.58-2h2.43v3.45Z"/><path class="cls-1" d="M487.48,214.8a9.75,9.75,0,0,1,3.13,7.66v7.33a9.75,9.75,0,0,1-3.13,7.66c-2,1.73-4.8,2.64-8.36,2.64s-6.42-.91-8.42-2.64a9.75,9.75,0,0,1-3.12-7.66v-7.33a9.75,9.75,0,0,1,3.12-7.66c2-1.73,4.86-2.65,8.42-2.65S485.48,213.07,487.48,214.8ZM473,217.39a6.39,6.39,0,0,0-1.94,5.07v7.33a6.41,6.41,0,0,0,1.94,5.07c1.35,1.19,3.45,1.78,6.15,1.78s4.75-.59,6.09-1.78a6.41,6.41,0,0,0,2-5.07v-7.33a6.4,6.4,0,0,0-2-5.07c-1.34-1.19-3.39-1.78-6.09-1.78S474.32,216.2,473,217.39Z"/><path class="cls-1" d="M508.63,215.61c-2.7,0-4.8.59-6.15,1.78a6.4,6.4,0,0,0-2,5.07v17.63h-3.45V212.15h3.45v2.38a12.78,12.78,0,0,1,8.1-2.38h2.42v3.46Z"/><path class="cls-1" d="M548.05,214.53a12.78,12.78,0,0,1,8.1-2.38c3.56,0,6.36.92,8.36,2.65a9.75,9.75,0,0,1,3.12,7.66v7.33a9.75,9.75,0,0,1-3.12,7.66c-2,1.73-4.8,2.64-8.36,2.64a12.84,12.84,0,0,1-8.1-2.37v2.37H544.6V202.34h3.45Zm2,2.86a6.4,6.4,0,0,0-2,5.07v7.33a6.41,6.41,0,0,0,2,5.07c1.34,1.19,3.45,1.78,6.15,1.78s4.74-.59,6.09-1.78a6.41,6.41,0,0,0,1.94-5.07v-7.33a6.39,6.39,0,0,0-1.94-5.07c-1.35-1.19-3.4-1.78-6.09-1.78S551.34,216.2,550,217.39Z"/><path class="cls-1" d="M585.65,215.61c-2.69,0-4.8.59-6.15,1.78a6.43,6.43,0,0,0-1.94,5.07v17.63h-3.45V212.15h3.45v2.38a12.75,12.75,0,0,1,8.09-2.38h2.43v3.46Z"/><path class="cls-1" d="M603.4,212.15a12.67,12.67,0,0,1,8.42,2.65,9.75,9.75,0,0,1,3.12,7.66v17.63h-3.45v-2.37a12.79,12.79,0,0,1-8.09,2.37h-1.24a12.76,12.76,0,0,1-7.34-1.88,7.48,7.48,0,0,1,0-11.92,12.76,12.76,0,0,1,7.34-1.89h9.33v-1.94a6.45,6.45,0,0,0-2-5.07c-1.35-1.19-3.4-1.78-6.1-1.78h0a9.52,9.52,0,0,0-5.83,1.56,5.91,5.91,0,0,0-2.21,4.26l-3.4-.38a9.19,9.19,0,0,1,3.51-6.63,12.8,12.8,0,0,1,7.93-2.27Zm-1.24,15.7a9.64,9.64,0,0,0-5.34,1.24,4.05,4.05,0,0,0,0,6.31,9.64,9.64,0,0,0,5.34,1.24h1.24c2.7,0,4.75-.59,6.1-1.78a6.47,6.47,0,0,0,2-5.07v-1.94Z"/><path class="cls-1" d="M642.4,214.8a9.75,9.75,0,0,1,3.13,7.66v17.63h-3.45V222.46a6.43,6.43,0,0,0-1.94-5.07c-1.35-1.19-3.4-1.78-6.1-1.78s-4.8.59-6.15,1.78a6.43,6.43,0,0,0-1.94,5.07v17.63H622.5V212.15H626v2.38a12.75,12.75,0,0,1,8.09-2.38C637.6,212.15,640.41,213.07,642.4,214.8Z"/><path class="cls-1" d="M674.5,240.09h-3.45v-2.37a12.83,12.83,0,0,1-8.09,2.37c-3.56,0-6.37-.91-8.37-2.64a9.75,9.75,0,0,1-3.12-7.66v-7.33a9.75,9.75,0,0,1,3.12-7.66c2-1.73,4.81-2.65,8.37-2.65a12.77,12.77,0,0,1,8.09,2.38V202.34h3.45Zm-17.64-22.7a6.43,6.43,0,0,0-1.94,5.07v7.33a6.44,6.44,0,0,0,1.94,5.07c1.35,1.19,3.4,1.78,6.1,1.78s4.8-.59,6.14-1.78a6.41,6.41,0,0,0,1.95-5.07v-7.33a6.4,6.4,0,0,0-1.95-5.07c-1.34-1.19-3.45-1.78-6.14-1.78S658.21,216.2,656.86,217.39Z"/><path class="cls-1" d="M693.16,212.15a13.9,13.9,0,0,1,6.64,1.46,8.64,8.64,0,0,1,4.1,4.53l-3.18,1.3a5.61,5.61,0,0,0-2.54-2.81,11.16,11.16,0,0,0-5-1h-.64c-2.81,0-5,.43-6.37,1.34a3.56,3.56,0,0,0,0,6.1c1.4.92,3.56,1.35,6.37,1.35a15.75,15.75,0,0,1,8.14,1.83,7.07,7.07,0,0,1,0,12,15.65,15.65,0,0,1-8.14,1.83h-.65a14,14,0,0,1-6.69-1.45,8.67,8.67,0,0,1-4.1-4.53l3.24-1.3a5.25,5.25,0,0,0,2.48,2.81,11.52,11.52,0,0,0,5.07,1h.65c2.75,0,4.91-.43,6.31-1.35a3.56,3.56,0,0,0,0-6.09c-1.4-.92-3.56-1.35-6.31-1.35a16,16,0,0,1-8.2-1.83,7.07,7.07,0,0,1,0-12,15.86,15.86,0,0,1,8.2-1.84Z"/><path class="cls-1" d="M714.47,237.83a2.27,2.27,0,1,1-2.26-2.27A2.21,2.21,0,0,1,714.47,237.83Z"/><path class="cls-1" d="M770.08,240.09V222.94H751.47v17.15H748V202.34h3.45v17.15h18.61V202.34h3.45v37.75Z"/><path class="cls-1" d="M801,214.8a9.75,9.75,0,0,1,3.13,7.66v5.39H784.54v1.94a6.44,6.44,0,0,0,1.94,5.07c1.35,1.19,3.45,1.78,6.15,1.78h.65a11.25,11.25,0,0,0,5-1,5.61,5.61,0,0,0,2.54-2.81l3.18,1.3a8.63,8.63,0,0,1-4.1,4.53,13.85,13.85,0,0,1-6.63,1.45h-.65c-3.56,0-6.42-.91-8.41-2.64a9.75,9.75,0,0,1-3.13-7.66v-7.33a9.75,9.75,0,0,1,3.13-7.66c2-1.73,4.85-2.65,8.41-2.65S799,213.07,801,214.8Zm-14.51,2.59a6.43,6.43,0,0,0-1.94,5.07v1.94h16.13v-1.94a6.43,6.43,0,0,0-1.94-5.07c-1.35-1.19-3.4-1.78-6.1-1.78S787.83,216.2,786.48,217.39Z"/><path class="cls-1" d="M842.2,204.6a2.27,2.27,0,1,1-2.27-2.26A2.21,2.21,0,0,1,842.2,204.6Zm-4,35.49V212.15h3.45v27.94Z"/><path class="cls-1" d="M860.87,212.15a13.85,13.85,0,0,1,6.63,1.46,8.64,8.64,0,0,1,4.1,4.53l-3.18,1.3a5.61,5.61,0,0,0-2.54-2.81,11.11,11.11,0,0,0-5-1h-.65c-2.81,0-5,.43-6.37,1.34a3.56,3.56,0,0,0,0,6.1c1.41.92,3.56,1.35,6.37,1.35a15.75,15.75,0,0,1,8.14,1.83,7.07,7.07,0,0,1,0,12,15.65,15.65,0,0,1-8.14,1.83h-.65a14,14,0,0,1-6.69-1.45,8.67,8.67,0,0,1-4.1-4.53l3.24-1.3a5.25,5.25,0,0,0,2.48,2.81,11.52,11.52,0,0,0,5.07,1h.65c2.75,0,4.91-.43,6.31-1.35a3.56,3.56,0,0,0,0-6.09c-1.4-.92-3.56-1.35-6.31-1.35A16,16,0,0,1,852,226a7.07,7.07,0,0,1,0-12,15.88,15.88,0,0,1,8.2-1.84Z"/><path class="cls-1" d="M936,240.09l-8.63-21.57-8.57,21.57h-2.38l-11.16-27.94H909l8.63,21.58,8.63-21.58h2.32l8.63,21.58,8.63-21.58h3.72l-11.16,27.94Z"/><path class="cls-1" d="M972.15,214.8a9.75,9.75,0,0,1,3.13,7.66v5.39H955.7v1.94a6.41,6.41,0,0,0,1.94,5.07c1.35,1.19,3.45,1.78,6.15,1.78h.64a11.29,11.29,0,0,0,5-1,5.61,5.61,0,0,0,2.54-2.81l3.18,1.3a8.67,8.67,0,0,1-4.1,4.53,13.9,13.9,0,0,1-6.64,1.45h-.64c-3.56,0-6.42-.91-8.42-2.64a9.75,9.75,0,0,1-3.13-7.66v-7.33a9.75,9.75,0,0,1,3.13-7.66c2-1.73,4.86-2.65,8.42-2.65S970.15,213.07,972.15,214.8Zm-14.51,2.59a6.39,6.39,0,0,0-1.94,5.07v1.94h16.12v-1.94a6.39,6.39,0,0,0-1.94-5.07c-1.35-1.19-3.4-1.78-6.09-1.78S959,216.2,957.64,217.39Z"/><path class="cls-1" d="M984.66,229.79a9.5,9.5,0,0,0,1.24,5.34,3.66,3.66,0,0,0,3.19,1.51v3.45a7,7,0,0,1-6-3,12.52,12.52,0,0,1-1.89-7.34V202.34h3.45Z"/><path class="cls-1" d="M997.39,229.79a9.59,9.59,0,0,0,1.24,5.34,3.67,3.67,0,0,0,3.19,1.51v3.45a7,7,0,0,1-6-3,12.52,12.52,0,0,1-1.89-7.34V202.34h3.45Z"/><path class="cls-1" d="M1052,212.15h4.7l-11.39,12.41,11.39,15.53h-4.32L1043,227.15l-4.15,4.53v8.41h-3.45V202.34h3.45v24.22Z"/><path class="cls-1" d="M1082.57,214.8a9.75,9.75,0,0,1,3.12,7.66v17.63h-3.45V222.46a6.43,6.43,0,0,0-1.94-5.07c-1.35-1.19-3.4-1.78-6.09-1.78s-4.81.59-6.15,1.78a6.4,6.4,0,0,0-2,5.07v17.63h-3.45V212.15h3.45v2.38a12.78,12.78,0,0,1,8.1-2.38C1077.76,212.15,1080.57,213.07,1082.57,214.8Z"/><path class="cls-1" d="M1111.53,214.8a9.75,9.75,0,0,1,3.13,7.66v7.33a9.75,9.75,0,0,1-3.13,7.66c-2,1.73-4.8,2.64-8.36,2.64s-6.42-.91-8.41-2.64a9.75,9.75,0,0,1-3.13-7.66v-7.33a9.75,9.75,0,0,1,3.13-7.66c2-1.73,4.85-2.65,8.41-2.65S1109.54,213.07,1111.53,214.8ZM1097,217.39a6.43,6.43,0,0,0-1.94,5.07v7.33a6.44,6.44,0,0,0,1.94,5.07c1.35,1.19,3.46,1.78,6.15,1.78s4.75-.59,6.1-1.78a6.44,6.44,0,0,0,1.94-5.07v-7.33a6.43,6.43,0,0,0-1.94-5.07c-1.35-1.19-3.4-1.78-6.1-1.78S1098.37,216.2,1097,217.39Z"/><path class="cls-1" d="M1148.11,240.09l-8.63-21.57-8.58,21.57h-2.37l-11.17-27.94h3.72l8.63,21.58,8.63-21.58h2.32l8.63,21.58,8.63-21.58h3.73l-11.17,27.94Z"/><path class="cls-1" d="M1187.49,214.8a9.75,9.75,0,0,1,3.13,7.66v17.63h-3.46V222.46a6.39,6.39,0,0,0-1.94-5.07c-1.35-1.19-3.4-1.78-6.09-1.78s-4.8.59-6.15,1.78a6.39,6.39,0,0,0-1.94,5.07v17.63h-3.46V212.15H1171v2.38a12.73,12.73,0,0,1,8.09-2.38C1182.69,212.15,1185.49,213.07,1187.49,214.8Z"/><path class="cls-1" d="M1237.65,205.79a7,7,0,0,0-4.37,1.19,4,4,0,0,0-1.24,3.23v1.94h8v3.46h-8v24.48h-3.45V215.61h-4.42v-3.46h4.42v-1.94a7.46,7.46,0,0,1,2.48-5.88,10.22,10.22,0,0,1,6.58-2h2.43v3.45Z"/><path class="cls-1" d="M1263.76,214.8a9.75,9.75,0,0,1,3.13,7.66v7.33a9.75,9.75,0,0,1-3.13,7.66c-2,1.73-4.8,2.64-8.36,2.64s-6.42-.91-8.42-2.64a9.75,9.75,0,0,1-3.13-7.66v-7.33a9.75,9.75,0,0,1,3.13-7.66c2-1.73,4.86-2.65,8.42-2.65S1261.76,213.07,1263.76,214.8Zm-14.51,2.59a6.39,6.39,0,0,0-1.94,5.07v7.33a6.41,6.41,0,0,0,1.94,5.07c1.35,1.19,3.45,1.78,6.15,1.78s4.74-.59,6.09-1.78a6.41,6.41,0,0,0,1.94-5.07v-7.33a6.39,6.39,0,0,0-1.94-5.07c-1.35-1.19-3.4-1.78-6.09-1.78S1250.6,216.2,1249.25,217.39Z"/><path class="cls-1" d="M1284.91,215.61c-2.7,0-4.8.59-6.15,1.78a6.4,6.4,0,0,0-2,5.07v17.63h-3.45V212.15h3.45v2.38a12.78,12.78,0,0,1,8.1-2.38h2.42v3.46Z"/><path class="cls-1" d="M1324.33,214.53a12.77,12.77,0,0,1,8.09-2.38c3.56,0,6.37.92,8.37,2.65a9.78,9.78,0,0,1,3.12,7.66v17.63h-3.45V222.46a6.43,6.43,0,0,0-1.94-5.07c-1.35-1.19-3.4-1.78-6.1-1.78s-4.8.59-6.14,1.78a6.4,6.4,0,0,0-2,5.07v17.63h-3.45V202.34h3.45Z"/><path class="cls-1" d="M1356,204.6a2.27,2.27,0,1,1-2.27-2.26A2.21,2.21,0,0,1,1356,204.6Zm-4,35.49V212.15h3.45v27.94Z"/><path class="cls-1" d="M1374.66,212.15a13.9,13.9,0,0,1,6.64,1.46,8.64,8.64,0,0,1,4.1,4.53l-3.19,1.3a5.55,5.55,0,0,0-2.53-2.81,11.16,11.16,0,0,0-5-1H1374c-2.81,0-5,.43-6.37,1.34a3.55,3.55,0,0,0,0,6.1c1.4.92,3.56,1.35,6.37,1.35a15.75,15.75,0,0,1,8.14,1.83,7.09,7.09,0,0,1,0,12,15.65,15.65,0,0,1-8.14,1.83h-.65a14,14,0,0,1-6.69-1.45,8.67,8.67,0,0,1-4.1-4.53l3.24-1.3a5.25,5.25,0,0,0,2.48,2.81,11.52,11.52,0,0,0,5.07,1h.65c2.75,0,4.9-.43,6.31-1.35a3.56,3.56,0,0,0,0-6.09c-1.41-.92-3.56-1.35-6.31-1.35a16,16,0,0,1-8.2-1.83,7.07,7.07,0,0,1,0-12,15.86,15.86,0,0,1,8.2-1.84Z"/><path class="cls-1" d="M1444.78,240.09l-2.64-7.33h-16.83l-2.59,7.33h-3.67l13.49-37.75H1435l13.48,37.75Zm-3.88-10.78-7.17-20.12-7.18,20.12Z"/><path class="cls-1" d="M1467.12,202.34c4,0,7.12,1,9.33,3A10.11,10.11,0,0,1,1479,209a13.82,13.82,0,0,1,.86,4.85,13.33,13.33,0,0,1-.86,4.8,10,10,0,0,1-2.59,3.72,12.28,12.28,0,0,1-7.66,2.92l11.11,14.77h-4.31l-11.06-14.72h-6.69v14.72h-3.45V202.34Zm-9.28,19.58h9.28c3.13,0,5.45-.7,7-2.11a7.5,7.5,0,0,0,2.32-5.93,7.65,7.65,0,0,0-2.32-6c-1.56-1.4-3.88-2.1-7-2.1h-9.28Z"/><path class="cls-1" d="M13.49,270.52a7,7,0,0,0-4.37,1.19A3.94,3.94,0,0,0,7.88,275v1.94h8v3.45h-8v24.49H4.42V280.34H0v-3.45H4.42V275a7.46,7.46,0,0,1,2.48-5.88,10.18,10.18,0,0,1,6.59-2h2.42v3.45Z"/><path class="cls-1" d="M26.38,269.34a2.27,2.27,0,1,1-2.27-2.27A2.21,2.21,0,0,1,26.38,269.34Zm-4,35.49V276.89h3.45v27.94Z"/><path class="cls-1" d="M37.38,294.53a9.52,9.52,0,0,0,1.25,5.34,3.66,3.66,0,0,0,3.18,1.51v3.45a7.06,7.06,0,0,1-6-3,12.46,12.46,0,0,1-1.89-7.33V267.07h3.45Z"/><path class="cls-1" d="M59.88,276.89v3.45h-8v14.19a6.46,6.46,0,0,0,1.94,5.07c1.35,1.18,3.4,1.78,6.1,1.78v3.45a12.72,12.72,0,0,1-8.42-2.64,9.93,9.93,0,0,1-3.07-7.66V280.34H44v-3.45h4.43v-9.82h3.45v9.82Z"/><path class="cls-1" d="M84.64,279.53a9.75,9.75,0,0,1,3.13,7.66v5.39H68.19v1.95a6.42,6.42,0,0,0,1.94,5.07c1.35,1.18,3.45,1.78,6.15,1.78h.64a11.15,11.15,0,0,0,5-1,5.59,5.59,0,0,0,2.54-2.8l3.18,1.29a8.6,8.6,0,0,1-4.1,4.53,13.9,13.9,0,0,1-6.64,1.46h-.64c-3.56,0-6.42-.92-8.42-2.64a9.77,9.77,0,0,1-3.13-7.66v-7.34a9.75,9.75,0,0,1,3.13-7.66c2-1.72,4.86-2.64,8.42-2.64S82.64,277.81,84.64,279.53Zm-14.51,2.59a6.41,6.41,0,0,0-1.94,5.07v1.94H84.31v-1.94a6.41,6.41,0,0,0-1.94-5.07c-1.35-1.19-3.4-1.78-6.09-1.78S71.48,280.93,70.13,282.12Z"/><path class="cls-1" d="M105.79,280.34c-2.7,0-4.8.59-6.15,1.78a6.41,6.41,0,0,0-2,5.07v17.64H94.24V276.89h3.45v2.37a12.84,12.84,0,0,1,8.1-2.37h2.42v3.45Z"/><path class="cls-1" d="M124.18,276.89a13.9,13.9,0,0,1,6.64,1.45,8.66,8.66,0,0,1,4.1,4.54l-3.19,1.29a5.58,5.58,0,0,0-2.53-2.8,11.18,11.18,0,0,0-5-1h-.65c-2.8,0-5,.43-6.36,1.35a3.54,3.54,0,0,0,0,6.09c1.4.92,3.56,1.35,6.36,1.35a15.66,15.66,0,0,1,8.15,1.84,7.08,7.08,0,0,1,0,12,15.66,15.66,0,0,1-8.15,1.84h-.64a13.94,13.94,0,0,1-6.69-1.46,8.6,8.6,0,0,1-4.1-4.53l3.23-1.29a5.29,5.29,0,0,0,2.49,2.8,11.38,11.38,0,0,0,5.07,1h.64c2.76,0,4.91-.43,6.31-1.35a3.55,3.55,0,0,0,0-6.1c-1.4-.91-3.55-1.35-6.31-1.35a15.91,15.91,0,0,1-8.2-1.83,7.09,7.09,0,0,1,0-12,15.91,15.91,0,0,1,8.2-1.83Z"/><path class="cls-1" d="M187.35,304.83l-8.63-21.58-8.58,21.58h-2.37L156.6,276.89h3.72L169,298.46l8.63-21.57h2.32l8.63,21.57,8.64-21.57h3.72l-11.17,27.94Z"/><path class="cls-1" d="M210.28,269.34a2.27,2.27,0,1,1-2.27-2.27A2.21,2.21,0,0,1,210.28,269.34Zm-4,35.49V276.89h3.45v27.94Z"/><path class="cls-1" d="M232.12,276.89v3.45h-8v14.19A6.42,6.42,0,0,0,226,299.6c1.35,1.18,3.4,1.78,6.09,1.78v3.45a12.69,12.69,0,0,1-8.41-2.64,9.9,9.9,0,0,1-3.08-7.66V280.34h-4.42v-3.45h4.42v-9.82h3.46v9.82Z"/><path class="cls-1" d="M242.05,279.26a12.81,12.81,0,0,1,8.09-2.37c3.56,0,6.37.92,8.36,2.64a9.75,9.75,0,0,1,3.13,7.66v17.64h-3.45V287.19a6.44,6.44,0,0,0-1.94-5.07c-1.35-1.19-3.4-1.78-6.1-1.78s-4.8.59-6.15,1.78a6.44,6.44,0,0,0-1.94,5.07v17.64H238.6V267.07h3.45Z"/><path class="cls-1" d="M303.11,279.53a9.75,9.75,0,0,1,3.13,7.66v7.34a9.77,9.77,0,0,1-3.13,7.66c-2,1.72-4.8,2.64-8.36,2.64s-6.42-.92-8.41-2.64a9.77,9.77,0,0,1-3.13-7.66v-7.34a9.75,9.75,0,0,1,3.13-7.66c2-1.72,4.85-2.64,8.41-2.64S301.12,277.81,303.11,279.53Zm-14.51,2.59a6.44,6.44,0,0,0-1.94,5.07v7.34a6.46,6.46,0,0,0,1.94,5.07c1.35,1.18,3.46,1.78,6.15,1.78s4.75-.6,6.1-1.78a6.46,6.46,0,0,0,1.94-5.07v-7.34a6.44,6.44,0,0,0-1.94-5.07c-1.35-1.19-3.4-1.78-6.1-1.78S290,280.93,288.6,282.12Z"/><path class="cls-1" d="M320.11,304.83l-11.17-27.94h3.72l8.63,21.57,8.63-21.57h3.73l-11.17,27.94Z"/><path class="cls-1" d="M356.25,279.53a9.75,9.75,0,0,1,3.13,7.66v5.39H339.8v1.95a6.42,6.42,0,0,0,1.94,5.07c1.35,1.18,3.45,1.78,6.15,1.78h.65a11.13,11.13,0,0,0,5-1,5.59,5.59,0,0,0,2.54-2.8l3.18,1.29a8.6,8.6,0,0,1-4.1,4.53,13.85,13.85,0,0,1-6.63,1.46h-.65c-3.56,0-6.42-.92-8.42-2.64a9.77,9.77,0,0,1-3.13-7.66v-7.34a9.75,9.75,0,0,1,3.13-7.66c2-1.72,4.86-2.64,8.42-2.64S354.25,277.81,356.25,279.53Zm-14.51,2.59a6.41,6.41,0,0,0-1.94,5.07v1.94h16.12v-1.94a6.41,6.41,0,0,0-1.94-5.07c-1.35-1.19-3.4-1.78-6.09-1.78S343.09,280.93,341.74,282.12Z"/><path class="cls-1" d="M377.4,280.34c-2.7,0-4.8.59-6.15,1.78a6.41,6.41,0,0,0-1.95,5.07v17.64h-3.45V276.89h3.45v2.37a12.84,12.84,0,0,1,8.1-2.37h2.42v3.45Z"/><path class="cls-1" d="M410.68,304.83V273l-6.85,6.85-2.43-2.43,10.3-10.3h2.43v37.76Z"/><path class="cls-1" d="M421.68,262.49a1.89,1.89,0,1,1-1.88-1.89A1.83,1.83,0,0,1,421.68,262.49Z"/><path class="cls-1" d="M437,267.07c3.56,0,6.37.92,8.36,2.7a9.71,9.71,0,0,1,3.13,7.6,13.09,13.09,0,0,1-.75,4.75,9,9,0,0,1-2.27,3.72,9.29,9.29,0,0,1-3.72,2.32,14.47,14.47,0,0,1-4.75.76c-2.64,0-4.64.75-6,2.26s-2.11,3.94-2.11,7v3.19h19.58v3.45h-23v-6.64c0-3.93,1-7.06,3-9.27a8.87,8.87,0,0,1,3.72-2.59,12.62,12.62,0,0,1,4.85-.87,8.33,8.33,0,0,0,6-2c1.35-1.34,2-3.34,2-6a6.31,6.31,0,0,0-1.94-5,9,9,0,0,0-6.1-1.84h-.37c-4.27,0-6.85,2.05-7.77,6l-3.35-.75a10.89,10.89,0,0,1,3.78-6.47,11.56,11.56,0,0,1,7.34-2.27Z"/><path class="cls-1" d="M457.88,270.52V281.8H465c3.88.05,6.9,1,9.11,3a9.34,9.34,0,0,1,2.54,3.73,12.34,12.34,0,0,1,.86,4.8,13.41,13.41,0,0,1-.75,4.8,9.56,9.56,0,0,1-2.27,3.72,10,10,0,0,1-3.72,2.26,14.47,14.47,0,0,1-4.75.76h-.38a11.55,11.55,0,0,1-7.33-2.27,10.91,10.91,0,0,1-3.78-6.42l3.35-.75q1.37,6,7.76,6H466a8.34,8.34,0,0,0,6-2.05c1.35-1.35,2-3.35,2-6a7.59,7.59,0,0,0-2.27-5.94c-1.56-1.4-3.93-2.1-7-2.1h-10.3V267.07h21.3v3.45Z"/><path class="cls-1" d="M498.61,267.93a9.89,9.89,0,0,1,3.77,2.59c1.95,2.22,3,5.34,3,9.33V292.1c0,3.94-1,7.06-3,9.28a9.27,9.27,0,0,1-3.77,2.59,13.83,13.83,0,0,1-9.6,0,9.2,9.2,0,0,1-3.73-2.59c-2-2.22-3-5.34-3-9.28V279.85c0-4,1-7.11,3-9.33a9.82,9.82,0,0,1,3.73-2.59,13.83,13.83,0,0,1,9.6,0Zm-10.74,4.91c-1.4,1.57-2.1,3.89-2.1,7V292.1c0,3.07.7,5.45,2.1,7s3.35,2.27,5.94,2.27a7.59,7.59,0,0,0,6-2.27c1.41-1.56,2.11-3.94,2.11-7V279.85c0-3.12-.7-5.44-2.11-7a8.82,8.82,0,0,0-11.92,0Z"/><path class="cls-1" d="M512.9,262.49A1.89,1.89,0,1,1,511,260.6,1.83,1.83,0,0,1,512.9,262.49Z"/><path class="cls-1" d="M533,267.93a10,10,0,0,1,3.78,2.59c1.94,2.22,3,5.34,3,9.33V292.1c0,3.94-1,7.06-3,9.28A9.37,9.37,0,0,1,533,304a13.83,13.83,0,0,1-9.6,0,9.1,9.1,0,0,1-3.72-2.59c-2-2.22-3-5.34-3-9.28V279.85c0-4,1-7.11,3-9.33a9.71,9.71,0,0,1,3.72-2.59,13.83,13.83,0,0,1,9.6,0Zm-10.73,4.91c-1.41,1.57-2.11,3.89-2.11,7V292.1c0,3.07.7,5.45,2.11,7s3.34,2.27,5.93,2.27a7.63,7.63,0,0,0,6-2.27c1.4-1.56,2.1-3.94,2.1-7V279.85c0-3.12-.7-5.44-2.1-7a7.65,7.65,0,0,0-6-2.32A7.5,7.5,0,0,0,522.24,272.84Z"/><path class="cls-1" d="M561.94,267.93a9.89,9.89,0,0,1,3.77,2.59c1.94,2.22,3,5.34,3,9.33V292.1c0,3.94-1,7.06-3,9.28a9.27,9.27,0,0,1-3.77,2.59,13.85,13.85,0,0,1-9.61,0,9.17,9.17,0,0,1-3.72-2.59c-2-2.22-3-5.34-3-9.28V279.85c0-4,1-7.11,3-9.33a9.79,9.79,0,0,1,3.72-2.59,13.85,13.85,0,0,1,9.61,0Zm-10.74,4.91c-1.4,1.57-2.1,3.89-2.1,7V292.1c0,3.07.7,5.45,2.1,7a7.51,7.51,0,0,0,5.93,2.27,7.61,7.61,0,0,0,6-2.27c1.4-1.56,2.11-3.94,2.11-7V279.85c0-3.12-.71-5.44-2.11-7a7.64,7.64,0,0,0-6-2.32A7.53,7.53,0,0,0,551.2,272.84Z"/><path class="cls-1" d="M590.9,267.93a10,10,0,0,1,3.78,2.59c1.94,2.22,3,5.34,3,9.33V292.1c0,3.94-1,7.06-3,9.28A9.37,9.37,0,0,1,590.9,304a13.83,13.83,0,0,1-9.6,0,9.17,9.17,0,0,1-3.72-2.59c-2-2.22-3-5.34-3-9.28V279.85c0-4,1-7.11,3-9.33a9.79,9.79,0,0,1,3.72-2.59,13.83,13.83,0,0,1,9.6,0Zm-10.73,4.91c-1.4,1.57-2.1,3.89-2.1,7V292.1c0,3.07.7,5.45,2.1,7s3.34,2.27,5.93,2.27a7.61,7.61,0,0,0,6-2.27c1.4-1.56,2.1-3.94,2.1-7V279.85c0-3.12-.7-5.44-2.1-7a7.64,7.64,0,0,0-6-2.32A7.5,7.5,0,0,0,580.17,272.84Z"/><path class="cls-1" d="M623.76,269.34a2.27,2.27,0,1,1-2.27-2.27A2.21,2.21,0,0,1,623.76,269.34Zm-4,35.49V276.89h3.46v27.94Z"/><path class="cls-1" d="M670.79,279.53a9.75,9.75,0,0,1,3.13,7.66v17.64h-3.45V287.19a6.44,6.44,0,0,0-1.94-5.07c-1.35-1.19-3.4-1.78-6.1-1.78s-4.74.59-6.15,1.78a6.44,6.44,0,0,0-1.94,5.07v17.64h-3.45V287.19a6.44,6.44,0,0,0-1.94-5.07c-1.35-1.19-3.4-1.78-6.1-1.78s-4.8.59-6.15,1.78a6.44,6.44,0,0,0-1.94,5.07v17.64h-3.45V276.89h3.45v2.37a12.81,12.81,0,0,1,8.09-2.37c3.56,0,6.37.92,8.36,2.64a9.76,9.76,0,0,1,1.41,1.57,12.8,12.8,0,0,1,1.4-1.57c2-1.72,4.85-2.64,8.41-2.64S668.8,277.81,670.79,279.53Z"/><path class="cls-1" d="M701.38,279.58a9.75,9.75,0,0,1,3.13,7.61v7.34a9.77,9.77,0,0,1-3.13,7.66c-2,1.78-4.8,2.64-8.36,2.64-3.4,0-6.09-.76-8.09-2.37v12.19h-3.45V276.89h3.45v2.43a12.47,12.47,0,0,1,8.09-2.43C696.58,276.89,699.39,277.81,701.38,279.58Zm-14.51,2.59a6.34,6.34,0,0,0-1.94,5v7.34a6.38,6.38,0,0,0,1.94,5.07c1.35,1.18,3.45,1.78,6.15,1.78s4.75-.6,6.1-1.78a6.38,6.38,0,0,0,1.94-5.07v-7.34a6.34,6.34,0,0,0-1.94-5,9.08,9.08,0,0,0-6.1-1.83A9.23,9.23,0,0,0,686.87,282.17Z"/><path class="cls-1" d="M722.53,280.34c-2.7,0-4.8.59-6.15,1.78a6.41,6.41,0,0,0-1.94,5.07v17.64H711V276.89h3.45v2.37a12.79,12.79,0,0,1,8.09-2.37H725v3.45Z"/><path class="cls-1" d="M748.64,279.53a9.75,9.75,0,0,1,3.13,7.66v5.39H732.19v1.95a6.42,6.42,0,0,0,1.94,5.07c1.35,1.18,3.45,1.78,6.15,1.78h.64a11.15,11.15,0,0,0,5-1,5.59,5.59,0,0,0,2.54-2.8l3.18,1.29a8.6,8.6,0,0,1-4.1,4.53,13.9,13.9,0,0,1-6.64,1.46h-.64c-3.56,0-6.42-.92-8.42-2.64a9.77,9.77,0,0,1-3.13-7.66v-7.34a9.75,9.75,0,0,1,3.13-7.66c2-1.72,4.86-2.64,8.42-2.64S746.64,277.81,748.64,279.53Zm-14.51,2.59a6.41,6.41,0,0,0-1.94,5.07v1.94h16.12v-1.94a6.41,6.41,0,0,0-1.94-5.07c-1.35-1.19-3.4-1.78-6.09-1.78S735.48,280.93,734.13,282.12Z"/><path class="cls-1" d="M768.81,276.89a13.9,13.9,0,0,1,6.64,1.45,8.66,8.66,0,0,1,4.1,4.54l-3.19,1.29a5.49,5.49,0,0,0-2.53-2.8,11.15,11.15,0,0,0-5-1h-.64c-2.81,0-5,.43-6.37,1.35a3.54,3.54,0,0,0,0,6.09c1.4.92,3.56,1.35,6.37,1.35a15.65,15.65,0,0,1,8.14,1.84,7.08,7.08,0,0,1,0,12,15.65,15.65,0,0,1-8.14,1.84h-.65a14,14,0,0,1-6.69-1.46,8.6,8.6,0,0,1-4.1-4.53l3.24-1.29a5.23,5.23,0,0,0,2.48,2.8,11.38,11.38,0,0,0,5.07,1h.65c2.75,0,4.9-.43,6.31-1.35a3.56,3.56,0,0,0,0-6.1,11.89,11.89,0,0,0-6.31-1.35,15.86,15.86,0,0,1-8.2-1.83,7.07,7.07,0,0,1,0-12,15.86,15.86,0,0,1,8.2-1.83Z"/><path class="cls-1" d="M796.7,276.89a13.9,13.9,0,0,1,6.64,1.45,8.66,8.66,0,0,1,4.1,4.54l-3.19,1.29a5.53,5.53,0,0,0-2.53-2.8,11.18,11.18,0,0,0-5-1h-.64c-2.81,0-5,.43-6.37,1.35a3.54,3.54,0,0,0,0,6.09c1.4.92,3.56,1.35,6.37,1.35A15.65,15.65,0,0,1,804.2,291a7.08,7.08,0,0,1,0,12,15.65,15.65,0,0,1-8.14,1.84h-.65a13.94,13.94,0,0,1-6.69-1.46,8.6,8.6,0,0,1-4.1-4.53l3.24-1.29a5.23,5.23,0,0,0,2.48,2.8,11.38,11.38,0,0,0,5.07,1h.65c2.75,0,4.9-.43,6.31-1.35a3.56,3.56,0,0,0,0-6.1,11.89,11.89,0,0,0-6.31-1.35,15.86,15.86,0,0,1-8.2-1.83,7.07,7.07,0,0,1,0-12,15.86,15.86,0,0,1,8.2-1.83Z"/><path class="cls-1" d="M818.55,269.34a2.27,2.27,0,1,1-2.26-2.27A2.21,2.21,0,0,1,818.55,269.34Zm-4,35.49V276.89H818v27.94Z"/><path class="cls-1" d="M844.93,279.53a9.75,9.75,0,0,1,3.13,7.66v7.34a9.77,9.77,0,0,1-3.13,7.66c-2,1.72-4.8,2.64-8.36,2.64s-6.42-.92-8.42-2.64a9.76,9.76,0,0,1-3.12-7.66v-7.34a9.75,9.75,0,0,1,3.12-7.66c2-1.72,4.86-2.64,8.42-2.64S842.93,277.81,844.93,279.53Zm-14.51,2.59a6.44,6.44,0,0,0-1.94,5.07v7.34a6.46,6.46,0,0,0,1.94,5.07c1.35,1.18,3.45,1.78,6.15,1.78s4.75-.6,6.09-1.78a6.43,6.43,0,0,0,2-5.07v-7.34a6.41,6.41,0,0,0-2-5.07c-1.34-1.19-3.39-1.78-6.09-1.78S831.77,280.93,830.42,282.12Z"/><path class="cls-1" d="M874.44,279.53a9.75,9.75,0,0,1,3.13,7.66v17.64h-3.46V287.19a6.41,6.41,0,0,0-1.94-5.07c-1.35-1.19-3.4-1.78-6.09-1.78s-4.8.59-6.15,1.78a6.41,6.41,0,0,0-1.94,5.07v17.64h-3.46V276.89H858v2.37a12.79,12.79,0,0,1,8.09-2.37C869.64,276.89,872.44,277.81,874.44,279.53Z"/><path class="cls-1" d="M895.69,276.89a13.92,13.92,0,0,1,6.64,1.45,8.6,8.6,0,0,1,4.09,4.54l-3.18,1.29a5.58,5.58,0,0,0-2.53-2.8,11.18,11.18,0,0,0-5-1H895c-2.8,0-5,.43-6.36,1.35a3.54,3.54,0,0,0,0,6.09c1.4.92,3.56,1.35,6.36,1.35a15.66,15.66,0,0,1,8.15,1.84,7.08,7.08,0,0,1,0,12,15.66,15.66,0,0,1-8.15,1.84h-.64a13.94,13.94,0,0,1-6.69-1.46,8.6,8.6,0,0,1-4.1-4.53l3.23-1.29a5.29,5.29,0,0,0,2.49,2.8,11.38,11.38,0,0,0,5.07,1H895c2.75,0,4.91-.43,6.31-1.35a3.55,3.55,0,0,0,0-6.1,11.86,11.86,0,0,0-6.31-1.35,15.91,15.91,0,0,1-8.2-1.83,7.09,7.09,0,0,1,0-12,15.91,15.91,0,0,1,8.2-1.83Z"/><path class="cls-1" d="M917,302.56a2.27,2.27,0,1,1-2.27-2.26A2.21,2.21,0,0,1,917,302.56Z"/></g></g></svg>