<svg xmlns="http://www.w3.org/2000/svg" viewBox="0 0 1815.9 204.32"><defs><style>.cls-1{fill:#2d2d2d;}</style></defs><g id="Livello_2" data-name="Livello 2"><g id="Livello_1-2" data-name="Livello 1"><path class="cls-1" d="M1421.3.11c-21.42,0-39.13,7.29-51.13,21q-18,20.13-18,56v50.19c0,23.62,6,42.59,18,56,12,13.71,29.71,21,51.13,21s39.14-7.29,51.42-21c11.72-13.42,17.72-32.39,17.72-56V77.12c0-23.92-6-42.59-17.72-56C1460.44,7.4,1442.73.11,1421.3.11ZM1463,127.31c0,16.62-3.43,29.16-10.85,37.34-6.86,7.87-17.15,11.67-30.86,11.67s-24-3.8-30.85-11.67c-7.14-8.18-10.86-20.72-10.86-37.34V77.12c0-16.62,3.72-29.16,10.86-37.34,6.86-7.87,17.14-11.66,30.85-11.66s24,3.79,30.86,11.66C1459.58,48,1463,60.5,1463,77.12Z"/><path class="cls-1" d="M197.49,2H112.07v8.16q8.18,0,11.84,2.83t3.67,11V180q0,8.16-3.67,11t-11.84,2.83V202h85.42c21.43,0,39.14-7.14,51.42-20.57,11.71-13.14,17.71-31.71,17.71-54.85V77.41c0-23.42-6-41.71-17.71-54.85C236.63,9.14,218.92,2,197.49,2ZM239.2,126.55c0,16.29-3.43,28.57-10.86,36.57-6.86,7.71-17.14,11.43-30.85,11.43H155.78V29.43h41.71c13.71,0,24,3.71,30.85,11.42,7.43,8,10.86,20.28,10.86,36.56Z"/><path class="cls-1" d="M1593.89,2h-41V1.89h-43.72v8.17c5.45,0,9.41.94,11.85,2.82s3.66,5.55,3.66,11v156q0,8.16-3.66,11c-2.44,1.89-6.4,2.83-11.85,2.83v8.17h15.53v.1h69.14c21.43,0,39.14-7.14,51.42-20.57C1657,168.26,1663,149.69,1663,126.55V77.41c0-23.42-6-41.71-17.71-54.85C1633,9.14,1615.32,2,1593.89,2Zm41.71,124.55c0,16.29-3.43,28.57-10.86,36.57-6.86,7.71-17.14,11.43-30.85,11.43h-41V29.43h41c13.71,0,24,3.71,30.85,11.42,7.43,8,10.86,20.28,10.86,36.56Z"/><path class="cls-1" d="M439.21,65.13c0-19.71-6.57-36-18.86-46.85S391.21,2,370.08,2H285v8.16q8.17,0,11.84,2.83t3.67,11V180q0,8.16-3.67,11T285,193.81V202h59.22v-8.16q-8.18,0-11.84-2.83t-3.67-11V128h20.81l55.42,74h34.28l-56-74.85c15.14-1.71,27.72-6.85,37.14-15.42C432.64,100.84,439.21,84.56,439.21,65.13ZM402.07,91.41c-6.86,6-18,9.15-32,9.15H328.7V29.43h41.38c14,0,25.13,3.13,32,9.42,6.57,5.72,9.71,14.57,9.71,26.28C411.78,76.55,408.64,85.42,402.07,91.41Z"/><path class="cls-1" d="M999.24,2H976.67L905.25,155.69,834.26,2.3V2H795.17v8.16q7.32,0,10.6,2.83T809,24V180q0,8.16-3.27,11t-10.6,2.83V202H839V77.7L896.68,202h17.43L971.82,77.7V202h44.31v-8.16c-4.87,0-8.41-.94-10.59-2.83s-3.28-5.54-3.28-11V24q0-8.16,3.28-11c2.18-1.88,5.72-2.83,10.59-2.83V2H999.24Z"/><path class="cls-1" d="M716.36,15.05h0L712,2.81H672.72V11c8.84,0,9.86.39,11.49,1.63,3.49,2.65,2.48,5.48,1.28,9.94L627.16,185.24a12.94,12.94,0,0,1-5.49,6q-5.07,2.67-13.82,2.66V202h62.77v-8.13c-8.84,0-9-1-10.91-2.48-2.67-2.07-3.06-5.13-1.74-10.34l1-2.78,4.75-13L702.26,57.18l38.85,108.15L754.26,202H783.4l-67-187Z"/><path class="cls-1" d="M1240.38,39.78c7.67-7.87,19.16-11.66,34.49-11.66,23.63,0,37.48,7.17,43.23,25.84l9.36-.07L1324.91,15c-1.16-.86-2.18-1.85-3.41-2.63C1309.05,4.19,1293.4.11,1274.87.11c-23.95,0-43.75,7.29-57.16,21q-20.13,20.13-20.12,56v50.19c0,23.62,6.7,42.59,20.12,56,13.41,13.71,33.21,21,57.16,21,18.53,0,34.18-4.08,46.63-12.25,1.26-.83,2.31-1.86,3.5-2.76l2.46-40.77-8.83.06c-5.75,18.67-20.13,27.72-43.76,27.72-15.33,0-26.82-3.8-34.49-11.67A52.91,52.91,0,0,1,1225,127.31V77.13A52.91,52.91,0,0,1,1240.38,39.78Z"/><path class="cls-1" d="M1074.29,36.47c6.86-5.55,18.29-8.46,32.57-8.46H1110c29.82-1.15,52.72,20,57.86,38.65l8.13-2.44-3.06-38.87c-.86-.7-1.6-1.52-2.5-2.16C1159.29,15,1140.24,0,1110,0h-3.14c-20.85,0-37.42,4.66-49.42,14.29-12.86,10.21-19.71,25.38-19.71,43.77s6.85,33.54,19.71,43.76c12,9.33,28.57,14.29,49.42,14.29,14.57,0,25.71,2.91,32.85,8.46,6,5,8.86,12,8.86,21.59s-2.86,16.63-8.86,21.59c-7.14,5.54-18.28,8.46-32.85,8.46h-3.14c-21.14,0-53.68-12.94-58.82-31.61l-6.93,2.08,3.57,37.27c11.15,8.16,42.09,20.32,62.18,20.27h3.14c20.86,0,37.42-5,49.42-14.3,13.14-10.21,19.71-25.38,19.71-43.76s-6.57-33.55-19.71-43.76c-12-9.33-28.56-14.3-49.42-14.3-14.28,0-25.71-2.91-32.57-8.45-6.28-5-9.14-12-9.14-21.59S1068,41.43,1074.29,36.47Z"/><path class="cls-1" d="M475.69,2H458.51v8.16q7.9,0,11.46,2.83c2.35,1.88,3.54,5.55,3.54,11V180c0,5.44-1.19,9.1-3.54,11s-6.19,2.83-11.46,2.83V202H592.08V174.56h0V158.48H583c0,5.67-1.06,9.75-3.18,12.29s-6.12,3.75-12.08,3.78H501V115.7h41.24V88.27H501V29.43H569.3c5,.24,8.59,1.42,10.47,3.68Q583,36.92,583,45.4h9.13V2H475.69Z"/><path class="cls-1" d="M1725.36,2V1.89h-43.72v8.17c5.45,0,9.41.94,11.85,2.82s3.66,5.55,3.66,11v156q0,8.16-3.66,11c-2.44,1.89-6.4,2.83-11.85,2.83v8.17h15.7v.1H1815.9V158.55h-9.14c0,5.67-1,9.75-3.18,12.29-1.92,2.32-5.6,3.51-10.85,3.71h-67.37V115.7l40.52-.11V88.16l-40.52.11V29.43h67.58c5.13.22,8.74,1.41,10.64,3.69,2.13,2.54,3.18,6.63,3.18,12.29h9.14V2Z"/><path class="cls-1" d="M681.84,145.72v-2.54l20.3-8.5,20.1,8.5v2.54m0-1.65v2.54l-20.1,8.49-20.3-8.49v-2.54"/><path class="cls-1" d="M82.06,74a4.3,4.3,0,0,1-2.61,1.32H7.39A4.33,4.33,0,0,1,4.77,74Q3.56,72.43,3.55,69H0V93.69H3.55q0-3.41,1.22-4.93c.83-1,2.42-1.52,4.78-1.52H37.46V123.4H8.83c-1.95-.1-3.32-.57-4.06-1.48S3.55,119.26,3.55,117H0v24.66H3.55q0-3.41,1.22-4.93a4.58,4.58,0,0,1,3-1.4H79a4.55,4.55,0,0,1,3,1.4q1.23,1.53,1.23,4.93h3.54V117H83.29q0,3.41-1.23,4.93c-.73.91-2.1,1.38-4,1.48H49.37V87.24H77.29c2.36,0,3.95.5,4.77,1.52s1.23,2.66,1.23,4.93h3.54V69H83.29Q83.29,72.44,82.06,74Z"/><path class="cls-1" d="M83.28,164.42c0,2.2-.41,3.78-1.22,4.76a5.21,5.21,0,0,1-3.7,1.41H11.91V156.27a2.64,2.64,0,0,1,1.43-2.35,12.28,12.28,0,0,1,5-.72v-2.08H0V202H18.3V199.9a12.46,12.46,0,0,1-5-.72,2.66,2.66,0,0,1-1.43-2.35V182.5H77.66c2.14.05,3.62.52,4.4,1.44s1.22,2.57,1.22,4.77h3.55V164.42Z"/><path class="cls-1" d="M74.92,2H68.7V5.55c2.2,0,3.78.41,4.76,1.22s1.43,2.34,1.46,4.59V41.57H49.37V23.26H37.46V41.57H11.91V11.42c0-2.28.5-3.84,1.46-4.65s2.57-1.22,4.76-1.22V2H0V59.56H3.55c0-2.19.41-3.78,1.22-4.76a4.57,4.57,0,0,1,2.85-1.32h71.6a4.51,4.51,0,0,1,2.84,1.32c.82,1,1.23,2.57,1.23,4.76h3.54V2H74.92Z"/></g></g></svg>