<svg xmlns="http://www.w3.org/2000/svg" viewBox="0 0 9.94 171.93"><defs><style>.cls-1{fill:#2d2d2d;}</style></defs><g id="Livello_2" data-name="Livello 2"><g id="Livello_1-2" data-name="Livello 1"><path class="cls-1" d="M8.57,1.14A4.25,4.25,0,0,1,9.94,4.46v3a4.24,4.24,0,0,1-1.37,3.31A5.3,5.3,0,0,1,5,12a5.71,5.71,0,0,1-3.15-.8V16H0V0H1.83V.8A5.71,5.71,0,0,1,5,0,5.35,5.35,0,0,1,8.57,1.14Zm-6,1.37a2.47,2.47,0,0,0-.75,2v3a2.45,2.45,0,0,0,.75,1.94,3.58,3.58,0,0,0,2.4.69,3.58,3.58,0,0,0,2.4-.69A2.52,2.52,0,0,0,8.12,7.5v-3a2.54,2.54,0,0,0-.74-1.95A3.64,3.64,0,0,0,5,1.83,3.64,3.64,0,0,0,2.58,2.51Z"/><path class="cls-1" d="M6.94,24.68a3.6,3.6,0,0,0-2.4.69,2.51,2.51,0,0,0-.73,1.94v7.5H2v-12H3.81v.8a5.77,5.77,0,0,1,3.13-.8H8v1.83Z"/><path class="cls-1" d="M8.58,46.85a4.24,4.24,0,0,1,1.35,3.32v3a4.23,4.23,0,0,1-1.35,3.31A5.37,5.37,0,0,1,5,57.66a5.35,5.35,0,0,1-3.59-1.14A4.24,4.24,0,0,1,0,53.21v-3a4.25,4.25,0,0,1,1.37-3.32A5.35,5.35,0,0,1,5,45.71,5.37,5.37,0,0,1,8.58,46.85Zm-6,1.37a2.53,2.53,0,0,0-.73,2v3a2.53,2.53,0,0,0,.73,1.94,3.67,3.67,0,0,0,2.4.68,3.65,3.65,0,0,0,2.4-.68,2.42,2.42,0,0,0,.73-1.94v-3a2.43,2.43,0,0,0-.73-2A3.6,3.6,0,0,0,5,47.54,3.62,3.62,0,0,0,2.57,48.22Z"/><path class="cls-1" d="M6.29,79.6a5.32,5.32,0,0,1-1.15,3.61,4.21,4.21,0,0,1-3.31,1.35V82.73A2.47,2.47,0,0,0,3.77,82a3.6,3.6,0,0,0,.69-2.4v-11H6.29Zm.22-13.94A1.14,1.14,0,0,1,5.37,66.8a1.15,1.15,0,0,1-1.14-1.14,1.14,1.14,0,0,1,1.14-1.14A1.13,1.13,0,0,1,6.51,65.66Z"/><path class="cls-1" d="M8.58,92.56a4.23,4.23,0,0,1,1.35,3.31V98.3H1.84v.61a2.53,2.53,0,0,0,.73,2,3.67,3.67,0,0,0,2.4.68h.28a4.16,4.16,0,0,0,2-.41,1.9,1.9,0,0,0,.94-1l1.69.68a3.66,3.66,0,0,1-1.76,2,5.8,5.8,0,0,1-2.85.64H5a5.35,5.35,0,0,1-3.59-1.14A4.25,4.25,0,0,1,0,98.91v-3a4.24,4.24,0,0,1,1.37-3.31A5.3,5.3,0,0,1,5,91.42,5.32,5.32,0,0,1,8.58,92.56Zm-6,1.37a2.51,2.51,0,0,0-.73,1.94v.6H8.1v-.6a2.41,2.41,0,0,0-.73-1.94A3.6,3.6,0,0,0,5,93.24,3.62,3.62,0,0,0,2.57,93.93Z"/><path class="cls-1" d="M8,114.91a3.73,3.73,0,0,1,1.78,2l-1.69.68a2,2,0,0,0-1-1,4.18,4.18,0,0,0-2-.41,3.67,3.67,0,0,0-2.4.68,2.53,2.53,0,0,0-.73,2v3a2.51,2.51,0,0,0,.73,1.94,3.62,3.62,0,0,0,2.4.69,4.06,4.06,0,0,0,2-.42,2,2,0,0,0,1-1l1.69.69a3.71,3.71,0,0,1-1.78,2,5.76,5.76,0,0,1-2.86.64,5.3,5.3,0,0,1-3.59-1.14,4.24,4.24,0,0,1-1.37-3.31v-3a4.25,4.25,0,0,1,1.37-3.32,5.35,5.35,0,0,1,3.59-1.14A5.87,5.87,0,0,1,8,114.91Z"/><path class="cls-1" d="M8.26,137.12V139H5.13v5.67a2.5,2.5,0,0,0,.73,1.94,3.62,3.62,0,0,0,2.4.69v1.83a5.37,5.37,0,0,1-3.61-1.14,4.24,4.24,0,0,1-1.35-3.32V139H1.68v-1.83H3.3v-4H5.13v4Z"/><path class="cls-1" d="M5.25,160a5.69,5.69,0,0,1,2.85.64,3.64,3.64,0,0,1,1.76,2l-1.69.69a1.9,1.9,0,0,0-.94-1.05,4,4,0,0,0-2-.41H5a4.63,4.63,0,0,0-2.51.52,1.15,1.15,0,0,0-.62,1.1,1.19,1.19,0,0,0,.62,1.1A5,5,0,0,0,5,165a6.62,6.62,0,0,1,3.5.8A3.46,3.46,0,0,1,9.57,167a3.17,3.17,0,0,1,.36,1.53A3.12,3.12,0,0,1,9.57,170a3.27,3.27,0,0,1-1.1,1.12,6.62,6.62,0,0,1-3.5.8H4.7a5.76,5.76,0,0,1-2.86-.64,3.71,3.71,0,0,1-1.76-2l1.69-.69a2.05,2.05,0,0,0,.94,1.05,4.2,4.2,0,0,0,2,.41H5a4.59,4.59,0,0,0,2.52-.52,1.15,1.15,0,0,0,.61-1.1,1.2,1.2,0,0,0-.61-1.1A4.79,4.79,0,0,0,5,166.86a6.51,6.51,0,0,1-3.47-.78A3.26,3.26,0,0,1,.4,165,3.19,3.19,0,0,1,0,163.43,3.11,3.11,0,0,1,.4,161.9a3,3,0,0,1,1.1-1.12A6.5,6.5,0,0,1,5,160Z"/></g></g></svg>